{
.appVersion = "895";
classes = (
{
automatic = 1;

glyphs = (
{
glyphname = "hamza-ar";
lastChange = "2016-07-24 15:10:47 +0000";
layers = (
{
anchors = (
{
name = bottom;
position = "{521, -199}";
},
{
name = top;
position = "{521, 925}";
}
);
layerId = "93A312F7-B931-4485-B08E-C367313EB5E7";
paths = (
{
closed = 1;
nodes = (
"436 81 OFFCURVE",
"631 195 OFFCURVE",
"857 315 CURVE SMOOTH",
"866 320 OFFCURVE",
"871 327 OFFCURVE",
"869 336 CURVE SMOOTH",
"861 466 LINE SMOOTH",
"860 478 OFFCURVE",
"852 484 OFFCURVE",
"841 477 CURVE SMOOTH",
"494 271 LINE SMOOTH",
"486 267 OFFCURVE",
"477 267 OFFCURVE",
"470 274 CURVE SMOOTH",
"271 457 LINE SMOOTH",
"263 465 OFFCURVE",
"262 473 OFFCURVE",
"269 481 CURVE SMOOTH",
"370 599 OFFCURVE",
"507 619 OFFCURVE",
"652 614 CURVE SMOOTH",
"664 613 OFFCURVE",
"670 620 OFFCURVE",
"669 630 CURVE SMOOTH",
"658 719 LINE SMOOTH",
"657 728 OFFCURVE",
"653 735 OFFCURVE",
"643 738 CURVE SMOOTH",
"421 802 OFFCURVE",
"173 667 OFFCURVE",
"173 447 CURVE SMOOTH",
"173 351 OFFCURVE",
"275 248 OFFCURVE",
"346 195 CURVE SMOOTH",
"357 187 OFFCURVE",
"355 178 OFFCURVE",
"345 171 CURVE SMOOTH",
"224 98 LINE SMOOTH",
"216 93 OFFCURVE",
"213 87 OFFCURVE",
"213 77 CURVE SMOOTH",
"212 -26 LINE SMOOTH",
"212 -40 OFFCURVE",
"221 -46 OFFCURVE",
"232 -39 CURVE SMOOTH"
);
}
);
width = 1007;
},
{
anchors = (
{
name = bottom;
position = "{516, -220}";
},
{
name = top;
position = "{516, 946}";
}
);
layerId = "00FED3EE-B3F5-49E6-B91A-35FC52169726";
paths = (
{
closed = 1;
nodes = (
"844 310 LINE",
"853 316 OFFCURVE",
"860 324 OFFCURVE",
"860 331 CURVE",
"852 465 LINE",
"852 481 OFFCURVE",
"840 494 OFFCURVE",
"819 482 CURVE SMOOTH",
"487 285 LINE SMOOTH",
"482 282 OFFCURVE",
"477 283 OFFCURVE",
"474 286 CURVE SMOOTH",
"283 462 LINE SMOOTH",
"278 467 OFFCURVE",
"278 468 OFFCURVE",
"282 471 CURVE SMOOTH",
"388 551 OFFCURVE",
"481 597 OFFCURVE",
"605 597 CURVE SMOOTH",
"641 597 OFFCURVE",
"672 594 OFFCURVE",
"668 622 CURVE SMOOTH",
"658 708 LINE SMOOTH",
"656 721 OFFCURVE",
"649 731 OFFCURVE",
"636 734 CURVE SMOOTH",
"599 746 OFFCURVE",
"561 750 OFFCURVE",
"524 750 CURVE SMOOTH",
"337 750 OFFCURVE",
"173 620 OFFCURVE",
"173 445 CURVE SMOOTH",
"173 349 OFFCURVE",
"275 247 OFFCURVE",
"343 196 CURVE SMOOTH",
"347 193 OFFCURVE",
"348 191 OFFCURVE",
"342 188 CURVE SMOOTH",
"227 119 LINE SMOOTH",
"216 112 OFFCURVE",
"211 103 OFFCURVE",
"211 90 CURVE SMOOTH",
"210 -9 LINE SMOOTH",
"210 -30 OFFCURVE",
"228 -38 OFFCURVE",
"244 -29 CURVE"
);
}
);
width = 995;
}
);
leftKerningGroup = all;
unicode = 0621;
},
{
glyphname = "alef-ar";
lastChange = "2016-07-24 15:11:00 +0000";
layers = (
{
anchors = (
{
name = bottom;
position = "{293, -207}";
},
{
name = top;
position = "{259, 1707}";
}
);
layerId = "93A312F7-B931-4485-B08E-C367313EB5E7";
paths = (
{
closed = 1;
nodes = (
"344 -3 LINE SMOOTH",
"350 -1 OFFCURVE",
"354 3 OFFCURVE",
"354 12 CURVE SMOOTH",
"346 1519 LINE SMOOTH",
"346 1538 OFFCURVE",
"330 1546 OFFCURVE",
"315 1538 CURVE SMOOTH",
"181 1465 LINE SMOOTH",
"176 1463 OFFCURVE",
"173 1458 OFFCURVE",
"173 1451 CURVE SMOOTH",
"232 -15 LINE SMOOTH",
"232 -29 OFFCURVE",
"246 -38 OFFCURVE",
"259 -33 CURVE SMOOTH"
);
}
);
width = 492;
},
{
anchors = (
{
name = bottom;
position = "{298, -228}";
},
{
name = top;
position = "{265, 1687}";
}
);
layerId = "00FED3EE-B3F5-49E6-B91A-35FC52169726";
paths = (
{
closed = 1;
nodes = (
"349 -2 LINE SMOOTH",
"360 1 OFFCURVE",
"366 10 OFFCURVE",
"366 21 CURVE SMOOTH",
"358 1468 LINE SMOOTH",
"358 1493 OFFCURVE",
"336 1505 OFFCURVE",
"314 1495 CURVE SMOOTH",
"182 1423 LINE SMOOTH",
"176 1419 OFFCURVE",
"173 1411 OFFCURVE",
"173 1403 CURVE SMOOTH",
"229 -5 LINE SMOOTH",
"230 -22 OFFCURVE",
"244 -37 OFFCURVE",
"269 -31 CURVE SMOOTH"
);
}
);
width = 500;
}
);
leftKerningGroup = a;
unicode = 0627;
},
{
glyphname = "alef-ar.fina";
lastChange = "2016-07-24 15:11:18 +0000";
layers = (
{
anchors = (
{
name = bottom;
position = "{486, -173}";
},
{
name = top;
position = "{253, 1702}";
}
);
layerId = "93A312F7-B931-4485-B08E-C367313EB5E7";
paths = (
{
closed = 1;
nodes = (
"685 0 LINE",
"733 60 OFFCURVE",
"733 119 OFFCURVE",
"685 179 CURVE",
"599 179 LINE SMOOTH",
"545 179 OFFCURVE",
"436 200 OFFCURVE",
"366 243 CURVE SMOOTH",
"358 247 OFFCURVE",
"354 253 OFFCURVE",
"354 263 CURVE SMOOTH",
"335 1520 LINE SMOOTH",
"335 1534 OFFCURVE",
"327 1540 OFFCURVE",
"314 1532 CURVE SMOOTH",
"183 1449 LINE SMOOTH",
"175 1443 OFFCURVE",
"173 1439 OFFCURVE",
"173 1428 CURVE SMOOTH",
"225 393 LINE SMOOTH",
"239 123 OFFCURVE",
"307 0 OFFCURVE",
"551 0 CURVE SMOOTH"
);
}
);
width = 666;
},
{
anchors = (
{
name = bottom;
position = "{483, -195}";
},
{
name = top;
position = "{259, 1682}";
}
);
layerId = "00FED3EE-B3F5-49E6-B91A-35FC52169726";
paths = (
{
closed = 1;
nodes = (
"675 0 LINE",
"702 32 OFFCURVE",
"714 63 OFFCURVE",
"714 96 CURVE SMOOTH",
"714 128 OFFCURVE",
"702 159 OFFCURVE",
"675 191 CURVE",
"591 191 LINE SMOOTH",
"540 191 OFFCURVE",
"439 210 OFFCURVE",
"372 252 CURVE SMOOTH",
"368 254 OFFCURVE",
"366 255 OFFCURVE",
"366 262 CURVE SMOOTH",
"348 1473 LINE SMOOTH",
"348 1491 OFFCURVE",
"336 1506 OFFCURVE",
"313 1493 CURVE SMOOTH",
"187 1422 LINE SMOOTH",
"177 1416 OFFCURVE",
"173 1409 OFFCURVE",
"173 1398 CURVE",
"223 386 LINE",
"237 102 OFFCURVE",
"321 0 OFFCURVE",
"545 0 CURVE SMOOTH"
);
}
);
width = 656;
}
);
unicode = FE8E;
},
{
glyphname = "alef-ar.short";
lastChange = "2016-07-24 15:11:22 +0000";
layers = (
{
anchors = (
{
name = bottom;
position = "{293, -206}";
},
{
name = top;
position = "{259, 1533}";
}
);
layerId = "93A312F7-B931-4485-B08E-C367313EB5E7";
paths = (
{
closed = 1;
nodes = (
"344 -3 LINE SMOOTH",
"350 -1 OFFCURVE",
"354 3 OFFCURVE",
"354 12 CURVE SMOOTH",
"346 1347 LINE SMOOTH",
"346 1365 OFFCURVE",
"330 1373 OFFCURVE",
"315 1365 CURVE SMOOTH",
"181 1293 LINE SMOOTH",
"176 1290 OFFCURVE",
"173 1286 OFFCURVE",
"173 1279 CURVE SMOOTH",
"232 -15 LINE SMOOTH",
"233 -29 OFFCURVE",
"246 -38 OFFCURVE",
"259 -33 CURVE SMOOTH"
);
}
);
width = 492;
},
{
anchors = (
{
name = bottom;
position = "{303, -216}";
},
{
name = top;
position = "{269, 1573}";
}
);
components = (
{
name = "alef-ar";
transform = "{1, 0, 0, 0.893, 0, 0}";
}
);
layerId = "00FED3EE-B3F5-49E6-B91A-35FC52169726";
width = 500;
}
);
leftKerningGroup = a;
userData = {
com.typemytype.robofont.guides = (
{
angle = 0;
isGlobal = 0;
x = 293;
y = 1187;
}
);
};
},
{
glyphname = "alef-ar.fina.short";
lastChange = "2016-07-24 15:11:37 +0000";
layers = (
{
anchors = (
{
name = bottom;
position = "{469, -173}";
},
{
name = top;
position = "{339, 1523}";
}
);
layerId = "93A312F7-B931-4485-B08E-C367313EB5E7";
paths = (
{
closed = 1;
nodes = (
"686 0 LINE",
"734 60 OFFCURVE",
"734 119 OFFCURVE",
"686 179 CURVE",
"599 179 LINE SMOOTH",
"545 179 OFFCURVE",
"436 200 OFFCURVE",
"366 243 CURVE SMOOTH",
"358 247 OFFCURVE",
"354 253 OFFCURVE",
"354 263 CURVE SMOOTH",
"335 1336 LINE SMOOTH",
"335 1350 OFFCURVE",
"327 1356 OFFCURVE",
"314 1348 CURVE SMOOTH",
"183 1265 LINE SMOOTH",
"175 1259 OFFCURVE",
"172 1255 OFFCURVE",
"173 1244 CURVE SMOOTH",
"225 393 LINE SMOOTH",
"243 123 OFFCURVE",
"307 0 OFFCURVE",
"551 0 CURVE SMOOTH"
);
}
);
width = 666;
},
{
anchors = (
{
name = bottom;
position = "{467, -185}";
},
{
name = top;
position = "{275, 1472}";
}
);
layerId = "00FED3EE-B3F5-49E6-B91A-35FC52169726";
paths = (
{
closed = 1;
nodes = (
"675 0 LINE",
"702 32 OFFCURVE",
"714 63 OFFCURVE",
"714 96 CURVE SMOOTH",
"714 128 OFFCURVE",
"702 159 OFFCURVE",
"675 191 CURVE",
"591 191 LINE SMOOTH",
"540 191 OFFCURVE",
"439 210 OFFCURVE",
"372 252 CURVE SMOOTH",
"368 254 OFFCURVE",
"366 255 OFFCURVE",
"366 262 CURVE SMOOTH",
"348 1271 LINE SMOOTH",
"348 1289 OFFCURVE",
"332 1304 OFFCURVE",
"313 1291 CURVE SMOOTH",
"187 1211 LINE SMOOTH",
"177 1205 OFFCURVE",
"173 1198 OFFCURVE",
"173 1187 CURVE",
"223 386 LINE",
"241 102 OFFCURVE",
"321 0 OFFCURVE",
"545 0 CURVE SMOOTH"
);
}
);
width = 656;
}
);
userData = {
com.schriftgestaltung.Glyphs.rightMetricsKey = z;
com.typemytype.robofont.guides = (
{
angle = 0;
isGlobal = 0;
x = 285;
y = 1176;
}
);
};
},
{
glyphname = "behDotless-ar";
lastChange = "2016-07-24 15:12:09 +0000";
layers = (
{
anchors = (
{
name = bottom;
position = "{889, -227}";
},
{
name = top;
position = "{836, 861}";
}
);
layerId = "93A312F7-B931-4485-B08E-C367313EB5E7";
paths = (
{
closed = 1;
nodes = (
"798 -56 OFFCURVE",
"967 -44 OFFCURVE",
"1141 -13 CURVE SMOOTH",
"1443 35 OFFCURVE",
"1686 126 OFFCURVE",
"1686 412 CURVE SMOOTH",
"1686 504 OFFCURVE",
"1616 788 OFFCURVE",
"1574 964 CURVE SMOOTH",
"1571 976 OFFCURVE",
"1561 977 OFFCURVE",
"1551 968 CURVE SMOOTH",
"1448 864 LINE SMOOTH",
"1442 857 OFFCURVE",
"1440 850 OFFCURVE",
"1442 841 CURVE SMOOTH",
"1570 292 LINE SMOOTH",
"1572 282 OFFCURVE",
"1570 275 OFFCURVE",
"1559 270 CURVE SMOOTH",
"1418 208 OFFCURVE",
"1068 126 OFFCURVE",
"750 132 CURVE SMOOTH",
"480 137 OFFCURVE",
"256 212 OFFCURVE",
"279 443 CURVE SMOOTH",
"293 587 LINE SMOOTH",
"294 597 OFFCURVE",
"289 604 OFFCURVE",
"278 605 CURVE SMOOTH",
"215 611 LINE SMOOTH",
"205 612 OFFCURVE",
"197 605 OFFCURVE",
"195 595 CURVE SMOOTH",
"178 443 LINE SMOOTH",
"138 94 OFFCURVE",
"301 -43 OFFCURVE",
"666 -53 CURVE SMOOTH"
);
}
);
width = 1824;
},
{
anchors = (
{
name = bottom;
position = "{832, -237}";
},
{
name = ring;
position = "{296, -145}";
},
{
name = top;
position = "{820, 836}";
}
);
layerId = "00FED3EE-B3F5-49E6-B91A-35FC52169726";
paths = (
{
closed = 1;
nodes = (
"366 -38 OFFCURVE",
"695 -38 CURVE SMOOTH",
"815 -38 OFFCURVE",
"963 -22 OFFCURVE",
"1115 1 CURVE SMOOTH",
"1405 45 OFFCURVE",
"1645 137 OFFCURVE",
"1645 419 CURVE SMOOTH",
"1645 508 OFFCURVE",
"1580 781 OFFCURVE",
"1538 950 CURVE SMOOTH",
"1535 962 OFFCURVE",
"1527 968 OFFCURVE",
"1518 968 CURVE SMOOTH",
"1512 968 OFFCURVE",
"1505 965 OFFCURVE",
"1500 959 CURVE SMOOTH",
"1400 859 LINE SMOOTH",
"1394 853 OFFCURVE",
"1391 846 OFFCURVE",
"1391 838 CURVE",
"1515 301 LINE",
"1517 295 OFFCURVE",
"1516 294 OFFCURVE",
"1510 291 CURVE SMOOTH",
"1383 228 OFFCURVE",
"1065 153 OFFCURVE",
"769 153 CURVE SMOOTH",
"516 153 OFFCURVE",
"293 216 OFFCURVE",
"293 419 CURVE SMOOTH",
"293 437 OFFCURVE",
"292 451 OFFCURVE",
"308 586 CURVE SMOOTH",
"310 601 OFFCURVE",
"300 612 OFFCURVE",
"285 613 CURVE SMOOTH",
"225 619 LINE SMOOTH",
"210 620 OFFCURVE",
"197 611 OFFCURVE",
"195 596 CURVE SMOOTH",
"174 438 OFFCURVE",
"173 398 OFFCURVE",
"173 356 CURVE SMOOTH",
"173 63 OFFCURVE"
);
}
);
width = 1780;
}
);
leftKerningGroup = all;
unicode = 066E;
userData = {
com.typemytype.robofont.guides = (
{
angle = 0;
isGlobal = 0;
x = 383;
y = 1092;
}
);
};
},
{
glyphname = "behDotless-ar.fina";
lastChange = "2016-07-24 15:12:14 +0000";
layers = (
{
anchors = (
{
name = bottom;
position = "{889, -227}";
},
{
name = top;
position = "{836, 861}";
}
);
layerId = "93A312F7-B931-4485-B08E-C367313EB5E7";
paths = (
{
closed = 1;
nodes = (
"969 -60 OFFCURVE",
"1502 16 OFFCURVE",
"1624 161 CURVE SMOOTH",
"1633 171 OFFCURVE",
"1641 170 OFFCURVE",
"1647 159 CURVE SMOOTH",
"1705 52 OFFCURVE",
"1828 0 OFFCURVE",
"1948 0 CURVE SMOOTH",
"2014 0 LINE",
"2062 60 OFFCURVE",
"2062 119 OFFCURVE",
"2014 179 CURVE",
"1948 179 LINE SMOOTH",
"1792 179 OFFCURVE",
"1689 239 OFFCURVE",
"1666 414 CURVE SMOOTH",
"1625 721 LINE SMOOTH",
"1624 734 OFFCURVE",
"1611 739 OFFCURVE",
"1602 729 CURVE SMOOTH",
"1510 634 LINE SMOOTH",
"1504 627 OFFCURVE",
"1502 620 OFFCURVE",
"1503 611 CURVE SMOOTH",
"1558 267 LINE SMOOTH",
"1559 256 OFFCURVE",
"1557 250 OFFCURVE",
"1547 246 CURVE SMOOTH",
"1387 189 OFFCURVE",
"1029 128 OFFCURVE",
"750 133 CURVE SMOOTH",
"480 139 OFFCURVE",
"256 213 OFFCURVE",
"279 444 CURVE SMOOTH",
"293 588 LINE SMOOTH",
"294 598 OFFCURVE",
"289 605 OFFCURVE",
"278 606 CURVE SMOOTH",
"215 612 LINE SMOOTH",
"205 613 OFFCURVE",
"197 606 OFFCURVE",
"195 596 CURVE SMOOTH",
"178 444 LINE SMOOTH",
"138 95 OFFCURVE",
"301 -45 OFFCURVE",
"666 -53 CURVE SMOOTH"
);
}
);
width = 1994;
},
{
anchors = (
{
name = bottom;
position = "{871, -237}";
},
{
name = ring;
position = "{301, -147}";
},
{
name = top;
position = "{820, 836}";
}
);
layerId = "00FED3EE-B3F5-49E6-B91A-35FC52169726";
paths = (
{
closed = 1;
nodes = (
"173 59 OFFCURVE",
"366 -38 OFFCURVE",
"689 -38 CURVE SMOOTH",
"986 -38 OFFCURVE",
"1469 21 OFFCURVE",
"1584 158 CURVE SMOOTH",
"1588 162 OFFCURVE",
"1588 162 OFFCURVE",
"1590 157 CURVE SMOOTH",
"1643 60 OFFCURVE",
"1757 0 OFFCURVE",
"1887 0 CURVE SMOOTH",
"1952 0 LINE",
"1979 32 OFFCURVE",
"1991 63 OFFCURVE",
"1991 96 CURVE SMOOTH",
"1991 128 OFFCURVE",
"1979 159 OFFCURVE",
"1952 191 CURVE",
"1887 191 LINE SMOOTH",
"1727 191 OFFCURVE",
"1646 259 OFFCURVE",
"1626 408 CURVE SMOOTH",
"1587 703 LINE SMOOTH",
"1584 724 OFFCURVE",
"1561 731 OFFCURVE",
"1548 716 CURVE SMOOTH",
"1460 625 LINE SMOOTH",
"1455 619 OFFCURVE",
"1451 612 OFFCURVE",
"1451 601 CURVE",
"1503 264 LINE",
"1504 257 OFFCURVE",
"1502 256 OFFCURVE",
"1499 254 CURVE SMOOTH",
"1353 204 OFFCURVE",
"1035 153 OFFCURVE",
"774 153 CURVE SMOOTH",
"524 153 OFFCURVE",
"293 212 OFFCURVE",
"293 419 CURVE SMOOTH",
"293 445 OFFCURVE",
"294 471 OFFCURVE",
"308 586 CURVE SMOOTH",
"310 601 OFFCURVE",
"300 612 OFFCURVE",
"285 613 CURVE SMOOTH",
"225 619 LINE SMOOTH",
"210 620 OFFCURVE",
"197 612 OFFCURVE",
"195 596 CURVE SMOOTH",
"175 436 OFFCURVE",
"173 397 OFFCURVE",
"173 355 CURVE SMOOTH"
);
}
);
width = 1932;
}
);
},
{
glyphname = "behDotless-ar.medi";
lastChange = "2016-07-24 15:12:22 +0000";
layers = (
{
anchors = (
{
name = bottom;
position = "{370, -178}";
},
{
name = top;
position = "{529, 790}";
}
);
layerId = "93A312F7-B931-4485-B08E-C367313EB5E7";
paths = (
{
closed = 1;
nodes = (
"44 0 LINE SMOOTH",
"168 0 OFFCURVE",
"324 15 OFFCURVE",
"440 120 CURVE SMOOTH",
"448 126 OFFCURVE",
"457 126 OFFCURVE",
"465 118 CURVE SMOOTH",
"550 29 OFFCURVE",
"710 0 OFFCURVE",
"883 0 CURVE SMOOTH",
"933 0 LINE",
"981 60 OFFCURVE",
"981 119 OFFCURVE",
"933 179 CURVE",
"867 179 LINE SMOOTH",
"788 179 OFFCURVE",
"646 197 OFFCURVE",
"567 224 CURVE SMOOTH",
"558 228 OFFCURVE",
"554 235 OFFCURVE",
"555 245 CURVE SMOOTH",
"580 591 LINE SMOOTH",
"581 601 OFFCURVE",
"576 610 OFFCURVE",
"566 611 CURVE SMOOTH",
"504 614 LINE SMOOTH",
"493 615 OFFCURVE",
"484 610 OFFCURVE",
"483 599 CURVE SMOOTH",
"454 357 LINE SMOOTH",
"434 189 OFFCURVE",
"182 179 OFFCURVE",
"51 179 CURVE SMOOTH",
"-20 179 LINE SMOOTH",
"-138 179 OFFCURVE",
"-138 0 OFFCURVE",
"-20 0 CURVE SMOOTH"
);
}
);
width = 913;
},
{
anchors = (
{
name = bottom;
position = "{355, -180}";
},
{
name = ring;
position = "{345, -125}";
},
{
name = top;
position = "{508, 806}";
}
);
layerId = "00FED3EE-B3F5-49E6-B91A-35FC52169726";
paths = (
{
closed = 1;
nodes = (
"42 0 LINE SMOOTH",
"161 0 OFFCURVE",
"315 14 OFFCURVE",
"429 118 CURVE SMOOTH",
"432 120 OFFCURVE",
"436 120 OFFCURVE",
"440 116 CURVE SMOOTH",
"523 29 OFFCURVE",
"681 0 OFFCURVE",
"848 0 CURVE SMOOTH",
"897 0 LINE",
"924 32 OFFCURVE",
"936 63 OFFCURVE",
"936 96 CURVE SMOOTH",
"936 128 OFFCURVE",
"924 159 OFFCURVE",
"897 191 CURVE",
"832 191 LINE SMOOTH",
"757 191 OFFCURVE",
"622 208 OFFCURVE",
"547 233 CURVE SMOOTH",
"543 235 OFFCURVE",
"542 236 OFFCURVE",
"542 240 CURVE SMOOTH",
"542 241 OFFCURVE",
"542 242 OFFCURVE",
"542 244 CURVE SMOOTH",
"566 576 LINE SMOOTH",
"567 591 OFFCURVE",
"559 605 OFFCURVE",
"544 606 CURVE SMOOTH",
"484 609 LINE SMOOTH",
"468 610 OFFCURVE",
"456 601 OFFCURVE",
"454 586 CURVE SMOOTH",
"426 353 LINE SMOOTH",
"408 201 OFFCURVE",
"175 191 OFFCURVE",
"49 191 CURVE SMOOTH",
"-19 191 LINE SMOOTH",
"-83 191 OFFCURVE",
"-113 143 OFFCURVE",
"-113 96 CURVE SMOOTH",
"-113 48 OFFCURVE",
"-83 0 OFFCURVE",
"-19 0 CURVE SMOOTH"
);
}
);
width = 877;
}
);
},
{
glyphname = "behDotless-ar.init";
lastChange = "2016-07-24 15:12:26 +0000";
layers = (
{
anchors = (
{
name = bottom;
position = "{292, -179}";
},
{
name = top;
position = "{415, 1128}";
}
);
layerId = "93A312F7-B931-4485-B08E-C367313EB5E7";
paths = (
{
closed = 1;
nodes = (
"393 0 OFFCURVE",
"608 105 OFFCURVE",
"608 389 CURVE SMOOTH",
"608 481 OFFCURVE",
"538 765 OFFCURVE",
"497 941 CURVE SMOOTH",
"493 953 OFFCURVE",
"483 954 OFFCURVE",
"474 945 CURVE SMOOTH",
"370 841 LINE SMOOTH",
"365 834 OFFCURVE",
"362 828 OFFCURVE",
"365 818 CURVE SMOOTH",
"492 281 LINE SMOOTH",
"494 270 OFFCURVE",
"492 263 OFFCURVE",
"482 259 CURVE SMOOTH",
"363 206 OFFCURVE",
"240 179 OFFCURVE",
"0 179 CURVE SMOOTH",
"-20 179 LINE SMOOTH",
"-138 179 OFFCURVE",
"-138 0 OFFCURVE",
"-20 0 CURVE SMOOTH",
"0 0 LINE SMOOTH"
);
}
);
width = 746;
},
{
anchors = (
{
name = bottom;
position = "{280, -191}";
},
{
name = ring;
position = "{551, 0}";
},
{
name = top;
position = "{398, 1102}";
}
);
layerId = "00FED3EE-B3F5-49E6-B91A-35FC52169726";
paths = (
{
closed = 1;
nodes = (
"407 0 OFFCURVE",
"593 120 OFFCURVE",
"593 383 CURVE SMOOTH",
"593 472 OFFCURVE",
"526 746 OFFCURVE",
"487 915 CURVE SMOOTH",
"482 935 OFFCURVE",
"462 937 OFFCURVE",
"448 924 CURVE SMOOTH",
"348 824 LINE SMOOTH",
"342 817 OFFCURVE",
"340 810 OFFCURVE",
"340 804 CURVE",
"463 277 LINE",
"465 270 OFFCURVE",
"464 269 OFFCURVE",
"459 267 CURVE SMOOTH",
"346 217 OFFCURVE",
"229 191 OFFCURVE",
"0 191 CURVE SMOOTH",
"-19 191 LINE SMOOTH",
"-83 191 OFFCURVE",
"-113 143 OFFCURVE",
"-113 96 CURVE SMOOTH",
"-113 48 OFFCURVE",
"-83 0 OFFCURVE",
"-19 0 CURVE SMOOTH",
"0 0 LINE SMOOTH"
);
}
);
width = 728;
}
);
leftKerningGroup = all;
},
{
glyphname = "peh-ar.init";
lastChange = "2016-07-24 15:34:09 +0000";
layers = (
{
anchors = (
{
name = top;
position = "{544, 1159}";
}
);
components = (
{
name = "threedotsdownbelow-ar";
transform = "{1, 0, 0, 1, 25, -24}";
}
);
layerId = "93A312F7-B931-4485-B08E-C367313EB5E7";
paths = (
{
closed = 1;
nodes = (
"92 0 LINE SMOOTH",
"299 0 OFFCURVE",
"599 91 OFFCURVE",
"628 209 CURVE",
"651 278 OFFCURVE",
"665 361 OFFCURVE",
"665 423 CURVE SMOOTH",
"665 515 OFFCURVE",
"595 799 OFFCURVE",
"553 975 CURVE SMOOTH",
"550 988 OFFCURVE",
"539 989 OFFCURVE",
"530 980 CURVE SMOOTH",
"427 875 LINE SMOOTH",
"421 868 OFFCURVE",
"419 861 OFFCURVE",
"421 852 CURVE SMOOTH",
"568 319 LINE SMOOTH",
"576 290 OFFCURVE",
"563 279 OFFCURVE",
"544 271 CURVE SMOOTH",
"461 236 OFFCURVE",
"311 179 OFFCURVE",
"92 179 CURVE SMOOTH",
"-20 179 LINE SMOOTH",
"-138 179 OFFCURVE",
"-138 0 OFFCURVE",
"-20 0 CURVE SMOOTH"
);
}
);
width = 803;
},
{
anchors = (
{
name = top;
position = "{539, 1150}";
}
);
components = (
{
name = "dotlessbeh2-ar.init";
},
{
name = "threedotsdownbelow-ar";
transform = "{1, 0, 0, 1, -43, -42}";
}
);
layerId = "00FED3EE-B3F5-49E6-B91A-35FC52169726";
width = 838;
}
);
unicode = FB58;
},
{
glyphname = "hah-ar";
lastChange = "2016-07-24 15:12:49 +0000";
layers = (
{
anchors = (
{
name = bottom;
position = "{805, -968}";
},
{
name = center;
position = "{870, 0}";
},
{
name = top;
position = "{447, 1042}";
}
);
layerId = "93A312F7-B931-4485-B08E-C367313EB5E7";
paths = (
{
closed = 1;
nodes = (
"1235 -672 OFFCURVE",
"1281 -636 OFFCURVE",
"1336 -497 CURVE SMOOTH",
"1342 -482 OFFCURVE",
"1327 -470 OFFCURVE",
"1309 -474 CURVE SMOOTH",
"977 -542 OFFCURVE",
"478 -597 OFFCURVE",
"320 -312 CURVE SMOOTH",
"288 -251 OFFCURVE",
"277 -168 OFFCURVE",
"302 -66 CURVE SMOOTH",
"400 328 OFFCURVE",
"812 497 OFFCURVE",
"1228 503 CURVE SMOOTH",
"1235 503 OFFCURVE",
"1241 507 OFFCURVE",
"1243 513 CURVE SMOOTH",
"1298 681 LINE SMOOTH",
"1303 695 OFFCURVE",
"1293 708 OFFCURVE",
"1277 707 CURVE SMOOTH",
"946 690 OFFCURVE",
"784 780 OFFCURVE",
"614 833 CURVE SMOOTH",
"420 892 OFFCURVE",
"344 873 OFFCURVE",
"193 710 CURVE SMOOTH",
"189 705 OFFCURVE",
"187 700 OFFCURVE",
"189 695 CURVE SMOOTH",
"224 600 LINE SMOOTH",
"230 584 OFFCURVE",
"247 581 OFFCURVE",
"260 593 CURVE SMOOTH",
"376 708 OFFCURVE",
"422 703 OFFCURVE",
"541 666 CURVE SMOOTH",
"795 587 LINE",
"448 486 OFFCURVE",
"177 180 OFFCURVE",
"173 -183 CURVE SMOOTH",
"167 -743 OFFCURVE",
"615 -764 OFFCURVE",
"1037 -702 CURVE SMOOTH"
);
}
);
width = 1438;
},
{
anchors = (
{
name = bottom;
position = "{789, -891}";
},
{
name = center;
position = "{852, 10}";
},
{
name = top;
position = "{445, 1048}";
}
);
layerId = "00FED3EE-B3F5-49E6-B91A-35FC52169726";
paths = (
{
closed = 1;
nodes = (
"1192 -646 OFFCURVE",
"1243 -620 OFFCURVE",
"1298 -481 CURVE SMOOTH",
"1304 -458 OFFCURVE",
"1289 -444 OFFCURVE",
"1269 -444 CURVE SMOOTH",
"1235 -444 OFFCURVE",
"1052 -497 OFFCURVE",
"818 -497 CURVE SMOOTH",
"540 -497 OFFCURVE",
"302 -403 OFFCURVE",
"302 -162 CURVE SMOOTH",
"302 220 OFFCURVE",
"685 476 OFFCURVE",
"1195 483 CURVE SMOOTH",
"1206 483 OFFCURVE",
"1215 490 OFFCURVE",
"1218 499 CURVE SMOOTH",
"1262 633 OFFCURVE",
"1273 664 OFFCURVE",
"1273 674 CURVE SMOOTH",
"1273 698 OFFCURVE",
"1228 696 OFFCURVE",
"1159 696 CURVE SMOOTH",
"791 696 OFFCURVE",
"641 849 OFFCURVE",
"451 849 CURVE SMOOTH",
"359 849 OFFCURVE",
"293 804 OFFCURVE",
"194 697 CURVE SMOOTH",
"186 689 OFFCURVE",
"186 684 OFFCURVE",
"189 673 CURVE SMOOTH",
"223 583 LINE SMOOTH",
"228 569 OFFCURVE",
"238 562 OFFCURVE",
"250 562 CURVE SMOOTH",
"257 562 OFFCURVE",
"266 565 OFFCURVE",
"273 572 CURVE SMOOTH",
"339 638 OFFCURVE",
"379 660 OFFCURVE",
"426 660 CURVE SMOOTH",
"464 660 OFFCURVE",
"472 657 OFFCURVE",
"766 573 CURVE",
"396 491 OFFCURVE",
"173 155 OFFCURVE",
"173 -178 CURVE SMOOTH",
"173 -590 OFFCURVE",
"426 -697 OFFCURVE",
"728 -697 CURVE SMOOTH",
"817 -697 OFFCURVE",
"911 -687 OFFCURVE",
"1003 -674 CURVE SMOOTH"
);
}
);
width = 1413;
}
);
unicode = 062D;
},
{
glyphname = "hah-ar.fina";
lastChange = "2016-07-24 15:12:54 +0000";
layers = (
{
anchors = (
{
name = bottom;
position = "{793, -945}";
},
{
name = center;
position = "{679, -120}";
},
{
name = top;
position = "{484, 1063}";
}
);
layerId = "93A312F7-B931-4485-B08E-C367313EB5E7";
paths = (
{
closed = 1;
nodes = (
"1255 -669 OFFCURVE",
"1311 -633 OFFCURVE",
"1366 -494 CURVE SMOOTH",
"1372 -479 OFFCURVE",
"1357 -468 OFFCURVE",
"1339 -471 CURVE SMOOTH",
"1007 -535 OFFCURVE",
"478 -594 OFFCURVE",
"320 -309 CURVE SMOOTH",
"288 -248 OFFCURVE",
"277 -165 OFFCURVE",
"302 -63 CURVE SMOOTH",
"359 165 OFFCURVE",
"520 291 OFFCURVE",
"727 399 CURVE",
"811 145 OFFCURVE",
"977 0 OFFCURVE",
"1219 0 CURVE SMOOTH",
"1301 0 LINE",
"1349 60 OFFCURVE",
"1349 119 OFFCURVE",
"1301 179 CURVE",
"1235 179 LINE SMOOTH",
"1104 179 OFFCURVE",
"907 232 OFFCURVE",
"834 448 CURVE",
"958 497 OFFCURVE",
"1093 523 OFFCURVE",
"1228 526 CURVE SMOOTH",
"1235 526 OFFCURVE",
"1241 530 OFFCURVE",
"1243 536 CURVE SMOOTH",
"1298 704 LINE SMOOTH",
"1303 718 OFFCURVE",
"1293 731 OFFCURVE",
"1277 730 CURVE SMOOTH",
"946 713 OFFCURVE",
"784 803 OFFCURVE",
"614 856 CURVE SMOOTH",
"420 915 OFFCURVE",
"344 896 OFFCURVE",
"193 733 CURVE SMOOTH",
"189 728 OFFCURVE",
"187 723 OFFCURVE",
"189 718 CURVE SMOOTH",
"224 623 LINE SMOOTH",
"230 607 OFFCURVE",
"247 604 OFFCURVE",
"260 616 CURVE SMOOTH",
"376 731 OFFCURVE",
"422 726 OFFCURVE",
"541 689 CURVE SMOOTH",
"795 610 LINE",
"468 499 OFFCURVE",
"177 193 OFFCURVE",
"173 -180 CURVE SMOOTH",
"166 -740 OFFCURVE",
"635 -761 OFFCURVE",
"1057 -699 CURVE SMOOTH"
);
}
);
width = 1281;
},
{
anchors = (
{
name = bottom;
position = "{778, -898}";
},
{
name = center;
position = "{668, -106}";
},
{
name = top;
position = "{491, 1049}";
}
);
layerId = "00FED3EE-B3F5-49E6-B91A-35FC52169726";
paths = (
{
closed = 1;
nodes = (
"1198 -645 OFFCURVE",
"1244 -616 OFFCURVE",
"1298 -481 CURVE SMOOTH",
"1304 -457 OFFCURVE",
"1290 -444 OFFCURVE",
"1269 -444 CURVE SMOOTH",
"1237 -444 OFFCURVE",
"1042 -496 OFFCURVE",
"811 -496 CURVE SMOOTH",
"533 -496 OFFCURVE",
"302 -401 OFFCURVE",
"302 -162 CURVE SMOOTH",
"302 77 OFFCURVE",
"470 284 OFFCURVE",
"708 390 CURVE",
"793 142 OFFCURVE",
"959 0 OFFCURVE",
"1187 0 CURVE SMOOTH",
"1266 0 LINE",
"1293 32 OFFCURVE",
"1306 63 OFFCURVE",
"1306 96 CURVE SMOOTH",
"1306 128 OFFCURVE",
"1293 159 OFFCURVE",
"1266 191 CURVE",
"1202 191 LINE SMOOTH",
"1079 191 OFFCURVE",
"900 239 OFFCURVE",
"829 434 CURVE",
"944 478 OFFCURVE",
"1068 480 OFFCURVE",
"1195 483 CURVE SMOOTH",
"1206 483 OFFCURVE",
"1215 490 OFFCURVE",
"1218 499 CURVE SMOOTH",
"1266 638 OFFCURVE",
"1274 658 OFFCURVE",
"1274 670 CURVE SMOOTH",
"1274 698 OFFCURVE",
"1228 696 OFFCURVE",
"1159 696 CURVE SMOOTH",
"791 696 OFFCURVE",
"641 849 OFFCURVE",
"452 849 CURVE SMOOTH",
"360 849 OFFCURVE",
"292 803 OFFCURVE",
"194 697 CURVE SMOOTH",
"186 689 OFFCURVE",
"186 683 OFFCURVE",
"189 673 CURVE SMOOTH",
"223 583 LINE SMOOTH",
"228 569 OFFCURVE",
"239 562 OFFCURVE",
"251 562 CURVE SMOOTH",
"258 562 OFFCURVE",
"266 565 OFFCURVE",
"273 572 CURVE SMOOTH",
"339 638 OFFCURVE",
"379 660 OFFCURVE",
"427 660 CURVE SMOOTH",
"465 660 OFFCURVE",
"478 655 OFFCURVE",
"766 573 CURVE",
"396 491 OFFCURVE",
"173 157 OFFCURVE",
"173 -175 CURVE SMOOTH",
"173 -589 OFFCURVE",
"429 -697 OFFCURVE",
"731 -697 CURVE SMOOTH",
"820 -697 OFFCURVE",
"912 -687 OFFCURVE",
"1003 -674 CURVE SMOOTH"
);
}
);
width = 1247;
}
);
unicode = FEA2;
},
{
glyphname = "hah-ar.medi";
lastChange = "2016-07-24 15:12:57 +0000";
layers = (
{
anchors = (
{
name = bottom;
position = "{770, -132}";
},
{
name = top;
position = "{516, 968}";
}
);
layerId = "93A312F7-B931-4485-B08E-C367313EB5E7";
paths = (
{
closed = 1;
nodes = (
"352 0 OFFCURVE",
"679 146 OFFCURVE",
"964 253 CURVE SMOOTH",
"1012 271 OFFCURVE",
"1056 286 OFFCURVE",
"1095 298 CURVE",
"1193 141 OFFCURVE",
"1303 0 OFFCURVE",
"1561 0 CURVE SMOOTH",
"1627 0 LINE",
"1675 60 OFFCURVE",
"1675 119 OFFCURVE",
"1627 179 CURVE",
"1561 179 LINE SMOOTH",
"1402 179 OFFCURVE",
"1306 236 OFFCURVE",
"1245 328 CURVE",
"1312 335 OFFCURVE",
"1373 331 OFFCURVE",
"1446 323 CURVE SMOOTH",
"1456 322 OFFCURVE",
"1462 328 OFFCURVE",
"1465 337 CURVE SMOOTH",
"1521 508 LINE SMOOTH",
"1525 521 OFFCURVE",
"1520 529 OFFCURVE",
"1506 528 CURVE SMOOTH",
"1264 516 OFFCURVE",
"1068 603 OFFCURVE",
"852 690 CURVE SMOOTH",
"561 807 OFFCURVE",
"454 844 OFFCURVE",
"268 643 CURVE SMOOTH",
"261 635 OFFCURVE",
"261 629 OFFCURVE",
"263 620 CURVE SMOOTH",
"298 508 LINE SMOOTH",
"302 496 OFFCURVE",
"311 494 OFFCURVE",
"321 504 CURVE SMOOTH",
"399 587 OFFCURVE",
"442 618 OFFCURVE",
"503 618 CURVE SMOOTH",
"623 618 OFFCURVE",
"887 476 OFFCURVE",
"1074 435 CURVE",
"833 368 OFFCURVE",
"439 179 OFFCURVE",
"0 179 CURVE SMOOTH",
"-20 179 LINE SMOOTH",
"-138 179 OFFCURVE",
"-138 0 OFFCURVE",
"-20 0 CURVE SMOOTH",
"0 0 LINE SMOOTH"
);
}
);
width = 1607;
},
{
anchors = (
{
name = bottom;
position = "{739, -156}";
},
{
name = top;
position = "{515, 977}";
}
);
layerId = "00FED3EE-B3F5-49E6-B91A-35FC52169726";
paths = (
{
closed = 1;
nodes = (
"397 0 OFFCURVE",
"841 219 OFFCURVE",
"1047 284 CURVE",
"1140 135 OFFCURVE",
"1250 0 OFFCURVE",
"1499 0 CURVE SMOOTH",
"1563 0 LINE",
"1590 32 OFFCURVE",
"1602 63 OFFCURVE",
"1602 96 CURVE SMOOTH",
"1602 128 OFFCURVE",
"1590 159 OFFCURVE",
"1563 191 CURVE",
"1499 191 LINE SMOOTH",
"1367 191 OFFCURVE",
"1275 237 OFFCURVE",
"1212 323 CURVE",
"1240 325 OFFCURVE",
"1267 326 OFFCURVE",
"1294 326 CURVE SMOOTH",
"1324 326 OFFCURVE",
"1354 325 OFFCURVE",
"1387 322 CURVE",
"1401 321 OFFCURVE",
"1410 328 OFFCURVE",
"1415 342 CURVE",
"1470 494 LINE SMOOTH",
"1471 498 OFFCURVE",
"1472 502 OFFCURVE",
"1472 505 CURVE SMOOTH",
"1472 527 OFFCURVE",
"1437 525 OFFCURVE",
"1393 525 CURVE SMOOTH",
"1021 525 OFFCURVE",
"738 780 OFFCURVE",
"503 780 CURVE SMOOTH",
"417 780 OFFCURVE",
"343 733 OFFCURVE",
"251 634 CURVE SMOOTH",
"241 622 OFFCURVE",
"240 616 OFFCURVE",
"243 603 CURVE SMOOTH",
"276 494 LINE SMOOTH",
"280 483 OFFCURVE",
"288 477 OFFCURVE",
"297 477 CURVE SMOOTH",
"302 477 OFFCURVE",
"309 480 OFFCURVE",
"315 487 CURVE SMOOTH",
"393 569 OFFCURVE",
"431 593 OFFCURVE",
"483 593 CURVE SMOOTH",
"588 593 OFFCURVE",
"845 474 OFFCURVE",
"1021 426 CURVE",
"788 355 OFFCURVE",
"399 191 OFFCURVE",
"0 191 CURVE SMOOTH",
"-19 191 LINE SMOOTH",
"-83 191 OFFCURVE",
"-113 143 OFFCURVE",
"-113 96 CURVE SMOOTH",
"-113 48 OFFCURVE",
"-83 0 OFFCURVE",
"-19 0 CURVE SMOOTH",
"0 0 LINE SMOOTH"
);
}
);
width = 1544;
}
);
unicode = FEA4;
},
{
glyphname = "hah-ar.init";
lastChange = "2016-07-24 15:13:00 +0000";
layers = (
{
anchors = (
{
name = bottom;
position = "{719, -151}";
},
{
name = top;
position = "{508, 973}";
}
);
layerId = "93A312F7-B931-4485-B08E-C367313EB5E7";
paths = (
{
closed = 1;
nodes = (
"340 0 OFFCURVE",
"679 146 OFFCURVE",
"964 253 CURVE SMOOTH",
"1188 338 OFFCURVE",
"1291 340 OFFCURVE",
"1446 323 CURVE SMOOTH",
"1456 323 OFFCURVE",
"1462 328 OFFCURVE",
"1465 337 CURVE SMOOTH",
"1521 508 LINE SMOOTH",
"1525 521 OFFCURVE",
"1520 528 OFFCURVE",
"1506 528 CURVE SMOOTH",
"1264 516 OFFCURVE",
"1068 603 OFFCURVE",
"852 690 CURVE SMOOTH",
"561 807 OFFCURVE",
"454 856 OFFCURVE",
"268 643 CURVE SMOOTH",
"261 635 OFFCURVE",
"261 629 OFFCURVE",
"263 620 CURVE SMOOTH",
"298 508 LINE SMOOTH",
"301 496 OFFCURVE",
"312 493 OFFCURVE",
"321 504 CURVE SMOOTH",
"399 587 OFFCURVE",
"442 618 OFFCURVE",
"503 618 CURVE SMOOTH",
"623 618 OFFCURVE",
"887 476 OFFCURVE",
"1074 435 CURVE",
"833 368 OFFCURVE",
"439 179 OFFCURVE",
"0 179 CURVE SMOOTH",
"-20 179 LINE SMOOTH",
"-138 179 OFFCURVE",
"-138 0 OFFCURVE",
"-20 0 CURVE SMOOTH",
"0 0 LINE SMOOTH"
);
}
);
width = 1661;
},
{
anchors = (
{
name = bottom;
position = "{690, -164}";
},
{
name = top;
position = "{516, 972}";
}
);
layerId = "00FED3EE-B3F5-49E6-B91A-35FC52169726";
paths = (
{
closed = 1;
nodes = (
"328 0 OFFCURVE",
"656 141 OFFCURVE",
"929 244 CURVE SMOOTH",
"1092 304 OFFCURVE",
"1187 326 OFFCURVE",
"1287 326 CURVE SMOOTH",
"1318 326 OFFCURVE",
"1351 324 OFFCURVE",
"1386 321 CURVE SMOOTH",
"1400 320 OFFCURVE",
"1409 327 OFFCURVE",
"1414 341 CURVE SMOOTH",
"1470 494 LINE SMOOTH",
"1471 498 OFFCURVE",
"1472 502 OFFCURVE",
"1472 505 CURVE SMOOTH",
"1472 527 OFFCURVE",
"1437 525 OFFCURVE",
"1393 525 CURVE SMOOTH",
"1018 525 OFFCURVE",
"747 780 OFFCURVE",
"512 780 CURVE SMOOTH",
"425 780 OFFCURVE",
"343 733 OFFCURVE",
"251 634 CURVE SMOOTH",
"241 622 OFFCURVE",
"240 616 OFFCURVE",
"243 603 CURVE SMOOTH",
"276 494 LINE SMOOTH",
"279 484 OFFCURVE",
"288 478 OFFCURVE",
"297 478 CURVE SMOOTH",
"302 478 OFFCURVE",
"310 481 OFFCURVE",
"316 488 CURVE SMOOTH",
"393 569 OFFCURVE",
"431 593 OFFCURVE",
"483 593 CURVE SMOOTH",
"588 593 OFFCURVE",
"845 474 OFFCURVE",
"1021 426 CURVE",
"788 355 OFFCURVE",
"399 191 OFFCURVE",
"0 191 CURVE SMOOTH",
"-19 191 LINE SMOOTH",
"-83 191 OFFCURVE",
"-113 143 OFFCURVE",
"-113 96 CURVE SMOOTH",
"-113 48 OFFCURVE",
"-83 0 OFFCURVE",
"-19 0 CURVE SMOOTH",
"0 0 LINE SMOOTH"
);
}
);
width = 1606;
}
);
leftKerningGroup = all;
unicode = FEA3;
},
{
glyphname = "dal-ar";
lastChange = "2016-07-24 15:13:08 +0000";
layers = (
{
anchors = (
{
name = bottom;
position = "{491, -230}";
},
{
name = top;
position = "{599, 1158}";
}
);
layerId = "93A312F7-B931-4485-B08E-C367313EB5E7";
paths = (
{
closed = 1;
nodes = (
"562 -56 OFFCURVE",
"831 -9 OFFCURVE",
"918 53 CURVE SMOOTH",
"971 91 OFFCURVE",
"992 154 OFFCURVE",
"992 229 CURVE SMOOTH",
"995 430 OFFCURVE",
"919 553 OFFCURVE",
"645 975 CURVE SMOOTH",
"639 984 OFFCURVE",
"627 983 OFFCURVE",
"624 978 CURVE SMOOTH",
"541 836 LINE SMOOTH",
"536 828 OFFCURVE",
"536 819 OFFCURVE",
"542 811 CURVE SMOOTH",
"836 396 OFFCURVE",
"871 273 OFFCURVE",
"885 197 CURVE",
"737 142 OFFCURVE",
"518 106 OFFCURVE",
"343 127 CURVE SMOOTH",
"266 136 OFFCURVE",
"258 183 OFFCURVE",
"252 308 CURVE SMOOTH",
"251 320 OFFCURVE",
"244 325 OFFCURVE",
"234 325 CURVE SMOOTH",
"172 325 LINE SMOOTH",
"162 325 OFFCURVE",
"156 320 OFFCURVE",
"155 309 CURVE SMOOTH",
"139 120 OFFCURVE",
"144 -56 OFFCURVE",
"424 -56 CURVE SMOOTH"
);
}
);
width = 1129;
},
{
anchors = (
{
name = bottom;
position = "{529, -238}";
},
{
name = ring;
position = "{828, -165}";
},
{
name = top;
position = "{613, 1160}";
}
);
layerId = "00FED3EE-B3F5-49E6-B91A-35FC52169726";
paths = (
{
closed = 1;
nodes = (
"579 -38 OFFCURVE",
"840 8 OFFCURVE",
"925 68 CURVE SMOOTH",
"977 105 OFFCURVE",
"1000 168 OFFCURVE",
"1000 255 CURVE SMOOTH",
"1000 445 OFFCURVE",
"912 554 OFFCURVE",
"660 956 CURVE SMOOTH",
"656 964 OFFCURVE",
"648 968 OFFCURVE",
"640 968 CURVE SMOOTH",
"634 968 OFFCURVE",
"628 965 OFFCURVE",
"624 959 CURVE SMOOTH",
"549 832 LINE SMOOTH",
"546 828 OFFCURVE",
"544 822 OFFCURVE",
"544 816 CURVE SMOOTH",
"544 810 OFFCURVE",
"547 804 OFFCURVE",
"551 798 CURVE SMOOTH",
"811 407 OFFCURVE",
"862 294 OFFCURVE",
"877 220 CURVE",
"765 180 OFFCURVE",
"613 151 OFFCURVE",
"473 151 CURVE SMOOTH",
"306 151 OFFCURVE",
"300 159 OFFCURVE",
"290 321 CURVE SMOOTH",
"289 337 OFFCURVE",
"278 347 OFFCURVE",
"263 347 CURVE SMOOTH",
"204 347 LINE SMOOTH",
"188 347 OFFCURVE",
"179 338 OFFCURVE",
"178 323 CURVE SMOOTH",
"176 290 OFFCURVE",
"173 257 OFFCURVE",
"173 226 CURVE SMOOTH",
"173 82 OFFCURVE",
"217 -38 OFFCURVE",
"445 -38 CURVE SMOOTH"
);
}
);
width = 1135;
}
);
leftKerningGroup = all;
unicode = 062F;
},
{
glyphname = "dal-ar.fina";
lastChange = "2016-07-24 15:13:10 +0000";
layers = (
{
anchors = (
{
name = bottom;
position = "{491, -230}";
},
{
name = top;
position = "{857, 1198}";
}
);
layerId = "93A312F7-B931-4485-B08E-C367313EB5E7";
paths = (
{
closed = 1;
nodes = (
"562 -56 OFFCURVE",
"806 -9 OFFCURVE",
"892 53 CURVE SMOOTH",
"928 78 OFFCURVE",
"948 115 OFFCURVE",
"957 159 CURVE SMOOTH",
"959 171 OFFCURVE",
"964 171 OFFCURVE",
"969 160 CURVE SMOOTH",
"1020 47 OFFCURVE",
"1119 0 OFFCURVE",
"1243 0 CURVE SMOOTH",
"1309 0 LINE",
"1357 60 OFFCURVE",
"1357 119 OFFCURVE",
"1309 179 CURVE",
"1257 179 LINE SMOOTH",
"1055 179 OFFCURVE",
"1005 248 OFFCURVE",
"960 526 CURVE SMOOTH",
"881 1012 LINE SMOOTH",
"879 1025 OFFCURVE",
"869 1029 OFFCURVE",
"859 1021 CURVE SMOOTH",
"739 930 LINE SMOOTH",
"733 925 OFFCURVE",
"728 919 OFFCURVE",
"730 908 CURVE SMOOTH",
"864 205 LINE",
"866 193 OFFCURVE",
"861 187 OFFCURVE",
"852 184 CURVE",
"705 139 OFFCURVE",
"492 107 OFFCURVE",
"346 128 CURVE",
"270 139 OFFCURVE",
"262 166 OFFCURVE",
"255 291 CURVE SMOOTH",
"253 322 OFFCURVE",
"252 325 OFFCURVE",
"234 325 CURVE SMOOTH",
"172 325 LINE SMOOTH",
"162 325 OFFCURVE",
"156 320 OFFCURVE",
"155 309 CURVE SMOOTH",
"139 120 OFFCURVE",
"145 -56 OFFCURVE",
"424 -56 CURVE SMOOTH"
);
}
);
width = 1289;
},
{
anchors = (
{
name = bottom;
position = "{510, -240}";
},
{
name = ring;
position = "{835, -160}";
},
{
name = top;
position = "{861, 1198}";
}
);
layerId = "00FED3EE-B3F5-49E6-B91A-35FC52169726";
paths = (
{
closed = 1;
nodes = (
"1009 57 OFFCURVE",
"1099 0 OFFCURVE",
"1232 0 CURVE SMOOTH",
"1296 0 LINE",
"1323 32 OFFCURVE",
"1335 63 OFFCURVE",
"1335 96 CURVE SMOOTH",
"1335 128 OFFCURVE",
"1323 159 OFFCURVE",
"1296 191 CURVE",
"1245 191 LINE SMOOTH",
"1061 191 OFFCURVE",
"1014 248 OFFCURVE",
"970 516 CURVE SMOOTH",
"899 948 LINE SMOOTH",
"897 961 OFFCURVE",
"888 969 OFFCURVE",
"877 969 CURVE SMOOTH",
"873 969 OFFCURVE",
"867 967 OFFCURVE",
"862 963 CURVE SMOOTH",
"747 876 LINE SMOOTH",
"737 869 OFFCURVE",
"734 860 OFFCURVE",
"734 851 CURVE",
"858 204 LINE",
"859 199 OFFCURVE",
"858 197 OFFCURVE",
"853 195 CURVE SMOOTH",
"744 162 OFFCURVE",
"595 151 OFFCURVE",
"469 151 CURVE SMOOTH",
"314 151 OFFCURVE",
"300 158 OFFCURVE",
"293 305 CURVE SMOOTH",
"291 340 OFFCURVE",
"286 347 OFFCURVE",
"263 347 CURVE SMOOTH",
"204 347 LINE SMOOTH",
"188 347 OFFCURVE",
"179 338 OFFCURVE",
"178 323 CURVE SMOOTH",
"176 290 OFFCURVE",
"173 258 OFFCURVE",
"173 227 CURVE SMOOTH",
"173 83 OFFCURVE",
"217 -38 OFFCURVE",
"445 -38 CURVE SMOOTH",
"579 -38 OFFCURVE",
"816 -8 OFFCURVE",
"900 53 CURVE SMOOTH",
"934 77 OFFCURVE",
"953 112 OFFCURVE",
"963 159 CURVE"
);
}
);
width = 1277;
}
);
unicode = FEAA;
userData = {
com.typemytype.robofont.guides = (
{
angle = 0;
isGlobal = 0;
x = 2480;
y = "-225";
}
);
};
},
{
glyphname = "reh-ar";
lastChange = "2016-07-24 15:13:18 +0000";
layers = (
{
anchors = (
{
name = bottom;
position = "{304, -650}";
},
{
name = top;
position = "{563, 976}";
}
);
layerId = "93A312F7-B931-4485-B08E-C367313EB5E7";
paths = (
{
closed = 1;
nodes = (
"618 -319 OFFCURVE",
"756 -88 OFFCURVE",
"778 126 CURVE SMOOTH",
"792 265 OFFCURVE",
"724 472 OFFCURVE",
"669 692 CURVE SMOOTH",
"666 704 OFFCURVE",
"655 705 OFFCURVE",
"646 696 CURVE SMOOTH",
"542 592 LINE SMOOTH",
"536 585 OFFCURVE",
"533 578 OFFCURVE",
"536 569 CURVE SMOOTH",
"679 127 LINE SMOOTH",
"682 118 OFFCURVE",
"681 112 OFFCURVE",
"678 104 CURVE SMOOTH",
"539 -211 OFFCURVE",
"352 -357 OFFCURVE",
"-35 -272 CURVE SMOOTH",
"-46 -270 OFFCURVE",
"-53 -277 OFFCURVE",
"-56 -287 CURVE SMOOTH",
"-79 -354 LINE SMOOTH",
"-82 -363 OFFCURVE",
"-77 -369 OFFCURVE",
"-66 -373 CURVE SMOOTH",
"171 -452 OFFCURVE",
"336 -477 OFFCURVE",
"476 -398 CURVE SMOOTH"
);
}
);
width = 918;
},
{
anchors = (
{
name = bottom;
position = "{287, -614}";
},
{
name = ring;
position = "{639, -399}";
},
{
name = top;
position = "{593, 899}";
}
);
layerId = "00FED3EE-B3F5-49E6-B91A-35FC52169726";
paths = (
{
closed = 1;
nodes = (
"624 -283 OFFCURVE",
"754 -12 OFFCURVE",
"754 180 CURVE SMOOTH",
"754 313 OFFCURVE",
"695 495 OFFCURVE",
"647 685 CURVE SMOOTH",
"643 702 OFFCURVE",
"625 710 OFFCURVE",
"609 694 CURVE SMOOTH",
"509 594 LINE SMOOTH",
"503 588 OFFCURVE",
"499 582 OFFCURVE",
"499 573 CURVE",
"637 138 LINE",
"639 132 OFFCURVE",
"639 130 OFFCURVE",
"637 123 CURVE SMOOTH",
"529 -139 OFFCURVE",
"386 -255 OFFCURVE",
"164 -255 CURVE SMOOTH",
"106 -255 OFFCURVE",
"42 -248 OFFCURVE",
"-27 -232 CURVE SMOOTH",
"-41 -229 OFFCURVE",
"-54 -238 OFFCURVE",
"-59 -253 CURVE",
"-82 -326 LINE",
"-83 -336 OFFCURVE",
"-74 -344 OFFCURVE",
"-61 -348 CURVE SMOOTH",
"70 -392 OFFCURVE",
"180 -419 OFFCURVE",
"276 -419 CURVE SMOOTH",
"346 -419 OFFCURVE",
"408 -404 OFFCURVE",
"467 -372 CURVE SMOOTH"
);
}
);
width = 888;
}
);
leftKerningGroup = r;
rightKerningGroup = r;
unicode = 0631;
userData = {
com.typemytype.robofont.guides = (
{
angle = 0;
isGlobal = 0;
x = "-844";
y = "-463";
}
);
};
},
{
glyphname = "reh-ar.fina";
lastChange = "2016-07-24 15:13:20 +0000";
layers = (
{
anchors = (
{
name = bottom;
position = "{293, -650}";
},
{
name = top;
position = "{603, 857}";
}
);
layerId = "93A312F7-B931-4485-B08E-C367313EB5E7";
paths = (
{
closed = 1;
nodes = (
"579 -371 OFFCURVE",
"749 -115 OFFCURVE",
"775 103 CURVE",
"836 29 OFFCURVE",
"911 0 OFFCURVE",
"1012 0 CURVE SMOOTH",
"1139 0 LINE",
"1187 60 OFFCURVE",
"1187 119 OFFCURVE",
"1139 179 CURVE",
"1012 179 LINE SMOOTH",
"825 179 OFFCURVE",
"787 259 OFFCURVE",
"725 522 CURVE SMOOTH",
"689 675 LINE SMOOTH",
"685 692 OFFCURVE",
"670 698 OFFCURVE",
"657 687 CURVE SMOOTH",
"557 596 LINE SMOOTH",
"551 591 OFFCURVE",
"549 587 OFFCURVE",
"551 580 CURVE SMOOTH",
"667 99 LINE SMOOTH",
"669 91 OFFCURVE",
"668 84 OFFCURVE",
"665 77 CURVE SMOOTH",
"530 -253 OFFCURVE",
"339 -394 OFFCURVE",
"-35 -320 CURVE SMOOTH",
"-46 -318 OFFCURVE",
"-52 -325 OFFCURVE",
"-56 -335 CURVE SMOOTH",
"-79 -402 LINE SMOOTH",
"-82 -411 OFFCURVE",
"-77 -418 OFFCURVE",
"-66 -421 CURVE SMOOTH",
"171 -500 OFFCURVE",
"288 -523 OFFCURVE",
"430 -448 CURVE SMOOTH"
);
}
);
width = 1119;
},
{
anchors = (
{
name = bottom;
position = "{321, -662}";
},
{
name = ring;
position = "{673, -431}";
},
{
name = top;
position = "{628, 928}";
}
);
layerId = "00FED3EE-B3F5-49E6-B91A-35FC52169726";
paths = (
{
closed = 1;
nodes = (
"613 -342 OFFCURVE",
"757 -113 OFFCURVE",
"790 86 CURVE",
"846 27 OFFCURVE",
"916 0 OFFCURVE",
"1011 0 CURVE SMOOTH",
"1134 0 LINE",
"1161 32 OFFCURVE",
"1173 63 OFFCURVE",
"1173 96 CURVE SMOOTH",
"1173 128 OFFCURVE",
"1161 159 OFFCURVE",
"1134 191 CURVE",
"1011 191 LINE SMOOTH",
"837 191 OFFCURVE",
"804 261 OFFCURVE",
"745 513 CURVE SMOOTH",
"710 660 LINE SMOOTH",
"706 680 OFFCURVE",
"684 694 OFFCURVE",
"664 677 CURVE SMOOTH",
"567 588 LINE SMOOTH",
"562 584 OFFCURVE",
"558 578 OFFCURVE",
"558 570 CURVE",
"670 112 LINE",
"672 107 OFFCURVE",
"671 102 OFFCURVE",
"669 97 CURVE SMOOTH",
"565 -175 OFFCURVE",
"420 -297 OFFCURVE",
"188 -297 CURVE SMOOTH",
"135 -297 OFFCURVE",
"79 -291 OFFCURVE",
"17 -278 CURVE SMOOTH",
"3 -276 OFFCURVE",
"-9 -283 OFFCURVE",
"-13 -299 CURVE",
"-36 -372 LINE",
"-36 -382 OFFCURVE",
"-30 -390 OFFCURVE",
"-17 -395 CURVE SMOOTH",
"123 -441 OFFCURVE",
"217 -465 OFFCURVE",
"296 -465 CURVE SMOOTH",
"358 -465 OFFCURVE",
"410 -449 OFFCURVE",
"467 -420 CURVE SMOOTH"
);
}
);
width = 1115;
}
);
leftKerningGroup = r;
rightKerningGroup = r;
unicode = FEAE;
userData = {
com.typemytype.robofont.guides = (
{
angle = 0;
isGlobal = 0;
x = 618;
y = 606;
}
);
};
},
{
glyphname = "seen-ar";
lastChange = "2016-07-24 15:13:28 +0000";
layers = (
{
anchors = (
{
name = bottom;
position = "{706, -704}";
},
{
name = top;
position = "{742, 713}";
}
);
layerId = "93A312F7-B931-4485-B08E-C367313EB5E7";
paths = (
{
closed = 1;
nodes = (
"815 -531 OFFCURVE",
"1174 -437 OFFCURVE",
"1294 -271 CURVE SMOOTH",
"1346 -200 OFFCURVE",
"1339 -109 OFFCURVE",
"1327 22 CURVE",
"1436 -26 OFFCURVE",
"1773 -17 OFFCURVE",
"1862 95 CURVE",
"1947 43 OFFCURVE",
"2065 -3 OFFCURVE",
"2170 -6 CURVE SMOOTH",
"2414 -14 OFFCURVE",
"2517 46 OFFCURVE",
"2510 308 CURVE SMOOTH",
"2507 409 OFFCURVE",
"2474 670 OFFCURVE",
"2433 839 CURVE SMOOTH",
"2430 852 OFFCURVE",
"2419 854 OFFCURVE",
"2410 844 CURVE SMOOTH",
"2307 739 LINE SMOOTH",
"2301 733 OFFCURVE",
"2299 726 OFFCURVE",
"2301 716 CURVE SMOOTH",
"2413 213 LINE SMOOTH",
"2416 199 OFFCURVE",
"2406 188 OFFCURVE",
"2393 185 CURVE SMOOTH",
"2234 153 OFFCURVE",
"2098 164 OFFCURVE",
"1958 225 CURVE SMOOTH",
"1953 227 OFFCURVE",
"1948 233 OFFCURVE",
"1949 241 CURVE SMOOTH",
"1988 582 LINE SMOOTH",
"1989 593 OFFCURVE",
"1983 600 OFFCURVE",
"1972 601 CURVE SMOOTH",
"1898 607 LINE SMOOTH",
"1889 608 OFFCURVE",
"1882 603 OFFCURVE",
"1880 592 CURVE SMOOTH",
"1846 347 LINE SMOOTH",
"1826 201 OFFCURVE",
"1704 172 OFFCURVE",
"1546 174 CURVE SMOOTH",
"1403 176 OFFCURVE",
"1310 192 OFFCURVE",
"1294 302 CURVE SMOOTH",
"1256 569 LINE SMOOTH",
"1253 588 OFFCURVE",
"1236 593 OFFCURVE",
"1222 583 CURVE SMOOTH",
"1112 501 LINE SMOOTH",
"1108 498 OFFCURVE",
"1105 492 OFFCURVE",
"1106 486 CURVE SMOOTH",
"1213 -177 LINE SMOOTH",
"1214 -184 OFFCURVE",
"1211 -191 OFFCURVE",
"1204 -194 CURVE SMOOTH",
"1144 -222 OFFCURVE",
"881 -330 OFFCURVE",
"616 -330 CURVE SMOOTH",
"391 -330 OFFCURVE",
"251 -217 OFFCURVE",
"302 61 CURVE SMOOTH",
"337 251 LINE SMOOTH",
"339 262 OFFCURVE",
"331 270 OFFCURVE",
"321 271 CURVE SMOOTH",
"247 282 LINE SMOOTH",
"238 283 OFFCURVE",
"230 278 OFFCURVE",
"228 268 CURVE SMOOTH",
"186 38 LINE SMOOTH",
"133 -255 OFFCURVE",
"221 -531 OFFCURVE",
"589 -531 CURVE SMOOTH"
);
}
);
width = 2648;
},
{
anchors = (
{
name = bottom;
position = "{676, -705}";
},
{
name = top;
position = "{730, 694}";
}
);
layerId = "00FED3EE-B3F5-49E6-B91A-35FC52169726";
paths = (
{
closed = 1;
nodes = (
"801 -510 OFFCURVE",
"1150 -419 OFFCURVE",
"1267 -256 CURVE SMOOTH",
"1299 -213 OFFCURVE",
"1308 -162 OFFCURVE",
"1308 -100 CURVE SMOOTH",
"1308 -65 OFFCURVE",
"1306 -26 OFFCURVE",
"1302 16 CURVE",
"1342 3 OFFCURVE",
"1404 -5 OFFCURVE",
"1471 -5 CURVE SMOOTH",
"1598 -5 OFFCURVE",
"1747 23 OFFCURVE",
"1807 88 CURVE",
"1906 29 OFFCURVE",
"2017 -7 OFFCURVE",
"2137 -7 CURVE SMOOTH",
"2364 -7 OFFCURVE",
"2443 76 OFFCURVE",
"2436 305 CURVE SMOOTH",
"2434 403 OFFCURVE",
"2402 655 OFFCURVE",
"2363 817 CURVE SMOOTH",
"2360 829 OFFCURVE",
"2352 835 OFFCURVE",
"2342 835 CURVE SMOOTH",
"2337 835 OFFCURVE",
"2330 832 OFFCURVE",
"2324 827 CURVE SMOOTH",
"2225 726 LINE SMOOTH",
"2220 719 OFFCURVE",
"2216 711 OFFCURVE",
"2216 703 CURVE",
"2324 212 LINE",
"2326 205 OFFCURVE",
"2321 199 OFFCURVE",
"2313 197 CURVE SMOOTH",
"2258 186 OFFCURVE",
"2206 180 OFFCURVE",
"2156 180 CURVE SMOOTH",
"2067 180 OFFCURVE",
"1984 198 OFFCURVE",
"1901 234 CURVE SMOOTH",
"1899 235 OFFCURVE",
"1898 237 OFFCURVE",
"1898 240 CURVE SMOOTH",
"1937 574 LINE SMOOTH",
"1939 589 OFFCURVE",
"1929 602 OFFCURVE",
"1913 603 CURVE SMOOTH",
"1842 609 LINE SMOOTH",
"1828 610 OFFCURVE",
"1816 602 OFFCURVE",
"1814 587 CURVE SMOOTH",
"1780 344 LINE SMOOTH",
"1764 231 OFFCURVE",
"1686 186 OFFCURVE",
"1512 186 CURVE SMOOTH",
"1370 186 OFFCURVE",
"1283 200 OFFCURVE",
"1269 300 CURVE SMOOTH",
"1233 557 LINE SMOOTH",
"1230 574 OFFCURVE",
"1217 584 OFFCURVE",
"1204 584 CURVE SMOOTH",
"1197 584 OFFCURVE",
"1190 582 OFFCURVE",
"1185 577 CURVE SMOOTH",
"1079 498 LINE SMOOTH",
"1073 494 OFFCURVE",
"1069 485 OFFCURVE",
"1069 477 CURVE",
"1172 -162 LINE",
"1173 -165 OFFCURVE",
"1171 -167 OFFCURVE",
"1169 -168 CURVE SMOOTH",
"1112 -195 OFFCURVE",
"861 -298 OFFCURVE",
"609 -298 CURVE SMOOTH",
"410 -298 OFFCURVE",
"307 -206 OFFCURVE",
"307 -35 CURVE SMOOTH",
"307 22 OFFCURVE",
"314 49 OFFCURVE",
"350 249 CURVE SMOOTH",
"353 264 OFFCURVE",
"342 277 OFFCURVE",
"326 279 CURVE SMOOTH",
"255 290 LINE SMOOTH",
"241 292 OFFCURVE",
"229 283 OFFCURVE",
"227 269 CURVE SMOOTH",
"180 14 OFFCURVE",
"173 -13 OFFCURVE",
"173 -96 CURVE SMOOTH",
"173 -322 OFFCURVE",
"284 -510 OFFCURVE",
"583 -510 CURVE SMOOTH"
);
}
);
width = 2571;
}
);
leftKerningGroup = all;
unicode = 0633;
},
{
glyphname = "seen-ar.fina";
lastChange = "2016-07-24 15:13:31 +0000";
layers = (
{
anchors = (
{
name = bottom;
position = "{706, -704}";
},
{
name = top;
position = "{742, 713}";
}
);
layerId = "93A312F7-B931-4485-B08E-C367313EB5E7";
paths = (
{
closed = 1;
nodes = (
"816 -531 OFFCURVE",
"1175 -437 OFFCURVE",
"1295 -271 CURVE SMOOTH",
"1347 -200 OFFCURVE",
"1340 -110 OFFCURVE",
"1328 21 CURVE",
"1404 0 OFFCURVE",
"1490 -9 OFFCURVE",
"1561 -9 CURVE SMOOTH",
"1689 -8 OFFCURVE",
"1817 28 OFFCURVE",
"1864 87 CURVE",
"1949 35 OFFCURVE",
"2068 -1 OFFCURVE",
"2172 -3 CURVE SMOOTH",
"2337 -9 OFFCURVE",
"2456 16 OFFCURVE",
"2506 115 CURVE SMOOTH",
"2514 130 OFFCURVE",
"2528 132 OFFCURVE",
"2539 118 CURVE SMOOTH",
"2600 41 OFFCURVE",
"2688 0 OFFCURVE",
"2790 0 CURVE SMOOTH",
"2890 0 LINE",
"2938 60 OFFCURVE",
"2938 119 OFFCURVE",
"2890 179 CURVE",
"2790 179 LINE SMOOTH",
"2613 179 OFFCURVE",
"2578 260 OFFCURVE",
"2537 522 CURVE SMOOTH",
"2513 675 LINE SMOOTH",
"2511 691 OFFCURVE",
"2493 697 OFFCURVE",
"2481 687 CURVE SMOOTH",
"2381 607 LINE SMOOTH",
"2375 602 OFFCURVE",
"2374 598 OFFCURVE",
"2375 591 CURVE SMOOTH",
"2438 208 LINE SMOOTH",
"2440 198 OFFCURVE",
"2435 188 OFFCURVE",
"2424 186 CURVE SMOOTH",
"2260 154 OFFCURVE",
"2101 162 OFFCURVE",
"1961 228 CURVE SMOOTH",
"1954 231 OFFCURVE",
"1951 237 OFFCURVE",
"1952 244 CURVE SMOOTH",
"1991 582 LINE SMOOTH",
"1992 593 OFFCURVE",
"1985 600 OFFCURVE",
"1975 601 CURVE SMOOTH",
"1901 607 LINE SMOOTH",
"1892 608 OFFCURVE",
"1883 603 OFFCURVE",
"1882 592 CURVE SMOOTH",
"1849 343 LINE SMOOTH",
"1830 199 OFFCURVE",
"1718 173 OFFCURVE",
"1570 173 CURVE SMOOTH",
"1503 173 OFFCURVE",
"1433 175 OFFCURVE",
"1381 193 CURVE SMOOTH",
"1336 209 OFFCURVE",
"1304 239 OFFCURVE",
"1295 301 CURVE SMOOTH",
"1257 569 LINE SMOOTH",
"1254 588 OFFCURVE",
"1237 593 OFFCURVE",
"1224 583 CURVE SMOOTH",
"1113 501 LINE SMOOTH",
"1109 498 OFFCURVE",
"1106 492 OFFCURVE",
"1107 486 CURVE SMOOTH",
"1214 -177 LINE SMOOTH",
"1215 -184 OFFCURVE",
"1212 -191 OFFCURVE",
"1205 -194 CURVE SMOOTH",
"1145 -222 OFFCURVE",
"882 -330 OFFCURVE",
"618 -330 CURVE SMOOTH",
"392 -330 OFFCURVE",
"251 -216 OFFCURVE",
"304 61 CURVE SMOOTH",
"338 239 LINE SMOOTH",
"340 251 OFFCURVE",
"332 259 OFFCURVE",
"322 260 CURVE SMOOTH",
"248 270 LINE SMOOTH",
"239 271 OFFCURVE",
"231 267 OFFCURVE",
"229 256 CURVE SMOOTH",
"187 38 LINE SMOOTH",
"131 -255 OFFCURVE",
"222 -531 OFFCURVE",
"590 -531 CURVE SMOOTH"
);
}
);
width = 2870;
},
{
anchors = (
{
name = bottom;
position = "{676, -701}";
},
{
name = top;
position = "{730, 694}";
}
);
layerId = "00FED3EE-B3F5-49E6-B91A-35FC52169726";
paths = (
{
closed = 1;
nodes = (
"802 -510 OFFCURVE",
"1151 -419 OFFCURVE",
"1268 -256 CURVE SMOOTH",
"1300 -213 OFFCURVE",
"1309 -162 OFFCURVE",
"1309 -100 CURVE SMOOTH",
"1309 -64 OFFCURVE",
"1307 -26 OFFCURVE",
"1303 17 CURVE",
"1368 1 OFFCURVE",
"1444 -9 OFFCURVE",
"1516 -9 CURVE SMOOTH",
"1644 -8 OFFCURVE",
"1761 28 OFFCURVE",
"1809 81 CURVE",
"1905 24 OFFCURVE",
"2028 -4 OFFCURVE",
"2145 -4 CURVE SMOOTH",
"2301 -4 OFFCURVE",
"2390 33 OFFCURVE",
"2432 115 CURVE SMOOTH",
"2434 120 OFFCURVE",
"2436 122 OFFCURVE",
"2439 122 CURVE SMOOTH",
"2442 122 OFFCURVE",
"2444 121 OFFCURVE",
"2447 117 CURVE SMOOTH",
"2508 41 OFFCURVE",
"2595 0 OFFCURVE",
"2696 0 CURVE SMOOTH",
"2793 0 LINE",
"2820 32 OFFCURVE",
"2832 63 OFFCURVE",
"2832 96 CURVE SMOOTH",
"2832 128 OFFCURVE",
"2820 159 OFFCURVE",
"2793 191 CURVE",
"2696 191 LINE SMOOTH",
"2532 191 OFFCURVE",
"2502 262 OFFCURVE",
"2462 513 CURVE SMOOTH",
"2439 660 LINE SMOOTH",
"2436 675 OFFCURVE",
"2425 684 OFFCURVE",
"2412 684 CURVE SMOOTH",
"2406 684 OFFCURVE",
"2399 682 OFFCURVE",
"2393 677 CURVE SMOOTH",
"2297 600 LINE SMOOTH",
"2291 594 OFFCURVE",
"2287 588 OFFCURVE",
"2287 582 CURVE",
"2348 207 LINE",
"2349 203 OFFCURVE",
"2347 199 OFFCURVE",
"2342 198 CURVE SMOOTH",
"2283 186 OFFCURVE",
"2226 180 OFFCURVE",
"2172 180 CURVE SMOOTH",
"2074 180 OFFCURVE",
"1984 200 OFFCURVE",
"1904 237 CURVE SMOOTH",
"1901 238 OFFCURVE",
"1901 240 OFFCURVE",
"1901 243 CURVE SMOOTH",
"1940 573 LINE SMOOTH",
"1942 588 OFFCURVE",
"1932 601 OFFCURVE",
"1916 602 CURVE SMOOTH",
"1845 608 LINE SMOOTH",
"1830 609 OFFCURVE",
"1818 599 OFFCURVE",
"1816 585 CURVE SMOOTH",
"1783 340 LINE SMOOTH",
"1767 228 OFFCURVE",
"1696 185 OFFCURVE",
"1524 185 CURVE SMOOTH",
"1385 185 OFFCURVE",
"1284 192 OFFCURVE",
"1270 300 CURVE SMOOTH",
"1234 557 LINE SMOOTH",
"1231 574 OFFCURVE",
"1219 584 OFFCURVE",
"1206 584 CURVE SMOOTH",
"1200 584 OFFCURVE",
"1193 582 OFFCURVE",
"1187 577 CURVE SMOOTH",
"1080 498 LINE SMOOTH",
"1074 494 OFFCURVE",
"1070 485 OFFCURVE",
"1070 477 CURVE",
"1173 -162 LINE",
"1174 -165 OFFCURVE",
"1172 -167 OFFCURVE",
"1170 -168 CURVE SMOOTH",
"1113 -195 OFFCURVE",
"862 -298 OFFCURVE",
"611 -298 CURVE SMOOTH",
"412 -298 OFFCURVE",
"308 -206 OFFCURVE",
"308 -36 CURVE SMOOTH",
"308 17 OFFCURVE",
"314 39 OFFCURVE",
"351 237 CURVE SMOOTH",
"354 253 OFFCURVE",
"344 267 OFFCURVE",
"327 269 CURVE SMOOTH",
"256 278 LINE SMOOTH",
"242 280 OFFCURVE",
"230 272 OFFCURVE",
"228 257 CURVE SMOOTH",
"181 18 OFFCURVE",
"173 -16 OFFCURVE",
"173 -98 CURVE SMOOTH",
"173 -323 OFFCURVE",
"286 -510 OFFCURVE",
"584 -510 CURVE SMOOTH"
);
}
);
width = 2773;
}
);
unicode = FEB2;
},
{
glyphname = "seen-ar.medi";
lastChange = "2016-07-24 15:13:33 +0000";
layers = (
{
anchors = (
{
name = bottom;
position = "{1139, -195}";
},
{
name = top;
position = "{1003, 874}";
}
);
layerId = "93A312F7-B931-4485-B08E-C367313EB5E7";
paths = (
{
closed = 1;
nodes = (
"866 0 OFFCURVE",
"994 37 OFFCURVE",
"1041 97 CURVE",
"1126 41 OFFCURVE",
"1244 4 OFFCURVE",
"1349 0 CURVE SMOOTH",
"1513 -6 OFFCURVE",
"1633 28 OFFCURVE",
"1682 127 CURVE SMOOTH",
"1689 142 OFFCURVE",
"1706 147 OFFCURVE",
"1716 130 CURVE SMOOTH",
"1767 43 OFFCURVE",
"1864 0 OFFCURVE",
"1966 0 CURVE SMOOTH",
"2055 0 LINE",
"2103 60 OFFCURVE",
"2103 119 OFFCURVE",
"2055 179 CURVE",
"1966 179 LINE SMOOTH",
"1776 179 OFFCURVE",
"1733 265 OFFCURVE",
"1713 522 CURVE SMOOTH",
"1701 675 LINE SMOOTH",
"1700 691 OFFCURVE",
"1681 697 OFFCURVE",
"1669 687 CURVE SMOOTH",
"1569 607 LINE SMOOTH",
"1563 602 OFFCURVE",
"1562 598 OFFCURVE",
"1563 591 CURVE SMOOTH",
"1615 220 LINE SMOOTH",
"1616 210 OFFCURVE",
"1611 200 OFFCURVE",
"1601 198 CURVE SMOOTH",
"1438 163 OFFCURVE",
"1278 173 OFFCURVE",
"1137 228 CURVE SMOOTH",
"1130 231 OFFCURVE",
"1127 237 OFFCURVE",
"1128 244 CURVE SMOOTH",
"1167 582 LINE SMOOTH",
"1168 593 OFFCURVE",
"1162 600 OFFCURVE",
"1151 601 CURVE SMOOTH",
"1075 607 LINE SMOOTH",
"1066 608 OFFCURVE",
"1058 603 OFFCURVE",
"1057 592 CURVE SMOOTH",
"1023 331 LINE SMOOTH",
"1006 199 OFFCURVE",
"895 179 OFFCURVE",
"746 179 CURVE SMOOTH",
"665 179 OFFCURVE",
"562 191 OFFCURVE",
"484 214 CURVE SMOOTH",
"477 216 OFFCURVE",
"475 224 OFFCURVE",
"475 230 CURVE SMOOTH",
"504 582 LINE SMOOTH",
"505 593 OFFCURVE",
"498 600 OFFCURVE",
"486 601 CURVE SMOOTH",
"410 605 LINE SMOOTH",
"401 605 OFFCURVE",
"393 600 OFFCURVE",
"392 590 CURVE SMOOTH",
"371 422 LINE SMOOTH",
"347 229 OFFCURVE",
"324 179 OFFCURVE",
"129 179 CURVE SMOOTH",
"-20 179 LINE SMOOTH",
"-138 179 OFFCURVE",
"-138 0 OFFCURVE",
"-20 0 CURVE SMOOTH",
"113 0 LINE SMOOTH",
"216 0 OFFCURVE",
"315 51 OFFCURVE",
"353 99 CURVE",
"430 13 OFFCURVE",
"610 0 OFFCURVE",
"737 0 CURVE SMOOTH"
);
}
);
width = 2036;
},
{
anchors = (
{
name = bottom;
position = "{1093, -197}";
},
{
name = top;
position = "{982, 897}";
}
);
layerId = "00FED3EE-B3F5-49E6-B91A-35FC52169726";
paths = (
{
closed = 1;
nodes = (
"835 0 OFFCURVE",
"952 36 OFFCURVE",
"1001 90 CURVE",
"1095 32 OFFCURVE",
"1216 -1 OFFCURVE",
"1330 -1 CURVE SMOOTH",
"1484 -1 OFFCURVE",
"1581 42 OFFCURVE",
"1623 128 CURVE SMOOTH",
"1625 132 OFFCURVE",
"1628 134 OFFCURVE",
"1631 134 CURVE SMOOTH",
"1634 134 OFFCURVE",
"1637 133 OFFCURVE",
"1639 130 CURVE SMOOTH",
"1687 48 OFFCURVE",
"1780 0 OFFCURVE",
"1887 0 CURVE SMOOTH",
"1974 0 LINE",
"2001 32 OFFCURVE",
"2013 63 OFFCURVE",
"2013 96 CURVE SMOOTH",
"2013 128 OFFCURVE",
"2001 159 OFFCURVE",
"1974 191 CURVE",
"1887 191 LINE SMOOTH",
"1720 191 OFFCURVE",
"1674 255 OFFCURVE",
"1654 512 CURVE SMOOTH",
"1643 659 LINE SMOOTH",
"1642 674 OFFCURVE",
"1628 684 OFFCURVE",
"1615 684 CURVE SMOOTH",
"1609 684 OFFCURVE",
"1602 682 OFFCURVE",
"1596 677 CURVE SMOOTH",
"1500 600 LINE SMOOTH",
"1493 594 OFFCURVE",
"1491 588 OFFCURVE",
"1491 580 CURVE",
"1541 220 LINE",
"1542 214 OFFCURVE",
"1539 210 OFFCURVE",
"1535 209 CURVE SMOOTH",
"1475 196 OFFCURVE",
"1414 190 OFFCURVE",
"1356 190 CURVE SMOOTH",
"1264 190 OFFCURVE",
"1176 205 OFFCURVE",
"1095 237 CURVE SMOOTH",
"1092 238 OFFCURVE",
"1092 240 OFFCURVE",
"1092 243 CURVE SMOOTH",
"1133 573 LINE SMOOTH",
"1135 588 OFFCURVE",
"1124 601 OFFCURVE",
"1109 602 CURVE SMOOTH",
"1036 608 LINE SMOOTH",
"1021 609 OFFCURVE",
"1010 599 OFFCURVE",
"1008 585 CURVE SMOOTH",
"972 328 LINE SMOOTH",
"956 209 OFFCURVE",
"858 191 OFFCURVE",
"716 191 CURVE SMOOTH",
"639 191 OFFCURVE",
"541 203 OFFCURVE",
"468 225 CURVE SMOOTH",
"467 225 OFFCURVE",
"466 226 OFFCURVE",
"466 230 CURVE SMOOTH",
"496 573 LINE SMOOTH",
"497 588 OFFCURVE",
"487 601 OFFCURVE",
"470 602 CURVE SMOOTH",
"397 606 LINE SMOOTH",
"383 607 OFFCURVE",
"372 597 OFFCURVE",
"370 583 CURVE SMOOTH",
"347 416 LINE SMOOTH",
"322 232 OFFCURVE",
"305 191 OFFCURVE",
"124 191 CURVE SMOOTH",
"-19 191 LINE SMOOTH",
"-83 191 OFFCURVE",
"-113 143 OFFCURVE",
"-113 96 CURVE SMOOTH",
"-113 48 OFFCURVE",
"-83 0 OFFCURVE",
"-19 0 CURVE SMOOTH",
"108 0 LINE SMOOTH",
"194 0 OFFCURVE",
"292 38 OFFCURVE",
"339 90 CURVE",
"420 12 OFFCURVE",
"589 0 OFFCURVE",
"708 0 CURVE SMOOTH"
);
}
);
width = 1955;
}
);
unicode = FEB4;
},
{
glyphname = "seen-ar.init";
lastChange = "2016-07-24 15:13:35 +0000";
layers = (
{
anchors = (
{
name = bottom;
position = "{1144, -195}";
},
{
name = top;
position = "{1009, 874}";
}
);
layerId = "93A312F7-B931-4485-B08E-C367313EB5E7";
paths = (
{
closed = 1;
nodes = (
"877 1 OFFCURVE",
"1005 36 OFFCURVE",
"1052 96 CURVE",
"1137 43 OFFCURVE",
"1256 4 OFFCURVE",
"1360 0 CURVE SMOOTH",
"1604 -9 OFFCURVE",
"1708 48 OFFCURVE",
"1701 311 CURVE SMOOTH",
"1696 412 OFFCURVE",
"1653 670 OFFCURVE",
"1612 839 CURVE SMOOTH",
"1609 852 OFFCURVE",
"1598 853 OFFCURVE",
"1589 844 CURVE SMOOTH",
"1486 739 LINE SMOOTH",
"1480 733 OFFCURVE",
"1478 726 OFFCURVE",
"1480 716 CURVE SMOOTH",
"1603 218 LINE SMOOTH",
"1606 204 OFFCURVE",
"1596 192 OFFCURVE",
"1584 190 CURVE SMOOTH",
"1425 164 OFFCURVE",
"1288 176 OFFCURVE",
"1149 231 CURVE SMOOTH",
"1143 233 OFFCURVE",
"1139 239 OFFCURVE",
"1140 247 CURVE SMOOTH",
"1179 582 LINE SMOOTH",
"1180 593 OFFCURVE",
"1173 600 OFFCURVE",
"1163 601 CURVE SMOOTH",
"1088 607 LINE SMOOTH",
"1078 608 OFFCURVE",
"1070 603 OFFCURVE",
"1069 592 CURVE SMOOTH",
"1036 351 LINE SMOOTH",
"1016 207 OFFCURVE",
"906 180 OFFCURVE",
"758 180 CURVE SMOOTH",
"676 180 OFFCURVE",
"565 191 OFFCURVE",
"487 215 CURVE SMOOTH",
"480 217 OFFCURVE",
"476 224 OFFCURVE",
"477 231 CURVE SMOOTH",
"515 582 LINE SMOOTH",
"516 593 OFFCURVE",
"509 600 OFFCURVE",
"498 601 CURVE SMOOTH",
"423 605 LINE SMOOTH",
"414 605 OFFCURVE",
"406 600 OFFCURVE",
"405 590 CURVE SMOOTH",
"384 435 LINE SMOOTH",
"356 228 OFFCURVE",
"324 191 OFFCURVE",
"121 179 CURVE SMOOTH",
"-20 179 LINE SMOOTH",
"-138 179 OFFCURVE",
"-138 0 OFFCURVE",
"-20 0 CURVE SMOOTH",
"124 0 LINE SMOOTH",
"228 0 OFFCURVE",
"327 52 OFFCURVE",
"365 100 CURVE",
"442 21 OFFCURVE",
"621 0 OFFCURVE",
"749 0 CURVE SMOOTH"
);
}
);
width = 1839;
},
{
anchors = (
{
name = bottom;
position = "{1012, -187}";
},
{
name = top;
position = "{1007, 887}";
}
);
layerId = "00FED3EE-B3F5-49E6-B91A-35FC52169726";
paths = (
{
closed = 1;
nodes = (
"849 1 OFFCURVE",
"964 36 OFFCURVE",
"1012 89 CURVE",
"1096 38 OFFCURVE",
"1210 4 OFFCURVE",
"1306 0 CURVE SMOOTH",
"1320 -1 OFFCURVE",
"1333 -1 OFFCURVE",
"1346 -1 CURVE SMOOTH",
"1572 -1 OFFCURVE",
"1649 81 OFFCURVE",
"1643 308 CURVE SMOOTH",
"1638 406 OFFCURVE",
"1596 655 OFFCURVE",
"1557 817 CURVE SMOOTH",
"1554 828 OFFCURVE",
"1546 835 OFFCURVE",
"1537 835 CURVE SMOOTH",
"1531 835 OFFCURVE",
"1524 832 OFFCURVE",
"1519 827 CURVE SMOOTH",
"1420 726 LINE SMOOTH",
"1414 719 OFFCURVE",
"1410 711 OFFCURVE",
"1410 703 CURVE",
"1529 217 LINE",
"1531 209 OFFCURVE",
"1526 203 OFFCURVE",
"1519 202 CURVE SMOOTH",
"1468 193 OFFCURVE",
"1420 189 OFFCURVE",
"1374 189 CURVE SMOOTH",
"1280 189 OFFCURVE",
"1193 206 OFFCURVE",
"1107 240 CURVE SMOOTH",
"1104 241 OFFCURVE",
"1104 243 OFFCURVE",
"1104 246 CURVE SMOOTH",
"1143 573 LINE SMOOTH",
"1145 588 OFFCURVE",
"1135 601 OFFCURVE",
"1119 602 CURVE SMOOTH",
"1047 608 LINE SMOOTH",
"1032 609 OFFCURVE",
"1020 599 OFFCURVE",
"1019 585 CURVE SMOOTH",
"985 348 LINE SMOOTH",
"969 235 OFFCURVE",
"898 192 OFFCURVE",
"728 192 CURVE SMOOTH",
"649 192 OFFCURVE",
"544 203 OFFCURVE",
"470 226 CURVE SMOOTH",
"468 226 OFFCURVE",
"468 228 OFFCURVE",
"468 230 CURVE SMOOTH",
"506 573 LINE SMOOTH",
"508 588 OFFCURVE",
"497 601 OFFCURVE",
"481 602 CURVE SMOOTH",
"409 606 LINE SMOOTH",
"395 607 OFFCURVE",
"383 597 OFFCURVE",
"381 583 CURVE SMOOTH",
"361 434 LINE SMOOTH",
"334 237 OFFCURVE",
"302 202 OFFCURVE",
"115 191 CURVE",
"-19 191 LINE SMOOTH",
"-83 191 OFFCURVE",
"-113 143 OFFCURVE",
"-113 96 CURVE SMOOTH",
"-113 48 OFFCURVE",
"-83 0 OFFCURVE",
"-19 0 CURVE SMOOTH",
"119 0 LINE SMOOTH",
"205 0 OFFCURVE",
"303 39 OFFCURVE",
"351 91 CURVE",
"431 19 OFFCURVE",
"600 0 OFFCURVE",
"719 0 CURVE SMOOTH"
);
}
);
width = 1777;
}
);
leftKerningGroup = all;
unicode = FEB3;
},
{
glyphname = "sad-ar";
lastChange = "2016-07-24 15:13:41 +0000";
layers = (
{
anchors = (
{
name = bottom;
position = "{707, -704}";
},
{
name = top;
position = "{742, 713}";
}
);
layerId = "93A312F7-B931-4485-B08E-C367313EB5E7";
paths = (
{
closed = 1;
nodes = (
"818 -531 OFFCURVE",
"1176 -427 OFFCURVE",
"1296 -271 CURVE SMOOTH",
"1344 -208 OFFCURVE",
"1346 -147 OFFCURVE",
"1324 84 CURVE",
"1578 -72 OFFCURVE",
"2282 -36 OFFCURVE",
"2498 174 CURVE",
"2726 431 OFFCURVE",
"2376 779 OFFCURVE",
"2124 781 CURVE SMOOTH",
"1947 782 OFFCURVE",
"1727 712 OFFCURVE",
"1355 254 CURVE",
"1287 312 OFFCURVE",
"1293 419 OFFCURVE",
"1272 577 CURVE SMOOTH",
"1269 596 OFFCURVE",
"1252 601 OFFCURVE",
"1239 591 CURVE SMOOTH",
"1128 509 LINE SMOOTH",
"1124 506 OFFCURVE",
"1121 500 OFFCURVE",
"1122 494 CURVE SMOOTH",
"1216 -177 LINE SMOOTH",
"1217 -184 OFFCURVE",
"1213 -191 OFFCURVE",
"1206 -194 CURVE SMOOTH",
"1124 -233 OFFCURVE",
"929 -330 OFFCURVE",
"619 -330 CURVE SMOOTH",
"382 -330 OFFCURVE",
"255 -217 OFFCURVE",
"305 61 CURVE SMOOTH",
"339 251 LINE SMOOTH",
"341 262 OFFCURVE",
"334 269 OFFCURVE",
"323 271 CURVE SMOOTH",
"250 282 LINE SMOOTH",
"240 284 OFFCURVE",
"232 278 OFFCURVE",
"230 268 CURVE SMOOTH",
"189 38 LINE SMOOTH",
"137 -255 OFFCURVE",
"200 -531 OFFCURVE",
"591 -531 CURVE SMOOTH"
);
},
{
closed = 1;
nodes = (
"1722 541 OFFCURVE",
"1880 606 OFFCURVE",
"2044 606 CURVE SMOOTH",
"2254 606 OFFCURVE",
"2414 406 OFFCURVE",
"2458 320 CURVE SMOOTH",
"2462 309 OFFCURVE",
"2460 302 OFFCURVE",
"2451 297 CURVE SMOOTH",
"2178 133 OFFCURVE",
"1747 133 OFFCURVE",
"1451 215 CURVE"
);
}
);
width = 2709;
},
{
anchors = (
{
name = bottom;
position = "{666, -720}";
},
{
name = top;
position = "{729, 684}";
}
);
layerId = "00FED3EE-B3F5-49E6-B91A-35FC52169726";
paths = (
{
closed = 1;
nodes = (
"803 -519 OFFCURVE",
"1151 -419 OFFCURVE",
"1268 -266 CURVE SMOOTH",
"1297 -228 OFFCURVE",
"1309 -191 OFFCURVE",
"1309 -113 CURVE SMOOTH",
"1309 -70 OFFCURVE",
"1306 -13 OFFCURVE",
"1299 63 CURVE",
"1403 7 OFFCURVE",
"1571 -21 OFFCURVE",
"1748 -21 CURVE SMOOTH",
"2012 -21 OFFCURVE",
"2298 40 OFFCURVE",
"2421 160 CURVE",
"2467 212 OFFCURVE",
"2487 275 OFFCURVE",
"2487 339 CURVE SMOOTH",
"2487 538 OFFCURVE",
"2293 757 OFFCURVE",
"2055 759 CURVE SMOOTH",
"1884 760 OFFCURVE",
"1671 692 OFFCURVE",
"1316 258 CURVE",
"1262 312 OFFCURVE",
"1266 410 OFFCURVE",
"1247 555 CURVE SMOOTH",
"1244 572 OFFCURVE",
"1233 582 OFFCURVE",
"1219 582 CURVE SMOOTH",
"1212 582 OFFCURVE",
"1206 580 OFFCURVE",
"1200 575 CURVE SMOOTH",
"1093 496 LINE SMOOTH",
"1088 492 OFFCURVE",
"1084 483 OFFCURVE",
"1084 475 CURVE",
"1174 -171 LINE",
"1174 -174 OFFCURVE",
"1173 -176 OFFCURVE",
"1170 -178 CURVE SMOOTH",
"1092 -215 OFFCURVE",
"906 -307 OFFCURVE",
"611 -307 CURVE SMOOTH",
"409 -307 OFFCURVE",
"308 -221 OFFCURVE",
"308 -48 CURVE SMOOTH",
"308 3 OFFCURVE",
"314 30 OFFCURVE",
"351 239 CURVE SMOOTH",
"354 254 OFFCURVE",
"345 267 OFFCURVE",
"328 270 CURVE SMOOTH",
"257 280 LINE SMOOTH",
"244 283 OFFCURVE",
"230 275 OFFCURVE",
"228 259 CURVE SMOOTH",
"181 5 OFFCURVE",
"173 -38 OFFCURVE",
"173 -123 CURVE SMOOTH",
"173 -381 OFFCURVE",
"314 -519 OFFCURVE",
"584 -519 CURVE SMOOTH"
);
},
{
closed = 1;
nodes = (
"1679 513 OFFCURVE",
"1825 572 OFFCURVE",
"1979 572 CURVE SMOOTH",
"2175 572 OFFCURVE",
"2325 385 OFFCURVE",
"2367 303 CURVE SMOOTH",
"2370 298 OFFCURVE",
"2368 296 OFFCURVE",
"2364 294 CURVE SMOOTH",
"2213 203 OFFCURVE",
"2009 164 OFFCURVE",
"1810 164 CURVE SMOOTH",
"1674 164 OFFCURVE",
"1541 181 OFFCURVE",
"1427 212 CURVE"
);
}
);
width = 2622;
}
);
leftKerningGroup = all;
unicode = 0635;
},
{
glyphname = "sad-ar.fina";
lastChange = "2016-07-24 15:13:43 +0000";
layers = (
{
anchors = (
{
name = bottom;
position = "{707, -704}";
},
{
name = top;
position = "{742, 713}";
}
);
layerId = "93A312F7-B931-4485-B08E-C367313EB5E7";
paths = (
{
closed = 1;
nodes = (
"815 -531 OFFCURVE",
"1164 -437 OFFCURVE",
"1283 -271 CURVE SMOOTH",
"1330 -206 OFFCURVE",
"1342 -151 OFFCURVE",
"1321 61 CURVE",
"1448 14 OFFCURVE",
"1615 -8 OFFCURVE",
"1784 -6 CURVE SMOOTH",
"1999 -5 OFFCURVE",
"2261 33 OFFCURVE",
"2406 92 CURVE SMOOTH",
"2415 96 OFFCURVE",
"2422 94 OFFCURVE",
"2429 86 CURVE SMOOTH",
"2498 12 OFFCURVE",
"2611 0 OFFCURVE",
"2783 0 CURVE SMOOTH",
"2849 0 LINE",
"2897 60 OFFCURVE",
"2897 119 OFFCURVE",
"2849 179 CURVE",
"2783 179 LINE SMOOTH",
"2722 179 OFFCURVE",
"2601 183 OFFCURVE",
"2519 199 CURVE SMOOTH",
"2507 201 OFFCURVE",
"2502 208 OFFCURVE",
"2506 220 CURVE SMOOTH",
"2589 473 OFFCURVE",
"2369 790 OFFCURVE",
"2106 792 CURVE SMOOTH",
"1937 793 OFFCURVE",
"1709 659 OFFCURVE",
"1360 245 CURVE SMOOTH",
"1353 237 OFFCURVE",
"1346 234 OFFCURVE",
"1337 239 CURVE SMOOTH",
"1298 261 OFFCURVE",
"1294 289 OFFCURVE",
"1255 578 CURVE SMOOTH",
"1253 595 OFFCURVE",
"1243 599 OFFCURVE",
"1233 591 CURVE SMOOTH",
"1117 504 LINE SMOOTH",
"1110 498 OFFCURVE",
"1105 492 OFFCURVE",
"1107 482 CURVE SMOOTH",
"1216 -190 LINE",
"1194 -200 OFFCURVE",
"906 -330 OFFCURVE",
"616 -330 CURVE SMOOTH",
"391 -330 OFFCURVE",
"252 -216 OFFCURVE",
"302 61 CURVE SMOOTH",
"337 252 LINE SMOOTH",
"339 262 OFFCURVE",
"334 269 OFFCURVE",
"323 271 CURVE SMOOTH",
"247 282 LINE SMOOTH",
"237 283 OFFCURVE",
"230 279 OFFCURVE",
"228 268 CURVE SMOOTH",
"186 38 LINE SMOOTH",
"133 -255 OFFCURVE",
"221 -531 OFFCURVE",
"589 -531 CURVE SMOOTH"
);
},
{
closed = 1;
nodes = (
"1717 518 OFFCURVE",
"1904 615 OFFCURVE",
"2067 615 CURVE SMOOTH",
"2272 615 OFFCURVE",
"2399 357 OFFCURVE",
"2420 285 CURVE SMOOTH",
"2423 276 OFFCURVE",
"2418 269 OFFCURVE",
"2408 265 CURVE SMOOTH",
"2078 137 OFFCURVE",
"1732 153 OFFCURVE",
"1455 201 CURVE"
);
}
);
width = 2829;
},
{
anchors = (
{
name = bottom;
position = "{658, -705}";
},
{
name = top;
position = "{730, 694}";
}
);
layerId = "00FED3EE-B3F5-49E6-B91A-35FC52169726";
paths = (
{
closed = 1;
nodes = (
"801 -510 OFFCURVE",
"1140 -419 OFFCURVE",
"1257 -256 CURVE SMOOTH",
"1288 -212 OFFCURVE",
"1304 -172 OFFCURVE",
"1304 -84 CURVE SMOOTH",
"1304 -48 OFFCURVE",
"1302 -3 OFFCURVE",
"1296 54 CURVE",
"1408 15 OFFCURVE",
"1554 -6 OFFCURVE",
"1710 -6 CURVE SMOOTH",
"1921 -6 OFFCURVE",
"2186 30 OFFCURVE",
"2331 89 CURVE SMOOTH",
"2336 91 OFFCURVE",
"2338 90 OFFCURVE",
"2341 85 CURVE SMOOTH",
"2411 12 OFFCURVE",
"2523 0 OFFCURVE",
"2689 0 CURVE SMOOTH",
"2753 0 LINE",
"2780 32 OFFCURVE",
"2793 63 OFFCURVE",
"2793 96 CURVE SMOOTH",
"2793 128 OFFCURVE",
"2780 159 OFFCURVE",
"2753 191 CURVE",
"2689 191 LINE SMOOTH",
"2630 191 OFFCURVE",
"2515 195 OFFCURVE",
"2437 210 CURVE SMOOTH",
"2431 211 OFFCURVE",
"2431 212 OFFCURVE",
"2432 218 CURVE SMOOTH",
"2444 254 OFFCURVE",
"2450 293 OFFCURVE",
"2450 331 CURVE SMOOTH",
"2450 552 OFFCURVE",
"2259 778 OFFCURVE",
"2039 780 CURVE SMOOTH",
"1851 780 OFFCURVE",
"1618 610 OFFCURVE",
"1315 251 CURVE SMOOTH",
"1311 246 OFFCURVE",
"1309 246 OFFCURVE",
"1306 248 CURVE SMOOTH",
"1274 265 OFFCURVE",
"1270 279 OFFCURVE",
"1232 565 CURVE SMOOTH",
"1230 582 OFFCURVE",
"1221 590 OFFCURVE",
"1211 590 CURVE SMOOTH",
"1206 590 OFFCURVE",
"1200 588 OFFCURVE",
"1195 585 CURVE SMOOTH",
"1084 501 LINE SMOOTH",
"1076 495 OFFCURVE",
"1068 485 OFFCURVE",
"1070 470 CURVE SMOOTH",
"1174 -167 LINE",
"1126 -188 OFFCURVE",
"868 -298 OFFCURVE",
"609 -298 CURVE SMOOTH",
"410 -298 OFFCURVE",
"307 -206 OFFCURVE",
"307 -33 CURVE SMOOTH",
"307 21 OFFCURVE",
"314 53 OFFCURVE",
"350 250 CURVE SMOOTH",
"353 265 OFFCURVE",
"345 276 OFFCURVE",
"329 279 CURVE SMOOTH",
"255 290 LINE SMOOTH",
"240 292 OFFCURVE",
"229 283 OFFCURVE",
"227 269 CURVE SMOOTH",
"180 16 OFFCURVE",
"173 -14 OFFCURVE",
"173 -95 CURVE SMOOTH",
"173 -322 OFFCURVE",
"284 -510 OFFCURVE",
"583 -510 CURVE SMOOTH"
);
},
{
closed = 1;
nodes = (
"1677 502 OFFCURVE",
"1850 590 OFFCURVE",
"2002 590 CURVE SMOOTH",
"2193 590 OFFCURVE",
"2312 348 OFFCURVE",
"2331 280 CURVE SMOOTH",
"2332 277 OFFCURVE",
"2331 276 OFFCURVE",
"2325 273 CURVE SMOOTH",
"2146 204 OFFCURVE",
"1960 179 OFFCURVE",
"1786 179 CURVE SMOOTH",
"1661 179 OFFCURVE",
"1542 191 OFFCURVE",
"1432 209 CURVE"
);
}
);
width = 2734;
}
);
unicode = FEBA;
},
{
glyphname = "sad-ar.medi";
lastChange = "2016-07-24 15:13:45 +0000";
layers = (
{
anchors = (
{
name = bottom;
position = "{974, -192}";
},
{
name = top;
position = "{1148, 965}";
}
);
layerId = "93A312F7-B931-4485-B08E-C367313EB5E7";
paths = (
{
closed = 1;
nodes = (
"1083 -1 OFFCURVE",
"1348 39 OFFCURVE",
"1492 110 CURVE SMOOTH",
"1498 114 OFFCURVE",
"1505 112 OFFCURVE",
"1512 103 CURVE SMOOTH",
"1581 28 OFFCURVE",
"1693 0 OFFCURVE",
"1865 0 CURVE SMOOTH",
"1931 0 LINE",
"1979 60 OFFCURVE",
"1979 119 OFFCURVE",
"1931 179 CURVE",
"1865 179 LINE SMOOTH",
"1804 179 OFFCURVE",
"1684 183 OFFCURVE",
"1601 199 CURVE SMOOTH",
"1589 201 OFFCURVE",
"1585 208 OFFCURVE",
"1588 220 CURVE SMOOTH",
"1671 473 OFFCURVE",
"1451 790 OFFCURVE",
"1188 792 CURVE SMOOTH",
"1019 793 OFFCURVE",
"791 662 OFFCURVE",
"442 247 CURVE SMOOTH",
"436 239 OFFCURVE",
"428 236 OFFCURVE",
"419 240 CURVE SMOOTH",
"382 255 OFFCURVE",
"383 273 OFFCURVE",
"392 369 CURVE SMOOTH",
"411 583 LINE SMOOTH",
"412 593 OFFCURVE",
"405 601 OFFCURVE",
"394 601 CURVE SMOOTH",
"324 604 LINE SMOOTH",
"314 604 OFFCURVE",
"307 600 OFFCURVE",
"306 589 CURVE SMOOTH",
"276 360 LINE SMOOTH",
"260 237 OFFCURVE",
"230 179 OFFCURVE",
"46 179 CURVE SMOOTH",
"-20 179 LINE SMOOTH",
"-138 179 OFFCURVE",
"-138 0 OFFCURVE",
"-20 0 CURVE SMOOTH",
"46 0 LINE SMOOTH",
"155 0 OFFCURVE",
"247 31 OFFCURVE",
"309 102 CURVE",
"438 31 OFFCURVE",
"651 -5 OFFCURVE",
"866 -2 CURVE SMOOTH"
);
},
{
closed = 1;
nodes = (
"799 521 OFFCURVE",
"987 615 OFFCURVE",
"1149 615 CURVE SMOOTH",
"1355 615 OFFCURVE",
"1481 363 OFFCURVE",
"1502 293 CURVE SMOOTH",
"1505 284 OFFCURVE",
"1501 277 OFFCURVE",
"1490 273 CURVE SMOOTH",
"1132 130 OFFCURVE",
"849 150 OFFCURVE",
"537 205 CURVE"
);
}
);
width = 1911;
},
{
anchors = (
{
name = bottom;
position = "{935, -194}";
},
{
name = top;
position = "{1102, 974}";
}
);
layerId = "00FED3EE-B3F5-49E6-B91A-35FC52169726";
paths = (
{
closed = 1;
nodes = (
"1021 -2 OFFCURVE",
"1288 32 OFFCURVE",
"1432 104 CURVE SMOOTH",
"1436 106 OFFCURVE",
"1441 106 OFFCURVE",
"1444 103 CURVE SMOOTH",
"1509 32 OFFCURVE",
"1615 0 OFFCURVE",
"1790 0 CURVE SMOOTH",
"1855 0 LINE",
"1882 32 OFFCURVE",
"1894 63 OFFCURVE",
"1894 96 CURVE SMOOTH",
"1894 128 OFFCURVE",
"1882 159 OFFCURVE",
"1855 191 CURVE",
"1790 191 LINE SMOOTH",
"1732 191 OFFCURVE",
"1618 195 OFFCURVE",
"1539 210 CURVE SMOOTH",
"1533 211 OFFCURVE",
"1532 212 OFFCURVE",
"1534 219 CURVE SMOOTH",
"1546 255 OFFCURVE",
"1551 293 OFFCURVE",
"1551 330 CURVE SMOOTH",
"1551 551 OFFCURVE",
"1361 778 OFFCURVE",
"1140 780 CURVE SMOOTH",
"950 780 OFFCURVE",
"717 610 OFFCURVE",
"417 252 CURVE SMOOTH",
"415 250 OFFCURVE",
"413 248 OFFCURVE",
"410 248 CURVE SMOOTH",
"409 248 OFFCURVE",
"407 248 OFFCURVE",
"406 249 CURVE SMOOTH",
"388 256 OFFCURVE",
"381 262 OFFCURVE",
"381 292 CURVE",
"406 575 LINE",
"408 590 OFFCURVE",
"396 602 OFFCURVE",
"380 603 CURVE SMOOTH",
"313 606 LINE SMOOTH",
"298 607 OFFCURVE",
"288 597 OFFCURVE",
"286 583 CURVE SMOOTH",
"255 356 LINE SMOOTH",
"240 240 OFFCURVE",
"215 191 OFFCURVE",
"44 191 CURVE SMOOTH",
"-19 191 LINE SMOOTH",
"-83 191 OFFCURVE",
"-113 143 OFFCURVE",
"-113 96 CURVE SMOOTH",
"-113 48 OFFCURVE",
"-83 0 OFFCURVE",
"-19 0 CURVE SMOOTH",
"44 0 LINE SMOOTH",
"154 0 OFFCURVE",
"240 33 OFFCURVE",
"299 95 CURVE",
"416 34 OFFCURVE",
"604 -2 OFFCURVE",
"808 -2 CURVE SMOOTH"
);
},
{
closed = 1;
nodes = (
"751 472 OFFCURVE",
"930 590 OFFCURVE",
"1103 590 CURVE SMOOTH",
"1295 590 OFFCURVE",
"1413 354 OFFCURVE",
"1432 288 CURVE SMOOTH",
"1434 285 OFFCURVE",
"1433 283 OFFCURVE",
"1428 280 CURVE SMOOTH",
"1235 204 OFFCURVE",
"1065 177 OFFCURVE",
"900 177 CURVE SMOOTH",
"778 177 OFFCURVE",
"659 191 OFFCURVE",
"534 213 CURVE"
);
}
);
width = 1836;
}
);
unicode = FEBC;
},
{
glyphname = "sad-ar.init";
lastChange = "2016-07-24 15:13:46 +0000";
layers = (
{
anchors = (
{
name = bottom;
position = "{974, -192}";
},
{
name = top;
position = "{1148, 965}";
}
);
layerId = "93A312F7-B931-4485-B08E-C367313EB5E7";
paths = (
{
closed = 1;
nodes = (
"1106 -2 OFFCURVE",
"1406 52 OFFCURVE",
"1573 197 CURVE SMOOTH",
"1787 386 OFFCURVE",
"1539 790 OFFCURVE",
"1211 792 CURVE SMOOTH",
"1041 793 OFFCURVE",
"812 657 OFFCURVE",
"460 237 CURVE SMOOTH",
"454 229 OFFCURVE",
"446 227 OFFCURVE",
"437 230 CURVE SMOOTH",
"382 247 OFFCURVE",
"382 254 OFFCURVE",
"392 365 CURVE SMOOTH",
"411 583 LINE SMOOTH",
"412 593 OFFCURVE",
"405 601 OFFCURVE",
"394 601 CURVE SMOOTH",
"324 604 LINE SMOOTH",
"314 604 OFFCURVE",
"308 600 OFFCURVE",
"306 589 CURVE SMOOTH",
"276 370 LINE SMOOTH",
"259 247 OFFCURVE",
"230 179 OFFCURVE",
"46 179 CURVE SMOOTH",
"-20 179 LINE SMOOTH",
"-138 179 OFFCURVE",
"-138 0 OFFCURVE",
"-20 0 CURVE SMOOTH",
"46 0 LINE SMOOTH",
"152 0 OFFCURVE",
"241 43 OFFCURVE",
"304 109 CURVE",
"432 28 OFFCURVE",
"624 -8 OFFCURVE",
"825 -6 CURVE SMOOTH"
);
},
{
closed = 1;
nodes = (
"822 516 OFFCURVE",
"980 603 OFFCURVE",
"1142 603 CURVE SMOOTH",
"1363 603 OFFCURVE",
"1505 416 OFFCURVE",
"1544 343 CURVE SMOOTH",
"1550 332 OFFCURVE",
"1547 326 OFFCURVE",
"1536 320 CURVE SMOOTH",
"1244 160 OFFCURVE",
"818 151 OFFCURVE",
"560 200 CURVE"
);
}
);
width = 1791;
},
{
anchors = (
{
name = bottom;
position = "{935, -194}";
},
{
name = top;
position = "{1150, 974}";
}
);
layerId = "00FED3EE-B3F5-49E6-B91A-35FC52169726";
paths = (
{
closed = 1;
nodes = (
"1129 -1 OFFCURVE",
"1596 88 OFFCURVE",
"1596 371 CURVE SMOOTH",
"1596 560 OFFCURVE",
"1403 779 OFFCURVE",
"1163 780 CURVE SMOOTH",
"973 780 OFFCURVE",
"739 608 OFFCURVE",
"434 243 CURVE SMOOTH",
"432 240 OFFCURVE",
"429 239 OFFCURVE",
"426 239 CURVE SMOOTH",
"425 239 OFFCURVE",
"423 239 OFFCURVE",
"422 239 CURVE SMOOTH",
"392 250 OFFCURVE",
"381 252 OFFCURVE",
"381 290 CURVE",
"406 577 LINE",
"408 592 OFFCURVE",
"396 604 OFFCURVE",
"380 605 CURVE SMOOTH",
"313 608 LINE SMOOTH",
"299 609 OFFCURVE",
"288 600 OFFCURVE",
"286 586 CURVE SMOOTH",
"255 366 LINE SMOOTH",
"239 250 OFFCURVE",
"214 191 OFFCURVE",
"44 191 CURVE SMOOTH",
"-19 191 LINE SMOOTH",
"-83 191 OFFCURVE",
"-113 143 OFFCURVE",
"-113 96 CURVE SMOOTH",
"-113 48 OFFCURVE",
"-83 0 OFFCURVE",
"-19 0 CURVE SMOOTH",
"44 0 LINE SMOOTH",
"140 0 OFFCURVE",
"228 36 OFFCURVE",
"294 102 CURVE",
"411 31 OFFCURVE",
"588 -8 OFFCURVE",
"792 -6 CURVE SMOOTH"
);
},
{
closed = 1;
nodes = (
"780 476 OFFCURVE",
"931 579 OFFCURVE",
"1096 579 CURVE SMOOTH",
"1304 579 OFFCURVE",
"1437 404 OFFCURVE",
"1474 334 CURVE SMOOTH",
"1476 329 OFFCURVE",
"1477 329 OFFCURVE",
"1470 325 CURVE SMOOTH",
"1285 224 OFFCURVE",
"1044 185 OFFCURVE",
"830 185 CURVE SMOOTH",
"730 185 OFFCURVE",
"636 194 OFFCURVE",
"556 208 CURVE"
);
}
);
width = 1731;
}
);
leftKerningGroup = all;
unicode = FEBB;
},
{
glyphname = "tah-ar";
lastChange = "2016-07-24 15:13:50 +0000";
layers = (
{
anchors = (
{
name = bottom;
position = "{796, -195}";
},
{
name = top;
position = "{1225, 1018}";
}
);
layerId = "93A312F7-B931-4485-B08E-C367313EB5E7";
paths = (
{
closed = 1;
nodes = (
"722 -31 OFFCURVE",
"1305 -33 OFFCURVE",
"1587 240 CURVE SMOOTH",
"1799 448 OFFCURVE",
"1544 838 OFFCURVE",
"1243 839 CURVE SMOOTH",
"1055 840 OFFCURVE",
"852 698 OFFCURVE",
"659 484 CURVE",
"689 581 OFFCURVE",
"693 690 OFFCURVE",
"689 844 CURVE SMOOTH",
"669 1511 LINE SMOOTH",
"668 1531 OFFCURVE",
"651 1540 OFFCURVE",
"634 1528 CURVE SMOOTH",
"503 1431 LINE SMOOTH",
"499 1428 OFFCURVE",
"496 1424 OFFCURVE",
"496 1418 CURVE SMOOTH",
"519 1032 OFFCURVE",
"541 795 OFFCURVE",
"546 635 CURVE SMOOTH",
"554 390 OFFCURVE",
"523 329 OFFCURVE",
"396 195 CURVE SMOOTH",
"393 191 OFFCURVE",
"389 191 OFFCURVE",
"384 191 CURVE SMOOTH",
"194 210 LINE SMOOTH",
"181 212 OFFCURVE",
"170 200 OFFCURVE",
"174 185 CURVE SMOOTH",
"209 36 OFFCURVE",
"246 -5 OFFCURVE",
"377 -12 CURVE SMOOTH"
);
},
{
closed = 1;
nodes = (
"871 554 OFFCURVE",
"989 647 OFFCURVE",
"1162 647 CURVE SMOOTH",
"1393 647 OFFCURVE",
"1513 453 OFFCURVE",
"1542 369 CURVE SMOOTH",
"1544 362 OFFCURVE",
"1541 355 OFFCURVE",
"1533 351 CURVE SMOOTH",
"1240 204 OFFCURVE",
"864 167 OFFCURVE",
"512 183 CURVE"
);
}
);
width = 1803;
},
{
anchors = (
{
name = bottom;
position = "{809, -226}";
},
{
name = top;
position = "{1192, 1006}";
}
);
layerId = "00FED3EE-B3F5-49E6-B91A-35FC52169726";
paths = (
{
closed = 1;
nodes = (
"447 -15 OFFCURVE",
"529 -18 OFFCURVE",
"615 -18 CURVE SMOOTH",
"1016 -18 OFFCURVE",
"1623 78 OFFCURVE",
"1623 418 CURVE SMOOTH",
"1623 611 OFFCURVE",
"1428 824 OFFCURVE",
"1210 825 CURVE SMOOTH",
"1047 826 OFFCURVE",
"863 718 OFFCURVE",
"668 510 CURVE",
"684 575 OFFCURVE",
"688 648 OFFCURVE",
"688 736 CURVE",
"668 1460 LINE",
"667 1479 OFFCURVE",
"655 1492 OFFCURVE",
"639 1492 CURVE SMOOTH",
"633 1492 OFFCURVE",
"626 1489 OFFCURVE",
"619 1484 CURVE SMOOTH",
"493 1391 LINE SMOOTH",
"487 1386 OFFCURVE",
"483 1379 OFFCURVE",
"483 1371 CURVE SMOOTH",
"483 810 OFFCURVE",
"532 715 OFFCURVE",
"532 555 CURVE SMOOTH",
"532 375 OFFCURVE",
"503 317 OFFCURVE",
"392 205 CURVE SMOOTH",
"390 204 OFFCURVE",
"388 203 OFFCURVE",
"385 203 CURVE SMOOTH",
"324 203 OFFCURVE",
"264 214 OFFCURVE",
"204 221 CURVE SMOOTH",
"187 223 OFFCURVE",
"173 209 OFFCURVE",
"173 192 CURVE SMOOTH",
"173 189 OFFCURVE",
"173 187 OFFCURVE",
"174 184 CURVE SMOOTH",
"223 38 OFFCURVE",
"250 -5 OFFCURVE",
"377 -12 CURVE SMOOTH"
);
},
{
closed = 1;
nodes = (
"862 537 OFFCURVE",
"972 621 OFFCURVE",
"1132 621 CURVE SMOOTH",
"1348 621 OFFCURVE",
"1460 441 OFFCURVE",
"1487 361 CURVE SMOOTH",
"1488 358 OFFCURVE",
"1485 356 OFFCURVE",
"1483 355 CURVE SMOOTH",
"1255 241 OFFCURVE",
"948 191 OFFCURVE",
"655 191 CURVE",
"529 194 LINE"
);
}
);
width = 1758;
}
);
leftKerningGroup = all;
unicode = 0637;
},
{
glyphname = "tah-ar.fina";
lastChange = "2016-07-24 15:13:52 +0000";
layers = (
{
anchors = (
{
name = bottom;
position = "{796, -195}";
},
{
name = top;
position = "{1225, 1018}";
}
);
layerId = "93A312F7-B931-4485-B08E-C367313EB5E7";
paths = (
{
closed = 1;
nodes = (
"645 -15 OFFCURVE",
"1057 -20 OFFCURVE",
"1359 97 CURVE SMOOTH",
"1367 99 OFFCURVE",
"1374 98 OFFCURVE",
"1379 93 CURVE SMOOTH",
"1452 17 OFFCURVE",
"1625 0 OFFCURVE",
"1796 0 CURVE SMOOTH",
"1862 0 LINE",
"1910 60 OFFCURVE",
"1910 119 OFFCURVE",
"1862 179 CURVE",
"1796 179 LINE SMOOTH",
"1736 179 OFFCURVE",
"1619 185 OFFCURVE",
"1538 198 CURVE",
"1555 212 OFFCURVE",
"1572 225 OFFCURVE",
"1587 240 CURVE SMOOTH",
"1799 448 OFFCURVE",
"1544 818 OFFCURVE",
"1243 839 CURVE SMOOTH",
"1055 852 OFFCURVE",
"852 710 OFFCURVE",
"659 496 CURVE",
"689 592 OFFCURVE",
"695 702 OFFCURVE",
"689 856 CURVE SMOOTH",
"665 1519 LINE SMOOTH",
"664 1538 OFFCURVE",
"645 1547 OFFCURVE",
"630 1536 CURVE SMOOTH",
"499 1444 LINE SMOOTH",
"495 1441 OFFCURVE",
"492 1436 OFFCURVE",
"492 1432 CURVE SMOOTH",
"516 1036 OFFCURVE",
"538 795 OFFCURVE",
"543 635 CURVE SMOOTH",
"550 392 OFFCURVE",
"518 335 OFFCURVE",
"396 207 CURVE SMOOTH",
"393 203 OFFCURVE",
"389 201 OFFCURVE",
"384 202 CURVE SMOOTH",
"194 222 LINE SMOOTH",
"181 223 OFFCURVE",
"171 212 OFFCURVE",
"174 197 CURVE SMOOTH",
"209 47 OFFCURVE",
"246 7 OFFCURVE",
"377 0 CURVE SMOOTH"
);
},
{
closed = 1;
nodes = (
"871 566 OFFCURVE",
"989 657 OFFCURVE",
"1162 647 CURVE SMOOTH",
"1393 633 OFFCURVE",
"1513 451 OFFCURVE",
"1542 369 CURVE SMOOTH",
"1545 362 OFFCURVE",
"1541 355 OFFCURVE",
"1533 351 CURVE SMOOTH",
"1240 204 OFFCURVE",
"864 178 OFFCURVE",
"512 194 CURVE"
);
}
);
width = 1842;
},
{
anchors = (
{
name = bottom;
position = "{780, -197}";
},
{
name = top;
position = "{1192, 1016}";
}
);
layerId = "00FED3EE-B3F5-49E6-B91A-35FC52169726";
paths = (
{
closed = 1;
nodes = (
"451 -16 OFFCURVE",
"537 -20 OFFCURVE",
"628 -20 CURVE SMOOTH",
"854 -20 OFFCURVE",
"1117 -2 OFFCURVE",
"1324 81 CURVE SMOOTH",
"1329 83 OFFCURVE",
"1332 82 OFFCURVE",
"1333 80 CURVE SMOOTH",
"1395 18 OFFCURVE",
"1526 0 OFFCURVE",
"1740 0 CURVE SMOOTH",
"1805 0 LINE",
"1832 32 OFFCURVE",
"1844 63 OFFCURVE",
"1844 96 CURVE SMOOTH",
"1844 128 OFFCURVE",
"1832 159 OFFCURVE",
"1805 191 CURVE",
"1740 191 LINE SMOOTH",
"1689 191 OFFCURVE",
"1591 196 OFFCURVE",
"1516 206 CURVE",
"1583 261 OFFCURVE",
"1623 314 OFFCURVE",
"1623 405 CURVE SMOOTH",
"1623 602 OFFCURVE",
"1414 813 OFFCURVE",
"1187 813 CURVE SMOOTH",
"1032 813 OFFCURVE",
"857 709 OFFCURVE",
"669 509 CURVE",
"684 572 OFFCURVE",
"689 642 OFFCURVE",
"689 728 CURVE",
"664 1455 LINE",
"663 1474 OFFCURVE",
"650 1486 OFFCURVE",
"635 1486 CURVE SMOOTH",
"628 1486 OFFCURVE",
"621 1483 OFFCURVE",
"615 1479 CURVE SMOOTH",
"490 1391 LINE SMOOTH",
"484 1387 OFFCURVE",
"479 1379 OFFCURVE",
"479 1372 CURVE SMOOTH",
"479 803 OFFCURVE",
"529 697 OFFCURVE",
"529 549 CURVE SMOOTH",
"529 366 OFFCURVE",
"498 311 OFFCURVE",
"389 202 CURVE SMOOTH",
"388 201 OFFCURVE",
"387 201 OFFCURVE",
"386 201 CURVE SMOOTH",
"325 201 OFFCURVE",
"264 211 OFFCURVE",
"204 220 CURVE SMOOTH",
"184 223 OFFCURVE",
"170 204 OFFCURVE",
"174 184 CURVE SMOOTH",
"203 33 OFFCURVE",
"250 -6 OFFCURVE",
"377 -12 CURVE SMOOTH"
);
},
{
closed = 1;
nodes = (
"846 518 OFFCURVE",
"960 610 OFFCURVE",
"1108 610 CURVE SMOOTH",
"1339 610 OFFCURVE",
"1450 425 OFFCURVE",
"1488 348 CURVE SMOOTH",
"1489 347 OFFCURVE",
"1488 345 OFFCURVE",
"1484 343 CURVE SMOOTH",
"1250 226 OFFCURVE",
"963 189 OFFCURVE",
"678 189 CURVE",
"530 192 LINE"
);
}
);
width = 1786;
}
);
unicode = FEC2;
},
{
glyphname = "tah-ar.medi";
lastChange = "2016-07-24 15:13:53 +0000";
layers = (
{
anchors = (
{
name = bottom;
position = "{690, -173}";
},
{
name = top;
position = "{1097, 1017}";
}
);
layerId = "93A312F7-B931-4485-B08E-C367313EB5E7";
paths = (
{
closed = 1;
nodes = (
"639 0 OFFCURVE",
"967 1 OFFCURVE",
"1218 95 CURVE SMOOTH",
"1225 98 OFFCURVE",
"1231 95 OFFCURVE",
"1235 91 CURVE SMOOTH",
"1310 16 OFFCURVE",
"1480 0 OFFCURVE",
"1651 0 CURVE SMOOTH",
"1717 0 LINE",
"1765 60 OFFCURVE",
"1765 119 OFFCURVE",
"1717 179 CURVE",
"1651 179 LINE SMOOTH",
"1595 179 OFFCURVE",
"1487 185 OFFCURVE",
"1406 197 CURVE",
"1425 210 OFFCURVE",
"1442 224 OFFCURVE",
"1458 240 CURVE SMOOTH",
"1670 448 OFFCURVE",
"1415 838 OFFCURVE",
"1114 839 CURVE SMOOTH",
"926 840 OFFCURVE",
"723 698 OFFCURVE",
"530 484 CURVE",
"560 581 OFFCURVE",
"565 690 OFFCURVE",
"560 844 CURVE SMOOTH",
"541 1515 LINE SMOOTH",
"540 1533 OFFCURVE",
"522 1544 OFFCURVE",
"506 1532 CURVE SMOOTH",
"383 1440 LINE SMOOTH",
"378 1436 OFFCURVE",
"376 1432 OFFCURVE",
"376 1427 CURVE SMOOTH",
"392 1028 OFFCURVE",
"410 787 OFFCURVE",
"411 626 CURVE SMOOTH",
"411 395 OFFCURVE",
"375 324 OFFCURVE",
"241 184 CURVE SMOOTH",
"238 181 OFFCURVE",
"235 179 OFFCURVE",
"231 179 CURVE SMOOTH",
"-20 179 LINE SMOOTH",
"-138 179 OFFCURVE",
"-138 0 OFFCURVE",
"-20 0 CURVE SMOOTH",
"368 0 LINE SMOOTH"
);
},
{
closed = 1;
nodes = (
"742 554 OFFCURVE",
"860 647 OFFCURVE",
"1033 647 CURVE SMOOTH",
"1264 647 OFFCURVE",
"1385 453 OFFCURVE",
"1413 369 CURVE SMOOTH",
"1416 362 OFFCURVE",
"1412 355 OFFCURVE",
"1404 351 CURVE SMOOTH",
"1081 191 OFFCURVE",
"735 190 OFFCURVE",
"383 183 CURVE"
);
}
);
width = 1697;
},
{
anchors = (
{
name = bottom;
position = "{662, -195}";
},
{
name = top;
position = "{1053, 1015}";
}
);
layerId = "00FED3EE-B3F5-49E6-B91A-35FC52169726";
paths = (
{
closed = 1;
nodes = (
"613 0 OFFCURVE",
"930 1 OFFCURVE",
"1173 92 CURVE SMOOTH",
"1175 93 OFFCURVE",
"1176 92 OFFCURVE",
"1179 90 CURVE SMOOTH",
"1240 29 OFFCURVE",
"1371 0 OFFCURVE",
"1585 0 CURVE SMOOTH",
"1649 0 LINE",
"1676 32 OFFCURVE",
"1689 63 OFFCURVE",
"1689 96 CURVE SMOOTH",
"1689 128 OFFCURVE",
"1676 159 OFFCURVE",
"1649 191 CURVE",
"1585 191 LINE SMOOTH",
"1537 191 OFFCURVE",
"1449 196 OFFCURVE",
"1375 205 CURVE",
"1443 261 OFFCURVE",
"1483 324 OFFCURVE",
"1483 418 CURVE SMOOTH",
"1483 611 OFFCURVE",
"1287 824 OFFCURVE",
"1069 825 CURVE SMOOTH",
"908 826 OFFCURVE",
"724 718 OFFCURVE",
"528 510 CURVE",
"543 574 OFFCURVE",
"549 645 OFFCURVE",
"549 732 CURVE",
"529 1464 LINE",
"528 1483 OFFCURVE",
"515 1495 OFFCURVE",
"499 1495 CURVE SMOOTH",
"493 1495 OFFCURVE",
"487 1493 OFFCURVE",
"480 1488 CURVE SMOOTH",
"362 1400 LINE SMOOTH",
"355 1394 OFFCURVE",
"351 1387 OFFCURVE",
"351 1380 CURVE SMOOTH",
"367 996 OFFCURVE",
"384 765 OFFCURVE",
"385 611 CURVE SMOOTH",
"385 391 OFFCURVE",
"352 326 OFFCURVE",
"225 193 CURVE SMOOTH",
"223 191 OFFCURVE",
"222 191 OFFCURVE",
"222 191 CURVE SMOOTH",
"-19 191 LINE SMOOTH",
"-83 191 OFFCURVE",
"-113 143 OFFCURVE",
"-113 96 CURVE SMOOTH",
"-113 48 OFFCURVE",
"-83 0 OFFCURVE",
"-19 0 CURVE SMOOTH",
"353 0 LINE SMOOTH"
);
},
{
closed = 1;
nodes = (
"722 537 OFFCURVE",
"831 621 OFFCURVE",
"992 621 CURVE SMOOTH",
"1208 621 OFFCURVE",
"1321 441 OFFCURVE",
"1348 361 CURVE SMOOTH",
"1348 359 OFFCURVE",
"1348 357 OFFCURVE",
"1344 355 CURVE SMOOTH",
"1043 206 OFFCURVE",
"721 202 OFFCURVE",
"391 195 CURVE"
);
}
);
width = 1630;
}
);
unicode = FEC4;
},
{
glyphname = "tah-ar.init";
lastChange = "2016-07-24 15:13:55 +0000";
layers = (
{
anchors = (
{
name = bottom;
position = "{690, -173}";
},
{
name = top;
position = "{1097, 1017}";
}
);
layerId = "93A312F7-B931-4485-B08E-C367313EB5E7";
paths = (
{
closed = 1;
nodes = (
"368 0 LINE SMOOTH",
"739 0 OFFCURVE",
"1217 6 OFFCURVE",
"1458 240 CURVE SMOOTH",
"1670 448 OFFCURVE",
"1416 838 OFFCURVE",
"1115 839 CURVE SMOOTH",
"927 840 OFFCURVE",
"723 698 OFFCURVE",
"530 484 CURVE",
"560 581 OFFCURVE",
"564 690 OFFCURVE",
"560 844 CURVE SMOOTH",
"541 1515 LINE SMOOTH",
"540 1533 OFFCURVE",
"522 1543 OFFCURVE",
"506 1532 CURVE SMOOTH",
"386 1446 LINE SMOOTH",
"381 1443 OFFCURVE",
"379 1438 OFFCURVE",
"379 1433 CURVE SMOOTH",
"393 1030 OFFCURVE",
"408 785 OFFCURVE",
"406 621 CURVE SMOOTH",
"403 386 OFFCURVE",
"366 317 OFFCURVE",
"241 184 CURVE SMOOTH",
"238 181 OFFCURVE",
"235 179 OFFCURVE",
"231 179 CURVE SMOOTH",
"-20 179 LINE SMOOTH",
"-138 179 OFFCURVE",
"-138 0 OFFCURVE",
"-20 0 CURVE SMOOTH"
);
},
{
closed = 1;
nodes = (
"742 554 OFFCURVE",
"860 647 OFFCURVE",
"1033 647 CURVE SMOOTH",
"1264 647 OFFCURVE",
"1385 453 OFFCURVE",
"1413 369 CURVE SMOOTH",
"1415 362 OFFCURVE",
"1412 355 OFFCURVE",
"1404 351 CURVE SMOOTH",
"1081 191 OFFCURVE",
"735 190 OFFCURVE",
"383 183 CURVE"
);
}
);
width = 1674;
},
{
anchors = (
{
name = bottom;
position = "{662, -185}";
},
{
name = top;
position = "{1053, 1015}";
}
);
layerId = "00FED3EE-B3F5-49E6-B91A-35FC52169726";
paths = (
{
closed = 1;
nodes = (
"353 0 LINE SMOOTH",
"788 0 OFFCURVE",
"1483 38 OFFCURVE",
"1483 418 CURVE SMOOTH",
"1483 612 OFFCURVE",
"1288 824 OFFCURVE",
"1070 825 CURVE SMOOTH",
"908 826 OFFCURVE",
"723 717 OFFCURVE",
"528 510 CURVE",
"543 575 OFFCURVE",
"548 648 OFFCURVE",
"548 736 CURVE",
"529 1464 LINE",
"528 1482 OFFCURVE",
"515 1494 OFFCURVE",
"499 1494 CURVE SMOOTH",
"492 1494 OFFCURVE",
"486 1492 OFFCURVE",
"480 1488 CURVE SMOOTH",
"365 1405 LINE SMOOTH",
"362 1404 OFFCURVE",
"354 1397 OFFCURVE",
"354 1385 CURVE SMOOTH",
"374 810 OFFCURVE",
"380 756 OFFCURVE",
"380 606 CURVE SMOOTH",
"380 383 OFFCURVE",
"344 320 OFFCURVE",
"225 193 CURVE SMOOTH",
"223 191 OFFCURVE",
"222 191 OFFCURVE",
"222 191 CURVE SMOOTH",
"-19 191 LINE SMOOTH",
"-83 191 OFFCURVE",
"-113 143 OFFCURVE",
"-113 96 CURVE SMOOTH",
"-113 48 OFFCURVE",
"-83 0 OFFCURVE",
"-19 0 CURVE SMOOTH"
);
},
{
closed = 1;
nodes = (
"722 537 OFFCURVE",
"831 621 OFFCURVE",
"992 621 CURVE SMOOTH",
"1208 621 OFFCURVE",
"1321 441 OFFCURVE",
"1348 361 CURVE SMOOTH",
"1348 359 OFFCURVE",
"1347 357 OFFCURVE",
"1344 355 CURVE SMOOTH",
"1043 206 OFFCURVE",
"721 202 OFFCURVE",
"391 195 CURVE"
);
}
);
width = 1618;
}
);
leftKerningGroup = all;
unicode = FEC3;
},
{
glyphname = "ain-ar";
lastChange = "2016-07-24 15:13:59 +0000";
layers = (
{
anchors = (
{
name = bottom;
position = "{853, -992}";
},
{
name = top;
position = "{592, 1357}";
}
);
layerId = "93A312F7-B931-4485-B08E-C367313EB5E7";
paths = (
{
closed = 1;
nodes = (
"1171 -486 OFFCURVE",
"993 -517 OFFCURVE",
"819 -504 CURVE SMOOTH",
"459 -477 OFFCURVE",
"319 -305 OFFCURVE",
"361 -80 CURVE SMOOTH",
"423 250 OFFCURVE",
"789 440 OFFCURVE",
"1122 519 CURVE SMOOTH",
"1132 521 OFFCURVE",
"1135 529 OFFCURVE",
"1136 538 CURVE SMOOTH",
"1150 695 LINE SMOOTH",
"1151 709 OFFCURVE",
"1142 714 OFFCURVE",
"1130 710 CURVE SMOOTH",
"942 652 OFFCURVE",
"808 591 OFFCURVE",
"639 511 CURVE SMOOTH",
"603 494 OFFCURVE",
"576 493 OFFCURVE",
"543 519 CURVE SMOOTH",
"417 621 OFFCURVE",
"330 728 OFFCURVE",
"312 868 CURVE SMOOTH",
"311 877 OFFCURVE",
"313 883 OFFCURVE",
"321 890 CURVE SMOOTH",
"457 1021 OFFCURVE",
"637 1051 OFFCURVE",
"885 970 CURVE SMOOTH",
"897 966 OFFCURVE",
"908 974 OFFCURVE",
"905 985 CURVE SMOOTH",
"872 1112 LINE SMOOTH",
"869 1122 OFFCURVE",
"870 1126 OFFCURVE",
"860 1131 CURVE SMOOTH",
"552 1283 OFFCURVE",
"170 1130 OFFCURVE",
"183 806 CURVE SMOOTH",
"190 638 OFFCURVE",
"283 503 OFFCURVE",
"450 353 CURVE",
"217 91 OFFCURVE",
"133 -337 OFFCURVE",
"382 -563 CURVE SMOOTH",
"547 -712 OFFCURVE",
"829 -732 OFFCURVE",
"1094 -682 CURVE SMOOTH",
"1254 -652 OFFCURVE",
"1310 -616 OFFCURVE",
"1365 -477 CURVE SMOOTH",
"1371 -462 OFFCURVE",
"1356 -451 OFFCURVE",
"1338 -454 CURVE SMOOTH"
);
}
);
width = 1289;
},
{
anchors = (
{
name = bottom;
position = "{826, -876}";
},
{
name = top;
position = "{575, 1360}";
}
);
layerId = "00FED3EE-B3F5-49E6-B91A-35FC52169726";
paths = (
{
closed = 1;
nodes = (
"1118 -470 OFFCURVE",
"938 -491 OFFCURVE",
"784 -478 CURVE SMOOTH",
"503 -457 OFFCURVE",
"356 -330 OFFCURVE",
"356 -143 CURVE SMOOTH",
"356 196 OFFCURVE",
"729 414 OFFCURVE",
"1086 498 CURVE SMOOTH",
"1098 501 OFFCURVE",
"1105 510 OFFCURVE",
"1107 525 CURVE SMOOTH",
"1120 676 LINE SMOOTH",
"1121 692 OFFCURVE",
"1112 702 OFFCURVE",
"1099 702 CURVE SMOOTH",
"1043 702 OFFCURVE",
"732 564 OFFCURVE",
"616 509 CURVE SMOOTH",
"601 501 OFFCURVE",
"588 498 OFFCURVE",
"577 498 CURVE SMOOTH",
"562 498 OFFCURVE",
"549 504 OFFCURVE",
"534 516 CURVE SMOOTH",
"414 612 OFFCURVE",
"333 712 OFFCURVE",
"316 844 CURVE SMOOTH",
"315 849 OFFCURVE",
"317 852 OFFCURVE",
"322 856 CURVE SMOOTH",
"404 935 OFFCURVE",
"500 974 OFFCURVE",
"616 974 CURVE SMOOTH",
"688 974 OFFCURVE",
"766 960 OFFCURVE",
"853 931 CURVE SMOOTH",
"868 926 OFFCURVE",
"891 937 OFFCURVE",
"885 958 CURVE SMOOTH",
"853 1080 LINE SMOOTH",
"848 1097 OFFCURVE",
"848 1098 OFFCURVE",
"836 1104 CURVE SMOOTH",
"755 1144 OFFCURVE",
"670 1163 OFFCURVE",
"589 1163 CURVE SMOOTH",
"359 1163 OFFCURVE",
"163 1010 OFFCURVE",
"173 783 CURVE SMOOTH",
"180 633 OFFCURVE",
"254 503 OFFCURVE",
"425 348 CURVE",
"299 202 OFFCURVE",
"219 0 OFFCURVE",
"219 -187 CURVE SMOOTH",
"219 -529 OFFCURVE",
"475 -700 OFFCURVE",
"831 -700 CURVE SMOOTH",
"903 -700 OFFCURVE",
"980 -693 OFFCURVE",
"1059 -678 CURVE SMOOTH",
"1221 -647 OFFCURVE",
"1264 -607 OFFCURVE",
"1316 -475 CURVE SMOOTH",
"1323 -448 OFFCURVE",
"1304 -437 OFFCURVE",
"1280 -440 CURVE SMOOTH"
);
}
);
width = 1260;
}
);
leftKerningGroup = ain;
unicode = 0639;
},
{
glyphname = "ain-ar.fina";
lastChange = "2016-07-24 15:14:01 +0000";
layers = (
{
anchors = (
{
name = bottom;
position = "{798, -903}";
},
{
name = top;
position = "{719, 1289}";
}
);
background = {
paths = (
{
closed = 1;
nodes = (
"1278 -702 OFFCURVE",
"1334 -666 OFFCURVE",
"1389 -527 CURVE SMOOTH",
"1395 -512 OFFCURVE",
"1380 -501 OFFCURVE",
"1362 -504 CURVE SMOOTH",
"1195 -536 OFFCURVE",
"979 -567 OFFCURVE",
"785 -554 CURVE SMOOTH",
"425 -530 OFFCURVE",
"277 -354 OFFCURVE",
"327 -90 CURVE SMOOTH",
"356 83 OFFCURVE",
"473 225 OFFCURVE",
"629 332 CURVE SMOOTH",
"637 338 OFFCURVE",
"643 333 OFFCURVE",
"650 325 CURVE SMOOTH",
"923 10 OFFCURVE",
"1104 0 OFFCURVE",
"1275 0 CURVE SMOOTH",
"1322 0 LINE",
"1370 60 OFFCURVE",
"1370 119 OFFCURVE",
"1322 179 CURVE",
"1270 179 LINE SMOOTH",
"1020 179 OFFCURVE",
"898 291 OFFCURVE",
"775 420 CURVE SMOOTH",
"766 429 OFFCURVE",
"768 438 OFFCURVE",
"777 444 CURVE SMOOTH",
"929 545 OFFCURVE",
"1167 652 OFFCURVE",
"1178 812 CURVE SMOOTH",
"1193 1013 OFFCURVE",
"933 1113 OFFCURVE",
"716 1112 CURVE SMOOTH",
"568 1111 OFFCURVE",
"379 1051 OFFCURVE",
"273 1004 CURVE SMOOTH",
"265 1000 OFFCURVE",
"261 995 OFFCURVE",
"258 987 CURVE SMOOTH",
"175 781 LINE SMOOTH",
"170 769 OFFCURVE",
"175 765 OFFCURVE",
"184 759 CURVE SMOOTH",
"313 669 OFFCURVE",
"420 584 OFFCURVE",
"527 485 CURVE SMOOTH",
"536 476 OFFCURVE",
"535 468 OFFCURVE",
"526 461 CURVE SMOOTH",
"492 435 OFFCURVE",
"448 398 OFFCURVE",
"411 356 CURVE SMOOTH",
"158 63 OFFCURVE",
"122 -408 OFFCURVE",
"348 -613 CURVE SMOOTH",
"513 -762 OFFCURVE",
"815 -771 OFFCURVE",
"1080 -732 CURVE SMOOTH"
);
},
{
closed = 1;
nodes = (
"671 564 OFFCURVE",
"663 567 OFFCURVE",
"656 574 CURVE SMOOTH",
"522 709 OFFCURVE",
"402 808 OFFCURVE",
"356 843 CURVE SMOOTH",
"348 849 OFFCURVE",
"349 861 OFFCURVE",
"359 865 CURVE SMOOTH",
"646 975 OFFCURVE",
"926 957 OFFCURVE",
"1058 805 CURVE SMOOTH",
"1066 796 OFFCURVE",
"1064 787 OFFCURVE",
"1053 781 CURVE SMOOTH",
"680 569 LINE SMOOTH"
);
}
);
};
layerId = "93A312F7-B931-4485-B08E-C367313EB5E7";
paths = (
{
closed = 1;
nodes = (
"1195 -476 OFFCURVE",
"979 -507 OFFCURVE",
"785 -494 CURVE SMOOTH",
"425 -470 OFFCURVE",
"277 -294 OFFCURVE",
"327 -90 CURVE SMOOTH",
"369 82 OFFCURVE",
"473 225 OFFCURVE",
"629 332 CURVE SMOOTH",
"637 338 OFFCURVE",
"643 333 OFFCURVE",
"650 325 CURVE SMOOTH",
"923 10 OFFCURVE",
"1104 0 OFFCURVE",
"1275 0 CURVE SMOOTH",
"1322 0 LINE",
"1370 60 OFFCURVE",
"1370 119 OFFCURVE",
"1322 179 CURVE",
"1270 179 LINE SMOOTH",
"1020 179 OFFCURVE",
"898 291 OFFCURVE",
"775 420 CURVE SMOOTH",
"766 429 OFFCURVE",
"768 438 OFFCURVE",
"777 444 CURVE SMOOTH",
"929 545 OFFCURVE",
"1167 652 OFFCURVE",
"1178 812 CURVE SMOOTH",
"1193 1013 OFFCURVE",
"933 1113 OFFCURVE",
"716 1112 CURVE SMOOTH",
"568 1111 OFFCURVE",
"379 1051 OFFCURVE",
"273 1004 CURVE SMOOTH",
"265 1000 OFFCURVE",
"261 995 OFFCURVE",
"258 987 CURVE SMOOTH",
"175 781 LINE SMOOTH",
"170 769 OFFCURVE",
"175 765 OFFCURVE",
"184 759 CURVE SMOOTH",
"313 669 OFFCURVE",
"420 584 OFFCURVE",
"527 485 CURVE SMOOTH",
"536 476 OFFCURVE",
"535 468 OFFCURVE",
"526 461 CURVE SMOOTH",
"218 228 OFFCURVE",
"67 -298 OFFCURVE",
"348 -553 CURVE SMOOTH",
"513 -702 OFFCURVE",
"815 -711 OFFCURVE",
"1080 -672 CURVE SMOOTH",
"1278 -642 OFFCURVE",
"1334 -606 OFFCURVE",
"1389 -467 CURVE SMOOTH",
"1395 -452 OFFCURVE",
"1380 -441 OFFCURVE",
"1362 -444 CURVE SMOOTH"
);
},
{
closed = 1;
nodes = (
"348 849 OFFCURVE",
"349 861 OFFCURVE",
"359 865 CURVE SMOOTH",
"646 975 OFFCURVE",
"926 957 OFFCURVE",
"1058 805 CURVE SMOOTH",
"1066 796 OFFCURVE",
"1064 787 OFFCURVE",
"1053 781 CURVE SMOOTH",
"680 569 LINE SMOOTH",
"671 564 OFFCURVE",
"663 567 OFFCURVE",
"656 574 CURVE SMOOTH",
"522 709 OFFCURVE",
"402 808 OFFCURVE",
"356 843 CURVE SMOOTH"
);
}
);
width = 1302;
},
{
anchors = (
{
name = bottom;
position = "{782, -867}";
},
{
name = top;
position = "{707, 1284}";
}
);
background = {
paths = (
{
closed = 1;
nodes = (
"1295 -702 OFFCURVE",
"1351 -666 OFFCURVE",
"1406 -527 CURVE SMOOTH",
"1412 -512 OFFCURVE",
"1397 -501 OFFCURVE",
"1379 -504 CURVE SMOOTH",
"1212 -536 OFFCURVE",
"996 -567 OFFCURVE",
"802 -554 CURVE SMOOTH",
"442 -530 OFFCURVE",
"294 -354 OFFCURVE",
"344 -90 CURVE SMOOTH",
"373 83 OFFCURVE",
"490 225 OFFCURVE",
"646 332 CURVE SMOOTH",
"654 338 OFFCURVE",
"660 333 OFFCURVE",
"667 325 CURVE SMOOTH",
"940 10 OFFCURVE",
"1121 0 OFFCURVE",
"1292 0 CURVE SMOOTH",
"1339 0 LINE",
"1387 60 OFFCURVE",
"1387 119 OFFCURVE",
"1339 179 CURVE",
"1287 179 LINE SMOOTH",
"1037 179 OFFCURVE",
"915 291 OFFCURVE",
"792 420 CURVE SMOOTH",
"783 429 OFFCURVE",
"785 438 OFFCURVE",
"794 444 CURVE SMOOTH",
"946 545 OFFCURVE",
"1184 652 OFFCURVE",
"1195 812 CURVE SMOOTH",
"1210 1013 OFFCURVE",
"950 1113 OFFCURVE",
"733 1112 CURVE SMOOTH",
"585 1111 OFFCURVE",
"396 1051 OFFCURVE",
"290 1004 CURVE SMOOTH",
"282 1000 OFFCURVE",
"278 995 OFFCURVE",
"275 987 CURVE SMOOTH",
"192 781 LINE SMOOTH",
"187 769 OFFCURVE",
"192 765 OFFCURVE",
"201 759 CURVE SMOOTH",
"330 669 OFFCURVE",
"437 584 OFFCURVE",
"544 485 CURVE SMOOTH",
"553 476 OFFCURVE",
"552 468 OFFCURVE",
"543 461 CURVE SMOOTH",
"509 435 OFFCURVE",
"465 398 OFFCURVE",
"428 356 CURVE SMOOTH",
"175 63 OFFCURVE",
"139 -408 OFFCURVE",
"365 -613 CURVE SMOOTH",
"530 -762 OFFCURVE",
"832 -771 OFFCURVE",
"1097 -732 CURVE SMOOTH"
);
},
{
closed = 1;
nodes = (
"688 564 OFFCURVE",
"680 567 OFFCURVE",
"673 574 CURVE SMOOTH",
"539 709 OFFCURVE",
"419 808 OFFCURVE",
"373 843 CURVE SMOOTH",
"365 849 OFFCURVE",
"366 861 OFFCURVE",
"376 865 CURVE SMOOTH",
"663 975 OFFCURVE",
"943 957 OFFCURVE",
"1075 805 CURVE SMOOTH",
"1083 796 OFFCURVE",
"1081 787 OFFCURVE",
"1070 781 CURVE SMOOTH",
"697 569 LINE SMOOTH"
);
}
);
};
layerId = "00FED3EE-B3F5-49E6-B91A-35FC52169726";
paths = (
{
closed = 1;
nodes = (
"1175 -467 OFFCURVE",
"1025 -485 OFFCURVE",
"876 -485 CURVE SMOOTH",
"593 -485 OFFCURVE",
"330 -397 OFFCURVE",
"330 -154 CURVE SMOOTH",
"330 15 OFFCURVE",
"460 207 OFFCURVE",
"619 317 CURVE SMOOTH",
"624 320 OFFCURVE",
"630 320 OFFCURVE",
"634 316 CURVE SMOOTH",
"899 11 OFFCURVE",
"1076 0 OFFCURVE",
"1240 0 CURVE SMOOTH",
"1286 0 LINE",
"1313 32 OFFCURVE",
"1326 63 OFFCURVE",
"1326 96 CURVE SMOOTH",
"1326 128 OFFCURVE",
"1313 159 OFFCURVE",
"1286 191 CURVE",
"1236 191 LINE SMOOTH",
"999 191 OFFCURVE",
"885 296 OFFCURVE",
"767 420 CURVE SMOOTH",
"763 423 OFFCURVE",
"763 425 OFFCURVE",
"768 428 CURVE SMOOTH",
"905 519 OFFCURVE",
"1158 631 OFFCURVE",
"1158 805 CURVE SMOOTH",
"1158 994 OFFCURVE",
"911 1087 OFFCURVE",
"707 1087 CURVE SMOOTH",
"563 1087 OFFCURVE",
"377 1027 OFFCURVE",
"275 982 CURVE SMOOTH",
"264 977 OFFCURVE",
"259 971 OFFCURVE",
"255 961 CURVE",
"173 752 LINE",
"171 741 OFFCURVE",
"180 735 OFFCURVE",
"187 731 CURVE SMOOTH",
"314 642 OFFCURVE",
"416 561 OFFCURVE",
"516 468 CURVE SMOOTH",
"519 465 OFFCURVE",
"519 463 OFFCURVE",
"516 460 CURVE SMOOTH",
"327 318 OFFCURVE",
"199 50 OFFCURVE",
"199 -190 CURVE SMOOTH",
"199 -542 OFFCURVE",
"450 -697 OFFCURVE",
"824 -697 CURVE SMOOTH",
"898 -697 OFFCURVE",
"972 -691 OFFCURVE",
"1044 -681 CURVE SMOOTH",
"1239 -651 OFFCURVE",
"1285 -613 OFFCURVE",
"1339 -478 CURVE SMOOTH",
"1346 -451 OFFCURVE",
"1327 -440 OFFCURVE",
"1303 -443 CURVE SMOOTH"
);
},
{
closed = 1;
nodes = (
"362 828 OFFCURVE",
"362 830 OFFCURVE",
"365 831 CURVE SMOOTH",
"482 876 OFFCURVE",
"596 899 OFFCURVE",
"698 899 CURVE SMOOTH",
"837 899 OFFCURVE",
"954 856 OFFCURVE",
"1024 776 CURVE SMOOTH",
"1028 773 OFFCURVE",
"1028 771 OFFCURVE",
"1022 768 CURVE SMOOTH",
"664 564 LINE SMOOTH",
"660 563 OFFCURVE",
"658 563 OFFCURVE",
"653 567 CURVE SMOOTH",
"524 697 OFFCURVE",
"408 793 OFFCURVE",
"364 827 CURVE SMOOTH"
);
}
);
width = 1267;
}
);
unicode = FECA;
},
{
glyphname = "ain-ar.medi";
lastChange = "2016-07-24 15:14:29 +0000";
layers = (
{
anchors = (
{
name = bottom;
position = "{610, -173}";
},
{
name = top;
position = "{658, 1032}";
}
);
layerId = "93A312F7-B931-4485-B08E-C367313EB5E7";
paths = (
{
closed = 1;
nodes = (
"46 0 LINE SMOOTH",
"218 0 OFFCURVE",
"444 18 OFFCURVE",
"603 120 CURVE SMOOTH",
"612 126 OFFCURVE",
"619 123 OFFCURVE",
"627 118 CURVE SMOOTH",
"772 24 OFFCURVE",
"981 0 OFFCURVE",
"1173 0 CURVE SMOOTH",
"1239 0 LINE",
"1287 60 OFFCURVE",
"1287 119 OFFCURVE",
"1239 179 CURVE",
"1173 179 LINE SMOOTH",
"1057 179 OFFCURVE",
"867 190 OFFCURVE",
"793 209 CURVE SMOOTH",
"777 213 OFFCURVE",
"775 223 OFFCURVE",
"787 231 CURVE SMOOTH",
"910 317 OFFCURVE",
"1094 446 OFFCURVE",
"1093 557 CURVE SMOOTH",
"1091 761 OFFCURVE",
"841 858 OFFCURVE",
"658 857 CURVE SMOOTH",
"509 856 OFFCURVE",
"321 791 OFFCURVE",
"214 744 CURVE SMOOTH",
"206 741 OFFCURVE",
"202 735 OFFCURVE",
"199 727 CURVE SMOOTH",
"128 514 LINE SMOOTH",
"124 504 OFFCURVE",
"128 496 OFFCURVE",
"137 491 CURVE SMOOTH",
"250 431 OFFCURVE",
"375 347 OFFCURVE",
"492 245 CURVE SMOOTH",
"503 236 OFFCURVE",
"500 225 OFFCURVE",
"488 222 CURVE SMOOTH",
"365 192 OFFCURVE",
"198 179 OFFCURVE",
"46 179 CURVE SMOOTH",
"-20 179 LINE SMOOTH",
"-138 179 OFFCURVE",
"-138 0 OFFCURVE",
"-20 0 CURVE SMOOTH"
);
},
{
closed = 1;
nodes = (
"633 290 OFFCURVE",
"626 292 OFFCURVE",
"618 301 CURVE SMOOTH",
"495 431 OFFCURVE",
"340 537 OFFCURVE",
"286 572 CURVE SMOOTH",
"277 578 OFFCURVE",
"278 590 OFFCURVE",
"287 594 CURVE SMOOTH",
"426 649 OFFCURVE",
"550 681 OFFCURVE",
"639 679 CURVE SMOOTH",
"736 677 OFFCURVE",
"898 638 OFFCURVE",
"971 555 CURVE SMOOTH",
"978 547 OFFCURVE",
"975 538 OFFCURVE",
"966 531 CURVE SMOOTH",
"642 297 LINE SMOOTH"
);
}
);
width = 1219;
},
{
anchors = (
{
name = bottom;
position = "{586, -176}";
},
{
name = top;
position = "{632, 1029}";
}
);
layerId = "00FED3EE-B3F5-49E6-B91A-35FC52169726";
paths = (
{
closed = 1;
nodes = (
"44 0 LINE SMOOTH",
"209 0 OFFCURVE",
"429 17 OFFCURVE",
"584 117 CURVE SMOOTH",
"588 119 OFFCURVE",
"590 119 OFFCURVE",
"597 115 CURVE SMOOTH",
"738 23 OFFCURVE",
"941 0 OFFCURVE",
"1126 0 CURVE SMOOTH",
"1190 0 LINE",
"1217 32 OFFCURVE",
"1230 63 OFFCURVE",
"1230 96 CURVE SMOOTH",
"1230 128 OFFCURVE",
"1217 159 OFFCURVE",
"1190 191 CURVE",
"1126 191 LINE SMOOTH",
"1015 191 OFFCURVE",
"834 202 OFFCURVE",
"763 220 CURVE SMOOTH",
"760 221 OFFCURVE",
"759 222 OFFCURVE",
"761 224 CURVE SMOOTH",
"879 306 OFFCURVE",
"1059 432 OFFCURVE",
"1059 543 CURVE SMOOTH",
"1059 744 OFFCURVE",
"813 842 OFFCURVE",
"635 842 CURVE SMOOTH",
"490 842 OFFCURVE",
"305 778 OFFCURVE",
"202 732 CURVE SMOOTH",
"193 729 OFFCURVE",
"186 722 OFFCURVE",
"182 711 CURVE",
"112 495 LINE",
"111 488 OFFCURVE",
"116 479 OFFCURVE",
"127 472 CURVE SMOOTH",
"242 411 OFFCURVE",
"361 329 OFFCURVE",
"466 237 CURVE SMOOTH",
"470 234 OFFCURVE",
"470 233 OFFCURVE",
"467 232 CURVE SMOOTH",
"348 204 OFFCURVE",
"190 191 OFFCURVE",
"44 191 CURVE SMOOTH",
"-19 191 LINE SMOOTH",
"-83 191 OFFCURVE",
"-113 143 OFFCURVE",
"-113 96 CURVE SMOOTH",
"-113 48 OFFCURVE",
"-83 0 OFFCURVE",
"-19 0 CURVE SMOOTH"
);
},
{
closed = 1;
nodes = (
"607 300 OFFCURVE",
"606 300 OFFCURVE",
"600 305 CURVE SMOOTH",
"482 431 OFFCURVE",
"332 533 OFFCURVE",
"279 566 CURVE SMOOTH",
"277 568 OFFCURVE",
"277 570 OFFCURVE",
"279 571 CURVE SMOOTH",
"413 624 OFFCURVE",
"525 652 OFFCURVE",
"606 652 CURVE SMOOTH",
"697 652 OFFCURVE",
"855 615 OFFCURVE",
"924 536 CURVE SMOOTH",
"927 534 OFFCURVE",
"926 531 OFFCURVE",
"922 527 CURVE SMOOTH",
"611 302 LINE SMOOTH"
);
}
);
width = 1171;
}
);
unicode = FECC;
},
{
glyphname = "ain-ar.init";
lastChange = "2016-07-24 15:14:44 +0000";
layers = (
{
anchors = (
{
name = bottom;
position = "{603, -161}";
},
{
name = top;
position = "{591, 1157}";
}
);
layerId = "93A312F7-B931-4485-B08E-C367313EB5E7";
paths = (
{
closed = 1;
nodes = (
"46 0 LINE SMOOTH",
"454 0 OFFCURVE",
"692 64 OFFCURVE",
"1102 210 CURVE SMOOTH",
"1111 213 OFFCURVE",
"1116 220 OFFCURVE",
"1118 229 CURVE SMOOTH",
"1151 383 LINE SMOOTH",
"1154 396 OFFCURVE",
"1134 405 OFFCURVE",
"1121 399 CURVE SMOOTH",
"946 324 OFFCURVE",
"773 267 OFFCURVE",
"593 230 CURVE SMOOTH",
"574 226 OFFCURVE",
"559 229 OFFCURVE",
"547 244 CURVE SMOOTH",
"423 402 OFFCURVE",
"360 536 OFFCURVE",
"325 683 CURVE SMOOTH",
"323 693 OFFCURVE",
"323 701 OFFCURVE",
"332 707 CURVE SMOOTH",
"500 820 OFFCURVE",
"698 819 OFFCURVE",
"907 733 CURVE SMOOTH",
"919 728 OFFCURVE",
"930 734 OFFCURVE",
"928 745 CURVE SMOOTH",
"910 872 LINE SMOOTH",
"909 882 OFFCURVE",
"907 887 OFFCURVE",
"899 892 CURVE SMOOTH",
"607 1064 OFFCURVE",
"213 964 OFFCURVE",
"191 639 CURVE",
"189 520 OFFCURVE",
"247 376 OFFCURVE",
"374 194 CURVE",
"258 178 OFFCURVE",
"133 179 OFFCURVE",
"46 179 CURVE SMOOTH",
"-20 179 LINE SMOOTH",
"-138 179 OFFCURVE",
"-138 0 OFFCURVE",
"-20 0 CURVE SMOOTH"
);
}
);
width = 1289;
},
{
anchors = (
{
name = bottom;
position = "{579, -174}";
},
{
name = top;
position = "{567, 1149}";
}
);
layerId = "00FED3EE-B3F5-49E6-B91A-35FC52169726";
paths = (
{
closed = 1;
nodes = (
"44 0 LINE SMOOTH",
"437 0 OFFCURVE",
"667 61 OFFCURVE",
"1061 203 CURVE SMOOTH",
"1072 205 OFFCURVE",
"1080 215 OFFCURVE",
"1083 228 CURVE SMOOTH",
"1115 375 LINE SMOOTH",
"1119 396 OFFCURVE",
"1092 411 OFFCURVE",
"1072 401 CURVE SMOOTH",
"945 347 OFFCURVE",
"634 238 OFFCURVE",
"555 238 CURVE SMOOTH",
"545 238 OFFCURVE",
"539 242 OFFCURVE",
"533 250 CURVE SMOOTH",
"421 392 OFFCURVE",
"357 519 OFFCURVE",
"322 667 CURVE SMOOTH",
"320 676 OFFCURVE",
"321 678 OFFCURVE",
"324 681 CURVE SMOOTH",
"406 735 OFFCURVE",
"497 763 OFFCURVE",
"597 763 CURVE SMOOTH",
"682 763 OFFCURVE",
"772 744 OFFCURVE",
"867 705 CURVE SMOOTH",
"871 703 OFFCURVE",
"876 702 OFFCURVE",
"878 702 CURVE SMOOTH",
"893 702 OFFCURVE",
"902 712 OFFCURVE",
"900 727 CURVE SMOOTH",
"883 848 LINE SMOOTH",
"881 861 OFFCURVE",
"877 868 OFFCURVE",
"868 874 CURVE SMOOTH",
"776 928 OFFCURVE",
"673 954 OFFCURVE",
"575 954 CURVE SMOOTH",
"372 954 OFFCURVE",
"189 839 OFFCURVE",
"174 624 CURVE SMOOTH",
"174 475 OFFCURVE",
"240 352 OFFCURVE",
"342 204 CURVE",
"266 194 OFFCURVE",
"165 191 OFFCURVE",
"44 191 CURVE SMOOTH",
"-19 191 LINE SMOOTH",
"-83 191 OFFCURVE",
"-113 143 OFFCURVE",
"-113 96 CURVE SMOOTH",
"-113 48 OFFCURVE",
"-83 0 OFFCURVE",
"-19 0 CURVE SMOOTH"
);
}
);
width = 1250;
}
);
leftKerningGroup = all;
unicode = FECB;
},
{
glyphname = "fehDotless-ar";
lastChange = "2016-07-24 15:14:54 +0000";
layers = (
{
anchors = (
{
name = bottom;
position = "{848, -216}";
},
{
name = top;
position = "{1350, 1293}";
}
);
layerId = "93A312F7-B931-4485-B08E-C367313EB5E7";
paths = (
{
closed = 1;
nodes = (
"902 -47 OFFCURVE",
"1176 1 OFFCURVE",
"1381 54 CURVE SMOOTH",
"1688 135 OFFCURVE",
"1708 338 OFFCURVE",
"1708 506 CURVE",
"1690 800 OFFCURVE",
"1544 1116 OFFCURVE",
"1355 1116 CURVE SMOOTH",
"1124 1116 OFFCURVE",
"1011 831 OFFCURVE",
"1011 595 CURVE SMOOTH",
"1011 289 OFFCURVE",
"1382 322 OFFCURVE",
"1563 409 CURVE SMOOTH",
"1579 417 OFFCURVE",
"1594 408 OFFCURVE",
"1595 390 CURVE SMOOTH",
"1598 296 LINE",
"1474 236 OFFCURVE",
"1081 138 OFFCURVE",
"750 144 CURVE SMOOTH",
"480 148 OFFCURVE",
"258 223 OFFCURVE",
"279 454 CURVE SMOOTH",
"293 596 LINE SMOOTH",
"294 606 OFFCURVE",
"288 613 OFFCURVE",
"277 614 CURVE SMOOTH",
"214 620 LINE SMOOTH",
"204 621 OFFCURVE",
"195 614 OFFCURVE",
"194 604 CURVE SMOOTH",
"178 454 LINE SMOOTH",
"139 106 OFFCURVE",
"301 -31 OFFCURVE",
"666 -41 CURVE SMOOTH"
);
},
{
closed = 1;
nodes = (
"1129 559 OFFCURVE",
"1112 574 OFFCURVE",
"1112 580 CURVE SMOOTH",
"1114 773 OFFCURVE",
"1187 925 OFFCURVE",
"1314 925 CURVE SMOOTH",
"1428 925 OFFCURVE",
"1543 743 OFFCURVE",
"1578 558 CURVE",
"1580 550 OFFCURVE",
"1332 488 OFFCURVE",
"1163 547 CURVE SMOOTH"
);
}
);
width = 1846;
},
{
anchors = (
{
name = bottom;
position = "{831, -236}";
},
{
name = top;
position = "{1313, 1270}";
}
);
layerId = "00FED3EE-B3F5-49E6-B91A-35FC52169726";
paths = (
{
closed = 1;
nodes = (
"173 61 OFFCURVE",
"366 -39 OFFCURVE",
"696 -39 CURVE SMOOTH",
"914 -39 OFFCURVE",
"1160 -6 OFFCURVE",
"1346 42 CURVE SMOOTH",
"1618 114 OFFCURVE",
"1668 287 OFFCURVE",
"1668 439 CURVE SMOOTH",
"1668 705 OFFCURVE",
"1527 1081 OFFCURVE",
"1318 1081 CURVE SMOOTH",
"1090 1081 OFFCURVE",
"978 800 OFFCURVE",
"978 571 CURVE SMOOTH",
"978 386 OFFCURVE",
"1115 325 OFFCURVE",
"1260 325 CURVE SMOOTH",
"1355 325 OFFCURVE",
"1453 350 OFFCURVE",
"1522 384 CURVE SMOOTH",
"1531 389 OFFCURVE",
"1538 384 OFFCURVE",
"1539 373 CURVE SMOOTH",
"1542 290 LINE",
"1422 234 OFFCURVE",
"1071 152 OFFCURVE",
"766 152 CURVE SMOOTH",
"516 152 OFFCURVE",
"294 215 OFFCURVE",
"294 418 CURVE SMOOTH",
"294 438 OFFCURVE",
"294 468 OFFCURVE",
"308 585 CURVE SMOOTH",
"310 600 OFFCURVE",
"300 611 OFFCURVE",
"284 612 CURVE SMOOTH",
"224 618 LINE SMOOTH",
"208 620 OFFCURVE",
"196 609 OFFCURVE",
"194 594 CURVE SMOOTH",
"174 442 OFFCURVE",
"173 393 OFFCURVE",
"173 355 CURVE SMOOTH"
);
},
{
closed = 1;
nodes = (
"1187 509 OFFCURVE",
"1097 542 OFFCURVE",
"1094 557 CURVE",
"1094 751 OFFCURVE",
"1170 878 OFFCURVE",
"1279 878 CURVE SMOOTH",
"1376 878 OFFCURVE",
"1487 720 OFFCURVE",
"1523 534 CURVE",
"1521 533 OFFCURVE",
"1423 509 OFFCURVE",
"1309 509 CURVE SMOOTH"
);
}
);
width = 1803;
}
);
leftKerningGroup = all;
unicode = 06A1;
},
{
glyphname = "fehDotless-ar.fina";
lastChange = "2016-07-24 15:14:52 +0000";
layers = (
{
anchors = (
{
name = bottom;
position = "{848, -230}";
},
{
name = top;
position = "{1633, 1174}";
}
);
layerId = "93A312F7-B931-4485-B08E-C367313EB5E7";
paths = (
{
closed = 1;
nodes = (
"950 -57 OFFCURVE",
"1290 2 OFFCURVE",
"1516 86 CURVE SMOOTH",
"1523 89 OFFCURVE",
"1528 88 OFFCURVE",
"1536 85 CURVE SMOOTH",
"1667 36 OFFCURVE",
"1843 0 OFFCURVE",
"2031 0 CURVE SMOOTH",
"2097 0 LINE",
"2145 60 OFFCURVE",
"2145 119 OFFCURVE",
"2097 179 CURVE",
"2031 179 LINE SMOOTH",
"1912 179 OFFCURVE",
"1771 190 OFFCURVE",
"1771 190 CURVE SMOOTH",
"1771 190 OFFCURVE",
"1916 420 OFFCURVE",
"1916 527 CURVE SMOOTH",
"1917 811 OFFCURVE",
"1745 999 OFFCURVE",
"1633 1002 CURVE SMOOTH",
"1439 1006 OFFCURVE",
"1252 699 OFFCURVE",
"1255 427 CURVE SMOOTH",
"1256 344 OFFCURVE",
"1270 275 OFFCURVE",
"1306 197 CURVE",
"1145 164 OFFCURVE",
"923 131 OFFCURVE",
"750 135 CURVE SMOOTH",
"480 139 OFFCURVE",
"258 214 OFFCURVE",
"279 445 CURVE SMOOTH",
"293 633 LINE SMOOTH",
"294 643 OFFCURVE",
"288 650 OFFCURVE",
"277 651 CURVE SMOOTH",
"214 657 LINE SMOOTH",
"204 658 OFFCURVE",
"196 651 OFFCURVE",
"195 641 CURVE SMOOTH",
"178 445 LINE SMOOTH",
"139 97 OFFCURVE",
"301 -41 OFFCURVE",
"666 -51 CURVE SMOOTH"
);
},
{
closed = 1;
nodes = (
"1447 283 OFFCURVE",
"1342 369 OFFCURVE",
"1354 507 CURVE SMOOTH",
"1363 615 OFFCURVE",
"1483 790 OFFCURVE",
"1593 790 CURVE SMOOTH",
"1732 790 OFFCURVE",
"1800 523 OFFCURVE",
"1814 463 CURVE SMOOTH",
"1816 454 OFFCURVE",
"1814 447 OFFCURVE",
"1809 440 CURVE SMOOTH",
"1758 363 OFFCURVE",
"1697 294 OFFCURVE",
"1623 237 CURVE SMOOTH",
"1616 231 OFFCURVE",
"1609 230 OFFCURVE",
"1600 233 CURVE SMOOTH"
);
}
);
width = 2077;
},
{
anchors = (
{
name = bottom;
position = "{812, -240}";
},
{
name = top;
position = "{1585, 1175}";
}
);
layerId = "00FED3EE-B3F5-49E6-B91A-35FC52169726";
paths = (
{
closed = 1;
nodes = (
"1402 293 OFFCURVE",
"1326 372 OFFCURVE",
"1326 476 CURVE SMOOTH",
"1326 589 OFFCURVE",
"1445 758 OFFCURVE",
"1547 758 CURVE SMOOTH",
"1672 758 OFFCURVE",
"1736 510 OFFCURVE",
"1749 452 CURVE SMOOTH",
"1751 446 OFFCURVE",
"1749 443 OFFCURVE",
"1746 438 CURVE SMOOTH",
"1695 360 OFFCURVE",
"1635 297 OFFCURVE",
"1570 245 CURVE SMOOTH",
"1565 241 OFFCURVE",
"1562 240 OFFCURVE",
"1556 242 CURVE SMOOTH"
);
},
{
closed = 1;
nodes = (
"1764 251 OFFCURVE",
"1866 428 OFFCURVE",
"1866 517 CURVE SMOOTH",
"1866 797 OFFCURVE",
"1693 981 OFFCURVE",
"1581 981 CURVE SMOOTH",
"1398 981 OFFCURVE",
"1212 698 OFFCURVE",
"1212 425 CURVE SMOOTH",
"1212 344 OFFCURVE",
"1226 277 OFFCURVE",
"1258 205 CURVE",
"1113 177 OFFCURVE",
"923 154 OFFCURVE",
"766 154 CURVE SMOOTH",
"516 154 OFFCURVE",
"294 216 OFFCURVE",
"294 419 CURVE SMOOTH",
"294 433 OFFCURVE",
"293 464 OFFCURVE",
"308 587 CURVE SMOOTH",
"310 602 OFFCURVE",
"300 612 OFFCURVE",
"284 614 CURVE SMOOTH",
"224 620 LINE SMOOTH",
"209 621 OFFCURVE",
"197 612 OFFCURVE",
"195 596 CURVE SMOOTH",
"176 441 OFFCURVE",
"173 388 OFFCURVE",
"173 356 CURVE SMOOTH",
"173 60 OFFCURVE",
"366 -38 OFFCURVE",
"695 -38 CURVE SMOOTH",
"961 -38 OFFCURVE",
"1269 6 OFFCURVE",
"1476 84 CURVE SMOOTH",
"1479 84 OFFCURVE",
"1482 84 OFFCURVE",
"1488 83 CURVE SMOOTH",
"1629 30 OFFCURVE",
"1801 0 OFFCURVE",
"1967 0 CURVE SMOOTH",
"2031 0 LINE",
"2058 32 OFFCURVE",
"2071 63 OFFCURVE",
"2071 96 CURVE SMOOTH",
"2071 128 OFFCURVE",
"2058 159 OFFCURVE",
"2031 191 CURVE",
"1967 191 LINE SMOOTH",
"1877 191 OFFCURVE",
"1773 198 OFFCURVE",
"1734 201 CURVE"
);
}
);
width = 2012;
}
);
},
{
glyphname = "fehDotless-ar.medi";
lastChange = "2016-07-24 15:14:59 +0000";
layers = (
{
anchors = (
{
name = bottom;
position = "{491, -174}";
},
{
name = top;
position = "{536, 1174}";
}
);
layerId = "93A312F7-B931-4485-B08E-C367313EB5E7";
paths = (
{
closed = 1;
nodes = (
"46 0 LINE SMOOTH",
"247 0 OFFCURVE",
"384 36 OFFCURVE",
"491 90 CURVE",
"623 38 OFFCURVE",
"804 0 OFFCURVE",
"997 0 CURVE SMOOTH",
"1063 0 LINE",
"1111 60 OFFCURVE",
"1111 119 OFFCURVE",
"1063 179 CURVE",
"997 179 LINE SMOOTH",
"879 179 OFFCURVE",
"737 190 OFFCURVE",
"737 190 CURVE",
"789 260 OFFCURVE",
"876 389 OFFCURVE",
"877 522 CURVE SMOOTH",
"880 752 OFFCURVE",
"761 998 OFFCURVE",
"599 1002 CURVE SMOOTH",
"405 1006 OFFCURVE",
"217 699 OFFCURVE",
"221 427 CURVE SMOOTH",
"222 321 OFFCURVE",
"253 248 OFFCURVE",
"290 193 CURVE",
"241 187 OFFCURVE",
"135 179 OFFCURVE",
"46 179 CURVE SMOOTH",
"-20 179 LINE SMOOTH",
"-138 179 OFFCURVE",
"-138 0 OFFCURVE",
"-20 0 CURVE SMOOTH"
);
},
{
closed = 1;
nodes = (
"414 282 OFFCURVE",
"308 368 OFFCURVE",
"320 507 CURVE SMOOTH",
"329 615 OFFCURVE",
"450 790 OFFCURVE",
"559 790 CURVE SMOOTH",
"702 790 OFFCURVE",
"777 511 OFFCURVE",
"790 459 CURVE SMOOTH",
"791 454 OFFCURVE",
"791 450 OFFCURVE",
"787 445 CURVE SMOOTH",
"723 361 OFFCURVE",
"655 292 OFFCURVE",
"585 236 CURVE SMOOTH",
"580 232 OFFCURVE",
"575 230 OFFCURVE",
"569 232 CURVE SMOOTH"
);
}
);
width = 1043;
},
{
anchors = (
{
name = bottom;
position = "{471, -177}";
},
{
name = top;
position = "{573, 1175}";
}
);
layerId = "00FED3EE-B3F5-49E6-B91A-35FC52169726";
paths = (
{
closed = 1;
nodes = (
"394 292 OFFCURVE",
"316 371 OFFCURVE",
"316 476 CURVE SMOOTH",
"316 588 OFFCURVE",
"435 758 OFFCURVE",
"537 758 CURVE SMOOTH",
"666 758 OFFCURVE",
"736 497 OFFCURVE",
"749 448 CURVE SMOOTH",
"750 445 OFFCURVE",
"750 444 OFFCURVE",
"748 443 CURVE SMOOTH",
"688 365 OFFCURVE",
"625 299 OFFCURVE",
"556 244 CURVE SMOOTH",
"552 241 OFFCURVE",
"551 241 OFFCURVE",
"549 241 CURVE SMOOTH"
);
},
{
closed = 1;
nodes = (
"777 271 OFFCURVE",
"851 389 OFFCURVE",
"852 511 CURVE SMOOTH",
"854 757 OFFCURVE",
"725 981 OFFCURVE",
"571 981 CURVE SMOOTH",
"388 981 OFFCURVE",
"203 700 OFFCURVE",
"203 428 CURVE SMOOTH",
"203 328 OFFCURVE",
"228 255 OFFCURVE",
"262 203 CURVE",
"210 197 OFFCURVE",
"121 191 OFFCURVE",
"44 191 CURVE SMOOTH",
"-19 191 LINE SMOOTH",
"-83 191 OFFCURVE",
"-113 143 OFFCURVE",
"-113 96 CURVE SMOOTH",
"-113 48 OFFCURVE",
"-83 0 OFFCURVE",
"-19 0 CURVE SMOOTH",
"44 0 LINE SMOOTH",
"217 0 OFFCURVE",
"355 28 OFFCURVE",
"471 85 CURVE",
"612 31 OFFCURVE",
"787 0 OFFCURVE",
"957 0 CURVE SMOOTH",
"1021 0 LINE",
"1048 32 OFFCURVE",
"1061 63 OFFCURVE",
"1061 96 CURVE SMOOTH",
"1061 128 OFFCURVE",
"1048 159 OFFCURVE",
"1021 191 CURVE",
"957 191 LINE SMOOTH",
"869 191 OFFCURVE",
"766 198 OFFCURVE",
"726 201 CURVE"
);
}
);
width = 1002;
}
);
},
{
glyphname = "fehDotless-ar.init";
lastChange = "2016-07-24 15:15:00 +0000";
layers = (
{
anchors = (
{
name = bottom;
position = "{399, -173}";
},
{
name = top;
position = "{418, 1280}";
}
);
layerId = "93A312F7-B931-4485-B08E-C367313EB5E7";
paths = (
{
closed = 1;
nodes = (
"46 0 LINE SMOOTH",
"222 0 OFFCURVE",
"360 -3 OFFCURVE",
"528 35 CURVE SMOOTH",
"844 107 OFFCURVE",
"867 291 OFFCURVE",
"853 520 CURVE SMOOTH",
"836 814 OFFCURVE",
"690 1129 OFFCURVE",
"500 1129 CURVE SMOOTH",
"269 1129 OFFCURVE",
"156 845 OFFCURVE",
"156 608 CURVE SMOOTH",
"156 302 OFFCURVE",
"532 336 OFFCURVE",
"713 423 CURVE SMOOTH",
"729 431 OFFCURVE",
"745 422 OFFCURVE",
"745 404 CURVE SMOOTH",
"744 284 LINE SMOOTH",
"744 278 OFFCURVE",
"742 272 OFFCURVE",
"735 269 CURVE SMOOTH",
"499 173 OFFCURVE",
"105 179 OFFCURVE",
"46 179 CURVE SMOOTH",
"-20 179 LINE SMOOTH",
"-138 179 OFFCURVE",
"-138 0 OFFCURVE",
"-20 0 CURVE SMOOTH"
);
},
{
closed = 1;
nodes = (
"275 573 OFFCURVE",
"258 588 OFFCURVE",
"258 593 CURVE SMOOTH",
"260 787 OFFCURVE",
"332 938 OFFCURVE",
"460 938 CURVE SMOOTH",
"574 938 OFFCURVE",
"689 757 OFFCURVE",
"723 572 CURVE",
"726 564 OFFCURVE",
"477 501 OFFCURVE",
"308 561 CURVE SMOOTH"
);
}
);
width = 995;
},
{
anchors = (
{
name = bottom;
position = "{383, -185}";
},
{
name = top;
position = "{478, 1296}";
}
);
layerId = "00FED3EE-B3F5-49E6-B91A-35FC52169726";
paths = (
{
closed = 1;
nodes = (
"44 0 LINE SMOOTH",
"255 0 OFFCURVE",
"369 2 OFFCURVE",
"509 34 CURVE SMOOTH",
"780 96 OFFCURVE",
"831 244 OFFCURVE",
"831 427 CURVE SMOOTH",
"831 720 OFFCURVE",
"698 1103 OFFCURVE",
"480 1103 CURVE SMOOTH",
"252 1103 OFFCURVE",
"140 823 OFFCURVE",
"140 593 CURVE SMOOTH",
"140 409 OFFCURVE",
"277 348 OFFCURVE",
"424 348 CURVE SMOOTH",
"520 348 OFFCURVE",
"619 373 OFFCURVE",
"688 407 CURVE SMOOTH",
"698 412 OFFCURVE",
"706 407 OFFCURVE",
"706 397 CURVE SMOOTH",
"705 282 LINE SMOOTH",
"705 278 OFFCURVE",
"704 277 OFFCURVE",
"702 276 CURVE SMOOTH",
"547 214 OFFCURVE",
"310 191 OFFCURVE",
"44 191 CURVE SMOOTH",
"-19 191 LINE SMOOTH",
"-83 191 OFFCURVE",
"-113 143 OFFCURVE",
"-113 96 CURVE SMOOTH",
"-113 48 OFFCURVE",
"-83 0 OFFCURVE",
"-19 0 CURVE SMOOTH"
);
},
{
closed = 1;
nodes = (
"317 522 OFFCURVE",
"252 567 OFFCURVE",
"247 574 CURVE",
"249 779 OFFCURVE",
"326 911 OFFCURVE",
"440 911 CURVE SMOOTH",
"543 911 OFFCURVE",
"660 745 OFFCURVE",
"695 549 CURVE",
"690 545 OFFCURVE",
"591 522 OFFCURVE",
"478 522 CURVE SMOOTH"
);
}
);
width = 966;
}
);
leftKerningGroup = all;
},
{
glyphname = "qafDotless-ar";
lastChange = "2016-07-24 15:15:02 +0000";
layers = (
{
layerId = "93A312F7-B931-4485-B08E-C367313EB5E7";
width = 600;
},
{
anchors = (
{
name = bottom;
position = "{704, -703}";
},
{
name = top;
position = "{1085, 982}";
}
);
layerId = "00FED3EE-B3F5-49E6-B91A-35FC52169726";
paths = (
{
closed = 1;
nodes = (
"799 -508 OFFCURVE",
"1265 -446 OFFCURVE",
"1396 -254 CURVE SMOOTH",
"1450 -177 OFFCURVE",
"1454 -70 OFFCURVE",
"1459 64 CURVE SMOOTH",
"1469 382 OFFCURVE",
"1309 789 OFFCURVE",
"1081 789 CURVE SMOOTH",
"852 789 OFFCURVE",
"719 464 OFFCURVE",
"719 235 CURVE SMOOTH",
"719 24 OFFCURVE",
"860 -39 OFFCURVE",
"1018 -39 CURVE SMOOTH",
"1120 -39 OFFCURVE",
"1230 -14 OFFCURVE",
"1310 24 CURVE SMOOTH",
"1315 27 OFFCURVE",
"1315 26 OFFCURVE",
"1315 22 CURVE SMOOTH",
"1307 -173 LINE SMOOTH",
"1307 -177 OFFCURVE",
"1305 -180 OFFCURVE",
"1299 -181 CURVE SMOOTH",
"1236 -204 OFFCURVE",
"961 -296 OFFCURVE",
"632 -296 CURVE SMOOTH",
"416 -296 OFFCURVE",
"299 -189 OFFCURVE",
"308 2 CURVE SMOOTH",
"309 22 OFFCURVE",
"313 43 OFFCURVE",
"355 272 CURVE SMOOTH",
"358 287 OFFCURVE",
"350 300 OFFCURVE",
"335 304 CURVE SMOOTH",
"259 320 LINE SMOOTH",
"244 323 OFFCURVE",
"230 314 OFFCURVE",
"228 299 CURVE SMOOTH",
"180 19 OFFCURVE",
"173 -21 OFFCURVE",
"173 -83 CURVE SMOOTH",
"173 -313 OFFCURVE",
"301 -508 OFFCURVE",
"605 -508 CURVE SMOOTH"
);
},
{
closed = 1;
nodes = (
"1209 160 OFFCURVE",
"1130 155 OFFCURVE",
"1060 155 CURVE SMOOTH",
"984 155 OFFCURVE",
"919 162 OFFCURVE",
"862 188 CURVE SMOOTH",
"858 190 OFFCURVE",
"857 192 OFFCURVE",
"856 200 CURVE SMOOTH",
"844 368 OFFCURVE",
"909 587 OFFCURVE",
"1042 587 CURVE SMOOTH",
"1158 587 OFFCURVE",
"1289 391 OFFCURVE",
"1307 190 CURVE SMOOTH",
"1308 185 OFFCURVE",
"1305 182 OFFCURVE",
"1300 181 CURVE SMOOTH"
);
}
);
width = 1594;
}
);
unicode = 066F;
},
{
glyphname = "qafDotless-ar.fina";
lastChange = "2016-07-24 15:15:04 +0000";
layers = (
{
anchors = (
{
name = bottom;
position = "{766, -702}";
},
{
name = top;
position = "{1025, 974}";
}
);
layerId = "93A312F7-B931-4485-B08E-C367313EB5E7";
paths = (
{
closed = 1;
nodes = (
"814 -530 OFFCURVE",
"1295 -467 OFFCURVE",
"1429 -270 CURVE SMOOTH",
"1477 -202 OFFCURVE",
"1487 -113 OFFCURVE",
"1492 0 CURVE",
"1682 0 LINE",
"1730 60 OFFCURVE",
"1730 119 OFFCURVE",
"1682 179 CURVE",
"1489 179 LINE",
"1463 480 OFFCURVE",
"1312 800 OFFCURVE",
"1109 800 CURVE SMOOTH",
"877 800 OFFCURVE",
"719 493 OFFCURVE",
"719 256 CURVE SMOOTH",
"719 -69 OFFCURVE",
"1103 -41 OFFCURVE",
"1341 3 CURVE SMOOTH",
"1354 6 OFFCURVE",
"1359 -1 OFFCURVE",
"1359 -13 CURVE SMOOTH",
"1352 -190 LINE SMOOTH",
"1352 -199 OFFCURVE",
"1348 -206 OFFCURVE",
"1339 -209 CURVE SMOOTH",
"1273 -233 OFFCURVE",
"986 -329 OFFCURVE",
"641 -329 CURVE SMOOTH",
"436 -329 OFFCURVE",
"283 -235 OFFCURVE",
"294 -9 CURVE SMOOTH",
"296 13 OFFCURVE",
"300 36 OFFCURVE",
"344 274 CURVE SMOOTH",
"346 285 OFFCURVE",
"340 294 OFFCURVE",
"330 296 CURVE SMOOTH",
"252 312 LINE SMOOTH",
"241 314 OFFCURVE",
"233 308 OFFCURVE",
"231 298 CURVE SMOOTH",
"187 39 LINE SMOOTH",
"129 -253 OFFCURVE",
"245 -530 OFFCURVE",
"613 -530 CURVE SMOOTH"
);
},
{
closed = 1;
nodes = (
"1140 148 OFFCURVE",
"944 159 OFFCURVE",
"833 213 CURVE SMOOTH",
"828 215 OFFCURVE",
"825 221 OFFCURVE",
"825 230 CURVE SMOOTH",
"816 401 OFFCURVE",
"919 610 OFFCURVE",
"1068 610 CURVE SMOOTH",
"1203 610 OFFCURVE",
"1343 384 OFFCURVE",
"1355 171 CURVE"
);
}
);
width = 1662;
},
{
anchors = (
{
name = bottom;
position = "{694, -701}";
},
{
name = top;
position = "{1082, 983}";
}
);
layerId = "00FED3EE-B3F5-49E6-B91A-35FC52169726";
paths = (
{
closed = 1;
nodes = (
"799 -509 OFFCURVE",
"1265 -447 OFFCURVE",
"1396 -255 CURVE SMOOTH",
"1442 -190 OFFCURVE",
"1452 -105 OFFCURVE",
"1458 0 CURVE",
"1632 0 LINE",
"1659 32 OFFCURVE",
"1671 63 OFFCURVE",
"1671 96 CURVE SMOOTH",
"1671 128 OFFCURVE",
"1659 159 OFFCURVE",
"1632 191 CURVE",
"1454 191 LINE",
"1428 479 OFFCURVE",
"1280 787 OFFCURVE",
"1081 787 CURVE SMOOTH",
"852 787 OFFCURVE",
"697 485 OFFCURVE",
"697 255 CURVE SMOOTH",
"697 70 OFFCURVE",
"824 -22 OFFCURVE",
"1061 -22 CURVE SMOOTH",
"1133 -22 OFFCURVE",
"1214 -14 OFFCURVE",
"1306 3 CURVE SMOOTH",
"1310 4 OFFCURVE",
"1311 4 OFFCURVE",
"1311 -3 CURVE SMOOTH",
"1305 -173 LINE SMOOTH",
"1305 -178 OFFCURVE",
"1303 -180 OFFCURVE",
"1299 -182 CURVE SMOOTH",
"1236 -205 OFFCURVE",
"961 -297 OFFCURVE",
"632 -297 CURVE SMOOTH",
"416 -297 OFFCURVE",
"299 -190 OFFCURVE",
"308 1 CURVE SMOOTH",
"309 21 OFFCURVE",
"314 42 OFFCURVE",
"356 271 CURVE SMOOTH",
"359 286 OFFCURVE",
"349 300 OFFCURVE",
"335 303 CURVE SMOOTH",
"260 319 LINE SMOOTH",
"245 322 OFFCURVE",
"231 313 OFFCURVE",
"228 298 CURVE SMOOTH",
"180 17 OFFCURVE",
"173 -20 OFFCURVE",
"173 -84 CURVE SMOOTH",
"173 -314 OFFCURVE",
"301 -509 OFFCURVE",
"605 -509 CURVE SMOOTH"
);
},
{
closed = 1;
nodes = (
"1234 172 OFFCURVE",
"1164 166 OFFCURVE",
"1101 166 CURVE SMOOTH",
"982 166 OFFCURVE",
"884 185 OFFCURVE",
"820 223 CURVE SMOOTH",
"819 224 OFFCURVE",
"818 228 OFFCURVE",
"818 230 CURVE SMOOTH",
"818 400 OFFCURVE",
"900 586 OFFCURVE",
"1042 586 CURVE SMOOTH",
"1160 586 OFFCURVE",
"1292 385 OFFCURVE",
"1307 182 CURVE"
);
}
);
width = 1613;
}
);
},
{
glyphname = "dotlesskaf-ar";
lastChange = "2016-07-24 15:15:11 +0000";
layers = (
{
anchors = (
{
name = bottom;
position = "{775, -215}";
},
{
name = top;
position = "{722, 928}";
}
);
layerId = "93A312F7-B931-4485-B08E-C367313EB5E7";
paths = (
{
closed = 1;
nodes = (
"537 -32 OFFCURVE",
"745 -23 OFFCURVE",
"911 -5 CURVE SMOOTH",
"1275 36 OFFCURVE",
"1367 201 OFFCURVE",
"1362 598 CURVE SMOOTH",
"1348 1520 LINE SMOOTH",
"1348 1534 OFFCURVE",
"1340 1541 OFFCURVE",
"1327 1532 CURVE SMOOTH",
"1208 1449 LINE SMOOTH",
"1199 1442 OFFCURVE",
"1197 1439 OFFCURVE",
"1197 1428 CURVE SMOOTH",
"1229 683 OFFCURVE",
"1239 382 OFFCURVE",
"1220 261 CURVE SMOOTH",
"1218 250 OFFCURVE",
"1216 245 OFFCURVE",
"1205 241 CURVE SMOOTH",
"1015 174 OFFCURVE",
"506 143 OFFCURVE",
"193 222 CURVE SMOOTH",
"182 225 OFFCURVE",
"175 221 OFFCURVE",
"174 208 CURVE SMOOTH",
"163 28 OFFCURVE",
"198 7 OFFCURVE",
"370 -13 CURVE SMOOTH"
);
}
);
width = 1500;
},
{
anchors = (
{
name = bottom;
position = "{665, -216}";
},
{
name = top;
position = "{720, 929}";
}
);
layerId = "00FED3EE-B3F5-49E6-B91A-35FC52169726";
paths = (
{
closed = 1;
nodes = (
"435 -35 OFFCURVE",
"504 -37 OFFCURVE",
"574 -37 CURVE SMOOTH",
"1148 -37 OFFCURVE",
"1342 47 OFFCURVE",
"1334 569 CURVE SMOOTH",
"1321 1454 LINE SMOOTH",
"1321 1470 OFFCURVE",
"1312 1479 OFFCURVE",
"1301 1479 CURVE SMOOTH",
"1296 1479 OFFCURVE",
"1291 1477 OFFCURVE",
"1285 1474 CURVE SMOOTH",
"1171 1394 LINE SMOOTH",
"1160 1385 OFFCURVE",
"1157 1380 OFFCURVE",
"1157 1366 CURVE SMOOTH",
"1157 1047 OFFCURVE",
"1188 691 OFFCURVE",
"1188 456 CURVE SMOOTH",
"1188 365 OFFCURVE",
"1188 288 OFFCURVE",
"1179 243 CURVE SMOOTH",
"1177 233 OFFCURVE",
"1177 233 OFFCURVE",
"1171 230 CURVE SMOOTH",
"1071 180 OFFCURVE",
"857 153 OFFCURVE",
"643 153 CURVE SMOOTH",
"488 153 OFFCURVE",
"331 175 OFFCURVE",
"204 204 CURVE SMOOTH",
"188 208 OFFCURVE",
"175 200 OFFCURVE",
"175 182 CURVE SMOOTH",
"175 11 OFFCURVE",
"190 -5 OFFCURVE",
"372 -27 CURVE SMOOTH"
);
}
);
width = 1469;
}
);
},
{
glyphname = "dotlesskaf-ar.fina";
lastChange = "2016-07-24 15:15:12 +0000";
layers = (
{
anchors = (
{
name = bottom;
position = "{775, -215}";
},
{
name = top;
position = "{721, 928}";
}
);
layerId = "93A312F7-B931-4485-B08E-C367313EB5E7";
paths = (
{
closed = 1;
nodes = (
"537 -32 OFFCURVE",
"722 -23 OFFCURVE",
"888 -5 CURVE SMOOTH",
"1098 18 OFFCURVE",
"1233 78 OFFCURVE",
"1279 206 CURVE",
"1323 78 OFFCURVE",
"1406 0 OFFCURVE",
"1564 0 CURVE SMOOTH",
"1699 0 LINE",
"1747 60 OFFCURVE",
"1747 119 OFFCURVE",
"1699 179 CURVE",
"1612 179 LINE SMOOTH",
"1512 179 OFFCURVE",
"1367 208 OFFCURVE",
"1366 308 CURVE SMOOTH",
"1348 1520 LINE SMOOTH",
"1348 1534 OFFCURVE",
"1340 1541 OFFCURVE",
"1327 1532 CURVE SMOOTH",
"1208 1449 LINE SMOOTH",
"1199 1442 OFFCURVE",
"1197 1439 OFFCURVE",
"1197 1428 CURVE SMOOTH",
"1229 683 OFFCURVE",
"1239 382 OFFCURVE",
"1220 261 CURVE SMOOTH",
"1218 250 OFFCURVE",
"1216 245 OFFCURVE",
"1205 241 CURVE SMOOTH",
"1015 174 OFFCURVE",
"506 143 OFFCURVE",
"193 222 CURVE SMOOTH",
"182 225 OFFCURVE",
"175 221 OFFCURVE",
"174 208 CURVE SMOOTH",
"163 28 OFFCURVE",
"198 7 OFFCURVE",
"370 -13 CURVE SMOOTH"
);
}
);
width = 1679;
},
{
anchors = (
{
name = bottom;
position = "{646, -216}";
},
{
name = top;
position = "{709, 929}";
}
);
layerId = "00FED3EE-B3F5-49E6-B91A-35FC52169726";
paths = (
{
closed = 1;
nodes = (
"435 -35 OFFCURVE",
"500 -37 OFFCURVE",
"566 -37 CURVE SMOOTH",
"855 -37 OFFCURVE",
"1162 6 OFFCURVE",
"1244 181 CURVE",
"1294 59 OFFCURVE",
"1382 0 OFFCURVE",
"1519 0 CURVE SMOOTH",
"1649 0 LINE",
"1676 32 OFFCURVE",
"1689 63 OFFCURVE",
"1689 96 CURVE SMOOTH",
"1689 128 OFFCURVE",
"1676 159 OFFCURVE",
"1649 191 CURVE",
"1565 191 LINE SMOOTH",
"1470 191 OFFCURVE",
"1339 217 OFFCURVE",
"1338 305 CURVE SMOOTH",
"1321 1456 LINE SMOOTH",
"1321 1472 OFFCURVE",
"1312 1481 OFFCURVE",
"1301 1481 CURVE SMOOTH",
"1296 1481 OFFCURVE",
"1291 1479 OFFCURVE",
"1285 1476 CURVE SMOOTH",
"1171 1396 LINE SMOOTH",
"1161 1388 OFFCURVE",
"1157 1382 OFFCURVE",
"1157 1372 CURVE SMOOTH",
"1157 1371 OFFCURVE",
"1157 1369 OFFCURVE",
"1157 1368 CURVE SMOOTH",
"1166 1049 OFFCURVE",
"1188 706 OFFCURVE",
"1188 470 CURVE SMOOTH",
"1188 379 OFFCURVE",
"1188 302 OFFCURVE",
"1179 257 CURVE SMOOTH",
"1177 248 OFFCURVE",
"1177 247 OFFCURVE",
"1171 245 CURVE SMOOTH",
"1066 209 OFFCURVE",
"857 154 OFFCURVE",
"643 154 CURVE SMOOTH",
"488 154 OFFCURVE",
"331 178 OFFCURVE",
"204 207 CURVE SMOOTH",
"188 211 OFFCURVE",
"175 203 OFFCURVE",
"175 185 CURVE SMOOTH",
"175 14 OFFCURVE",
"193 -5 OFFCURVE",
"372 -27 CURVE SMOOTH"
);
}
);
width = 1630;
}
);
userData = {
com.typemytype.robofont.guides = (
{
angle = 0;
isGlobal = 0;
x = "-180";
y = 1345;
}
);
};
},
{
glyphname = "kaf-ar.medi";
lastChange = "2016-07-24 15:15:23 +0000";
layers = (
{
anchors = (
{
name = bottom;
position = "{389, -171}";
},
{
name = top;
position = "{505, 1512}";
}
);
layerId = "93A312F7-B931-4485-B08E-C367313EB5E7";
paths = (
{
closed = 1;
nodes = (
"46 0 LINE SMOOTH",
"252 0 OFFCURVE",
"481 44 OFFCURVE",
"619 101 CURVE SMOOTH",
"637 108 OFFCURVE",
"653 117 OFFCURVE",
"696 193 CURVE SMOOTH",
"703 206 OFFCURVE",
"712 207 OFFCURVE",
"720 195 CURVE SMOOTH",
"827 38 OFFCURVE",
"926 0 OFFCURVE",
"1002 0 CURVE SMOOTH",
"1068 0 LINE",
"1116 60 OFFCURVE",
"1116 119 OFFCURVE",
"1068 179 CURVE",
"1002 179 LINE SMOOTH",
"873 179 OFFCURVE",
"814 224 OFFCURVE",
"751 347 CURVE SMOOTH",
"622 598 OFFCURVE",
"534 849 OFFCURVE",
"201 1057 CURVE SMOOTH",
"189 1065 OFFCURVE",
"190 1075 OFFCURVE",
"204 1080 CURVE SMOOTH",
"942 1310 LINE SMOOTH",
"951 1313 OFFCURVE",
"957 1318 OFFCURVE",
"958 1328 CURVE SMOOTH",
"976 1474 LINE SMOOTH",
"978 1487 OFFCURVE",
"971 1493 OFFCURVE",
"958 1489 CURVE SMOOTH",
"192 1236 LINE SMOOTH",
"183 1233 OFFCURVE",
"179 1229 OFFCURVE",
"175 1221 CURVE SMOOTH",
"54 969 LINE SMOOTH",
"50 961 OFFCURVE",
"53 951 OFFCURVE",
"62 946 CURVE SMOOTH",
"437 742 OFFCURVE",
"577 421 OFFCURVE",
"633 282 CURVE SMOOTH",
"637 273 OFFCURVE",
"633 264 OFFCURVE",
"623 260 CURVE SMOOTH",
"475 199 OFFCURVE",
"256 179 OFFCURVE",
"46 179 CURVE SMOOTH",
"-20 179 LINE SMOOTH",
"-138 179 OFFCURVE",
"-138 0 OFFCURVE",
"-20 0 CURVE SMOOTH"
);
}
);
width = 1048;
},
{
anchors = (
{
name = bottom;
position = "{373, -183}";
},
{
name = ring;
position = "{783, 1045}";
},
{
name = top;
position = "{542, 1576}";
}
);
layerId = "00FED3EE-B3F5-49E6-B91A-35FC52169726";
paths = (
{
closed = 1;
nodes = (
"44 0 LINE SMOOTH",
"243 0 OFFCURVE",
"465 42 OFFCURVE",
"598 98 CURVE SMOOTH",
"624 108 OFFCURVE",
"642 131 OFFCURVE",
"677 190 CURVE SMOOTH",
"680 195 OFFCURVE",
"681 195 OFFCURVE",
"684 191 CURVE SMOOTH",
"770 65 OFFCURVE",
"863 0 OFFCURVE",
"962 0 CURVE SMOOTH",
"1026 0 LINE",
"1053 32 OFFCURVE",
"1066 63 OFFCURVE",
"1066 96 CURVE SMOOTH",
"1066 128 OFFCURVE",
"1053 159 OFFCURVE",
"1026 191 CURVE",
"962 191 LINE SMOOTH",
"846 191 OFFCURVE",
"791 228 OFFCURVE",
"730 348 CURVE SMOOTH",
"606 588 OFFCURVE",
"520 831 OFFCURVE",
"198 1032 CURVE SMOOTH",
"195 1035 OFFCURVE",
"195 1036 OFFCURVE",
"199 1038 CURVE SMOOTH",
"907 1258 LINE SMOOTH",
"921 1262 OFFCURVE",
"928 1271 OFFCURVE",
"929 1284 CURVE SMOOTH",
"947 1424 LINE SMOOTH",
"948 1439 OFFCURVE",
"940 1451 OFFCURVE",
"926 1451 CURVE SMOOTH",
"924 1451 OFFCURVE",
"921 1450 OFFCURVE",
"917 1449 CURVE SMOOTH",
"181 1205 LINE SMOOTH",
"171 1202 OFFCURVE",
"164 1196 OFFCURVE",
"159 1186 CURVE SMOOTH",
"43 944 LINE SMOOTH",
"41 940 OFFCURVE",
"40 936 OFFCURVE",
"40 933 CURVE SMOOTH",
"40 924 OFFCURVE",
"46 915 OFFCURVE",
"55 909 CURVE SMOOTH",
"412 715 OFFCURVE",
"545 410 OFFCURVE",
"599 276 CURVE SMOOTH",
"601 273 OFFCURVE",
"599 270 OFFCURVE",
"594 268 CURVE SMOOTH",
"471 218 OFFCURVE",
"282 191 OFFCURVE",
"44 191 CURVE SMOOTH",
"-19 191 LINE SMOOTH",
"-83 191 OFFCURVE",
"-113 143 OFFCURVE",
"-113 96 CURVE SMOOTH",
"-113 48 OFFCURVE",
"-83 0 OFFCURVE",
"-19 0 CURVE SMOOTH"
);
}
);
width = 1007;
}
);
unicode = FEDC;
},
{
glyphname = "kaf-ar.init";
lastChange = "2016-07-24 15:15:22 +0000";
layers = (
{
anchors = (
{
name = bottom;
position = "{388, -171}";
},
{
name = top;
position = "{454, 1464}";
}
);
layerId = "93A312F7-B931-4485-B08E-C367313EB5E7";
paths = (
{
closed = 1;
nodes = (
"46 0 LINE SMOOTH",
"184 0 OFFCURVE",
"339 17 OFFCURVE",
"469 57 CURVE SMOOTH",
"633 110 OFFCURVE",
"726 197 OFFCURVE",
"705 377 CURVE SMOOTH",
"666 718 OFFCURVE",
"369 958 OFFCURVE",
"170 1059 CURVE SMOOTH",
"156 1066 OFFCURVE",
"158 1076 OFFCURVE",
"173 1081 CURVE SMOOTH",
"827 1287 LINE SMOOTH",
"836 1290 OFFCURVE",
"842 1295 OFFCURVE",
"843 1305 CURVE SMOOTH",
"861 1450 LINE SMOOTH",
"863 1463 OFFCURVE",
"856 1470 OFFCURVE",
"843 1466 CURVE SMOOTH",
"158 1236 LINE SMOOTH",
"148 1233 OFFCURVE",
"144 1229 OFFCURVE",
"140 1221 CURVE SMOOTH",
"21 971 LINE SMOOTH",
"16 961 OFFCURVE",
"20 953 OFFCURVE",
"29 948 CURVE SMOOTH",
"407 743 OFFCURVE",
"573 453 OFFCURVE",
"619 298 CURVE SMOOTH",
"622 288 OFFCURVE",
"619 281 OFFCURVE",
"610 276 CURVE SMOOTH",
"438 191 OFFCURVE",
"247 179 OFFCURVE",
"46 179 CURVE SMOOTH",
"-20 179 LINE SMOOTH",
"-138 179 OFFCURVE",
"-138 0 OFFCURVE",
"-20 0 CURVE SMOOTH"
);
}
);
width = 846;
},
{
anchors = (
{
name = bottom;
position = "{334, -193}";
},
{
name = ring;
position = "{689, 1026}";
},
{
name = top;
position = "{455, 1569}";
}
);
layerId = "00FED3EE-B3F5-49E6-B91A-35FC52169726";
paths = (
{
closed = 1;
nodes = (
"44 0 LINE SMOOTH",
"364 0 OFFCURVE",
"689 67 OFFCURVE",
"689 324 CURVE SMOOTH",
"689 618 OFFCURVE",
"432 900 OFFCURVE",
"168 1035 CURVE SMOOTH",
"165 1036 OFFCURVE",
"165 1037 OFFCURVE",
"169 1039 CURVE SMOOTH",
"797 1236 LINE SMOOTH",
"810 1240 OFFCURVE",
"818 1249 OFFCURVE",
"819 1261 CURVE SMOOTH",
"836 1401 LINE SMOOTH",
"838 1417 OFFCURVE",
"829 1429 OFFCURVE",
"815 1428 CURVE",
"149 1205 LINE",
"137 1201 OFFCURVE",
"132 1196 OFFCURVE",
"126 1186 CURVE",
"9 933 LINE",
"8 924 OFFCURVE",
"13 917 OFFCURVE",
"23 911 CURVE SMOOTH",
"384 716 OFFCURVE",
"541 441 OFFCURVE",
"585 293 CURVE SMOOTH",
"587 288 OFFCURVE",
"586 285 OFFCURVE",
"581 283 CURVE SMOOTH",
"418 203 OFFCURVE",
"237 191 OFFCURVE",
"44 191 CURVE SMOOTH",
"-19 191 LINE SMOOTH",
"-83 191 OFFCURVE",
"-113 143 OFFCURVE",
"-113 96 CURVE SMOOTH",
"-113 48 OFFCURVE",
"-83 0 OFFCURVE",
"-19 0 CURVE SMOOTH"
);
}
);
width = 826;
}
);
leftKerningGroup = k;
unicode = FEDB;
},
{
glyphname = "keheh-ar";
lastChange = "2016-07-24 15:15:19 +0000";
layers = (
{
anchors = (
{
name = bottom;
position = "{785, -202}";
},
{
name = top;
position = "{603, 1081}";
}
);
layerId = "93A312F7-B931-4485-B08E-C367313EB5E7";
paths = (
{
closed = 1;
nodes = (
"1025 -39 OFFCURVE",
"1349 46 OFFCURVE",
"1494 110 CURVE SMOOTH",
"1497 111 OFFCURVE",
"1499 116 OFFCURVE",
"1503 124 CURVE SMOOTH",
"1539 202 OFFCURVE",
"1572 315 OFFCURVE",
"1564 373 CURVE SMOOTH",
"1525 647 OFFCURVE",
"1243 952 OFFCURVE",
"1044 1058 CURVE SMOOTH",
"1030 1066 OFFCURVE",
"1033 1077 OFFCURVE",
"1047 1081 CURVE SMOOTH",
"1702 1287 LINE SMOOTH",
"1711 1290 OFFCURVE",
"1717 1295 OFFCURVE",
"1718 1305 CURVE SMOOTH",
"1736 1450 LINE SMOOTH",
"1738 1463 OFFCURVE",
"1731 1470 OFFCURVE",
"1718 1466 CURVE SMOOTH",
"1033 1236 LINE SMOOTH",
"1023 1233 OFFCURVE",
"1019 1229 OFFCURVE",
"1015 1221 CURVE SMOOTH",
"895 969 LINE SMOOTH",
"891 960 OFFCURVE",
"893 951 OFFCURVE",
"903 946 CURVE SMOOTH",
"1281 742 OFFCURVE",
"1432 450 OFFCURVE",
"1478 293 CURVE SMOOTH",
"1481 283 OFFCURVE",
"1478 277 OFFCURVE",
"1467 273 CURVE SMOOTH",
"1346 223 OFFCURVE",
"1067 150 OFFCURVE",
"750 155 CURVE SMOOTH",
"480 160 OFFCURVE",
"256 235 OFFCURVE",
"279 466 CURVE SMOOTH",
"293 607 LINE SMOOTH",
"294 618 OFFCURVE",
"288 625 OFFCURVE",
"277 626 CURVE SMOOTH",
"214 631 LINE SMOOTH",
"204 632 OFFCURVE",
"195 626 OFFCURVE",
"194 615 CURVE SMOOTH",
"178 466 LINE SMOOTH",
"141 117 OFFCURVE",
"301 -20 OFFCURVE",
"666 -30 CURVE SMOOTH"
);
}
);
width = 1703;
},
{
anchors = (
{
name = bottom;
position = "{770, -223}";
},
{
name = ring;
position = "{1525, 1021}";
},
{
name = top;
position = "{586, 1057}";
}
);
layerId = "00FED3EE-B3F5-49E6-B91A-35FC52169726";
paths = (
{
closed = 1;
nodes = (
"173 58 OFFCURVE",
"367 -38 OFFCURVE",
"706 -38 CURVE SMOOTH",
"1031 -38 OFFCURVE",
"1321 48 OFFCURVE",
"1454 107 CURVE SMOOTH",
"1459 108 OFFCURVE",
"1463 113 OFFCURVE",
"1468 125 CURVE SMOOTH",
"1499 192 OFFCURVE",
"1528 289 OFFCURVE",
"1528 349 CURVE SMOOTH",
"1528 572 OFFCURVE",
"1236 921 OFFCURVE",
"1023 1034 CURVE SMOOTH",
"1020 1036 OFFCURVE",
"1020 1037 OFFCURVE",
"1024 1038 CURVE SMOOTH",
"1653 1236 LINE SMOOTH",
"1667 1240 OFFCURVE",
"1674 1249 OFFCURVE",
"1675 1261 CURVE SMOOTH",
"1692 1401 LINE SMOOTH",
"1694 1417 OFFCURVE",
"1686 1429 OFFCURVE",
"1671 1428 CURVE",
"1005 1205 LINE",
"994 1201 OFFCURVE",
"988 1196 OFFCURVE",
"982 1186 CURVE",
"864 931 LINE",
"862 922 OFFCURVE",
"869 915 OFFCURVE",
"879 909 CURVE SMOOTH",
"1239 715 OFFCURVE",
"1382 438 OFFCURVE",
"1426 288 CURVE SMOOTH",
"1428 283 OFFCURVE",
"1428 283 OFFCURVE",
"1422 280 CURVE SMOOTH",
"1309 235 OFFCURVE",
"1057 153 OFFCURVE",
"766 153 CURVE SMOOTH",
"518 153 OFFCURVE",
"292 215 OFFCURVE",
"292 419 CURVE SMOOTH",
"292 427 OFFCURVE",
"290 448 OFFCURVE",
"307 585 CURVE SMOOTH",
"309 600 OFFCURVE",
"299 612 OFFCURVE",
"283 613 CURVE SMOOTH",
"223 618 LINE SMOOTH",
"207 619 OFFCURVE",
"195 610 OFFCURVE",
"193 594 CURVE SMOOTH",
"173 429 OFFCURVE",
"173 407 OFFCURVE",
"173 360 CURVE SMOOTH"
);
}
);
width = 1664;
}
);
leftKerningGroup = k;
unicode = 06A9;
},
{
glyphname = "keheh-ar.fina";
lastChange = "2016-07-24 15:15:44 +0000";
layers = (
{
anchors = (
{
name = bottom;
position = "{785, -202}";
},
{
name = top;
position = "{624, 1202}";
}
);
layerId = "93A312F7-B931-4485-B08E-C367313EB5E7";
paths = (
{
closed = 1;
nodes = (
"979 -38 OFFCURVE",
"1304 21 OFFCURVE",
"1465 87 CURVE SMOOTH",
"1485 95 OFFCURVE",
"1498 113 OFFCURVE",
"1548 210 CURVE",
"1659 37 OFFCURVE",
"1763 0 OFFCURVE",
"1842 0 CURVE SMOOTH",
"1899 0 LINE",
"1947 60 OFFCURVE",
"1947 119 OFFCURVE",
"1899 179 CURVE",
"1842 179 LINE SMOOTH",
"1713 179 OFFCURVE",
"1655 220 OFFCURVE",
"1592 343 CURVE SMOOTH",
"1459 599 OFFCURVE",
"1370 861 OFFCURVE",
"1018 1072 CURVE",
"1782 1310 LINE SMOOTH",
"1792 1313 OFFCURVE",
"1798 1318 OFFCURVE",
"1799 1328 CURVE SMOOTH",
"1817 1474 LINE SMOOTH",
"1819 1487 OFFCURVE",
"1811 1493 OFFCURVE",
"1799 1489 CURVE SMOOTH",
"1033 1236 LINE SMOOTH",
"1023 1233 OFFCURVE",
"1019 1229 OFFCURVE",
"1015 1221 CURVE SMOOTH",
"895 969 LINE SMOOTH",
"891 960 OFFCURVE",
"894 951 OFFCURVE",
"903 946 CURVE SMOOTH",
"1293 734 OFFCURVE",
"1428 392 OFFCURVE",
"1479 262 CURVE",
"1347 214 OFFCURVE",
"1081 150 OFFCURVE",
"750 155 CURVE SMOOTH",
"480 160 OFFCURVE",
"256 235 OFFCURVE",
"279 466 CURVE SMOOTH",
"293 607 LINE SMOOTH",
"294 618 OFFCURVE",
"288 625 OFFCURVE",
"277 626 CURVE SMOOTH",
"214 631 LINE SMOOTH",
"204 632 OFFCURVE",
"195 626 OFFCURVE",
"194 615 CURVE SMOOTH",
"178 466 LINE SMOOTH",
"141 117 OFFCURVE",
"301 -20 OFFCURVE",
"666 -30 CURVE SMOOTH"
);
}
);
width = 1879;
},
{
anchors = (
{
name = bottom;
position = "{770, -184}";
},
{
name = ring;
position = "{1615, 1045}";
},
{
name = top;
position = "{605, 1152}";
}
);
layerId = "00FED3EE-B3F5-49E6-B91A-35FC52169726";
paths = (
{
closed = 1;
nodes = (
"173 52 OFFCURVE",
"372 -39 OFFCURVE",
"711 -39 CURVE SMOOTH",
"996 -39 OFFCURVE",
"1281 24 OFFCURVE",
"1427 84 CURVE SMOOTH",
"1448 93 OFFCURVE",
"1462 112 OFFCURVE",
"1503 192 CURVE",
"1589 64 OFFCURVE",
"1682 0 OFFCURVE",
"1785 0 CURVE SMOOTH",
"1840 0 LINE",
"1867 32 OFFCURVE",
"1880 63 OFFCURVE",
"1880 96 CURVE SMOOTH",
"1880 128 OFFCURVE",
"1867 159 OFFCURVE",
"1840 191 CURVE",
"1785 191 LINE SMOOTH",
"1667 191 OFFCURVE",
"1613 226 OFFCURVE",
"1553 344 CURVE SMOOTH",
"1428 584 OFFCURVE",
"1343 833 OFFCURVE",
"1017 1036 CURVE",
"1730 1258 LINE SMOOTH",
"1743 1262 OFFCURVE",
"1752 1271 OFFCURVE",
"1753 1284 CURVE SMOOTH",
"1770 1424 LINE SMOOTH",
"1772 1439 OFFCURVE",
"1764 1451 OFFCURVE",
"1751 1450 CURVE",
"1005 1205 LINE",
"994 1202 OFFCURVE",
"988 1196 OFFCURVE",
"982 1186 CURVE",
"864 932 LINE",
"862 924 OFFCURVE",
"870 915 OFFCURVE",
"878 909 CURVE SMOOTH",
"1241 712 OFFCURVE",
"1372 397 OFFCURVE",
"1424 267 CURVE",
"1299 224 OFFCURVE",
"1065 153 OFFCURVE",
"772 153 CURVE SMOOTH",
"522 153 OFFCURVE",
"292 211 OFFCURVE",
"292 418 CURVE SMOOTH",
"292 426 OFFCURVE",
"293 436 OFFCURVE",
"307 586 CURVE SMOOTH",
"309 601 OFFCURVE",
"299 613 OFFCURVE",
"283 614 CURVE SMOOTH",
"223 619 LINE SMOOTH",
"207 620 OFFCURVE",
"195 611 OFFCURVE",
"193 595 CURVE SMOOTH",
"173 430 OFFCURVE",
"173 406 OFFCURVE",
"173 359 CURVE SMOOTH"
);
}
);
width = 1821;
}
);
unicode = FB8F;
},
{
glyphname = "gaf-ar";
lastChange = "2016-07-24 15:15:47 +0000";
layers = (
{
anchors = (
{
name = bottom;
position = "{785, -202}";
},
{
name = top;
position = "{635, 1212}";
}
);
layerId = "93A312F7-B931-4485-B08E-C367313EB5E7";
paths = (
{
closed = 1;
nodes = (
"1025 -39 OFFCURVE",
"1349 46 OFFCURVE",
"1494 110 CURVE SMOOTH",
"1497 111 OFFCURVE",
"1499 116 OFFCURVE",
"1503 124 CURVE SMOOTH",
"1539 202 OFFCURVE",
"1572 315 OFFCURVE",
"1564 373 CURVE SMOOTH",
"1525 647 OFFCURVE",
"1243 952 OFFCURVE",
"1044 1058 CURVE SMOOTH",
"1030 1066 OFFCURVE",
"1033 1077 OFFCURVE",
"1047 1081 CURVE SMOOTH",
"1702 1287 LINE SMOOTH",
"1711 1290 OFFCURVE",
"1717 1295 OFFCURVE",
"1718 1305 CURVE SMOOTH",
"1736 1450 LINE SMOOTH",
"1738 1463 OFFCURVE",
"1731 1470 OFFCURVE",
"1718 1466 CURVE SMOOTH",
"1033 1236 LINE SMOOTH",
"1023 1233 OFFCURVE",
"1019 1229 OFFCURVE",
"1015 1221 CURVE SMOOTH",
"895 969 LINE SMOOTH",
"891 960 OFFCURVE",
"893 951 OFFCURVE",
"903 946 CURVE SMOOTH",
"1281 742 OFFCURVE",
"1432 450 OFFCURVE",
"1478 293 CURVE SMOOTH",
"1481 283 OFFCURVE",
"1478 277 OFFCURVE",
"1467 273 CURVE SMOOTH",
"1346 223 OFFCURVE",
"1067 150 OFFCURVE",
"750 155 CURVE SMOOTH",
"480 160 OFFCURVE",
"256 235 OFFCURVE",
"279 466 CURVE SMOOTH",
"293 607 LINE SMOOTH",
"294 618 OFFCURVE",
"288 625 OFFCURVE",
"277 626 CURVE SMOOTH",
"214 631 LINE SMOOTH",
"204 632 OFFCURVE",
"195 626 OFFCURVE",
"194 615 CURVE SMOOTH",
"178 466 LINE SMOOTH",
"141 117 OFFCURVE",
"301 -20 OFFCURVE",
"666 -30 CURVE SMOOTH"
);
},
{
closed = 1;
nodes = (
"1569 1576 LINE SMOOTH",
"1578 1579 OFFCURVE",
"1583 1585 OFFCURVE",
"1585 1593 CURVE SMOOTH",
"1605 1670 LINE SMOOTH",
"1608 1683 OFFCURVE",
"1601 1690 OFFCURVE",
"1588 1686 CURVE SMOOTH",
"1156 1547 LINE SMOOTH",
"1147 1544 OFFCURVE",
"1143 1541 OFFCURVE",
"1139 1532 CURVE SMOOTH",
"1102 1448 LINE SMOOTH",
"1096 1434 OFFCURVE",
"1103 1426 OFFCURVE",
"1117 1431 CURVE SMOOTH"
);
}
);
width = 1703;
},
{
anchors = (
{
name = bottom;
position = "{770, -223}";
},
{
name = top;
position = "{586, 1133}";
}
);
layerId = "00FED3EE-B3F5-49E6-B91A-35FC52169726";
paths = (
{
closed = 1;
nodes = (
"367 -38 OFFCURVE",
"706 -38 CURVE SMOOTH",
"1031 -38 OFFCURVE",
"1321 48 OFFCURVE",
"1454 107 CURVE SMOOTH",
"1459 108 OFFCURVE",
"1463 112 OFFCURVE",
"1468 125 CURVE SMOOTH",
"1499 192 OFFCURVE",
"1528 289 OFFCURVE",
"1528 349 CURVE SMOOTH",
"1528 572 OFFCURVE",
"1236 921 OFFCURVE",
"1023 1034 CURVE SMOOTH",
"1020 1036 OFFCURVE",
"1020 1037 OFFCURVE",
"1024 1038 CURVE SMOOTH",
"1653 1236 LINE SMOOTH",
"1667 1240 OFFCURVE",
"1674 1249 OFFCURVE",
"1675 1261 CURVE SMOOTH",
"1692 1401 LINE SMOOTH",
"1694 1417 OFFCURVE",
"1686 1428 OFFCURVE",
"1671 1428 CURVE",
"1005 1205 LINE",
"994 1202 OFFCURVE",
"988 1196 OFFCURVE",
"982 1186 CURVE",
"864 931 LINE",
"863 921 OFFCURVE",
"869 914 OFFCURVE",
"879 909 CURVE SMOOTH",
"1239 715 OFFCURVE",
"1382 438 OFFCURVE",
"1426 288 CURVE SMOOTH",
"1428 283 OFFCURVE",
"1428 283 OFFCURVE",
"1422 280 CURVE SMOOTH",
"1309 235 OFFCURVE",
"1057 153 OFFCURVE",
"766 153 CURVE SMOOTH",
"518 153 OFFCURVE",
"292 215 OFFCURVE",
"292 419 CURVE SMOOTH",
"292 427 OFFCURVE",
"292 436 OFFCURVE",
"307 586 CURVE SMOOTH",
"309 601 OFFCURVE",
"299 613 OFFCURVE",
"283 614 CURVE SMOOTH",
"223 619 LINE SMOOTH",
"207 620 OFFCURVE",
"195 611 OFFCURVE",
"193 595 CURVE SMOOTH",
"175 430 OFFCURVE",
"173 407 OFFCURVE",
"173 360 CURVE SMOOTH",
"173 58 OFFCURVE"
);
},
{
closed = 1;
nodes = (
"1525 1513 LINE",
"1537 1517 OFFCURVE",
"1545 1525 OFFCURVE",
"1548 1537 CURVE SMOOTH",
"1567 1610 LINE SMOOTH",
"1571 1627 OFFCURVE",
"1561 1639 OFFCURVE",
"1547 1639 CURVE",
"1123 1504 LINE",
"1112 1500 OFFCURVE",
"1106 1495 OFFCURVE",
"1101 1484 CURVE",
"1063 1391 LINE",
"1062 1380 OFFCURVE",
"1069 1373 OFFCURVE",
"1081 1373 CURVE"
);
}
);
width = 1664;
}
);
leftKerningGroup = k;
unicode = 06AF;
},
{
glyphname = "gaf-ar.fina";
lastChange = "2016-07-24 15:15:49 +0000";
layers = (
{
anchors = (
{
name = bottom;
position = "{785, -202}";
},
{
name = top;
position = "{598, 1218}";
}
);
layerId = "93A312F7-B931-4485-B08E-C367313EB5E7";
paths = (
{
closed = 1;
nodes = (
"917 -37 OFFCURVE",
"1176 0 OFFCURVE",
"1352 49 CURVE SMOOTH",
"1480 84 OFFCURVE",
"1489 117 OFFCURVE",
"1536 187 CURVE SMOOTH",
"1546 201 OFFCURVE",
"1554 202 OFFCURVE",
"1562 190 CURVE SMOOTH",
"1667 33 OFFCURVE",
"1766 0 OFFCURVE",
"1842 0 CURVE SMOOTH",
"1899 0 LINE",
"1947 60 OFFCURVE",
"1947 119 OFFCURVE",
"1899 179 CURVE",
"1842 179 LINE SMOOTH",
"1713 179 OFFCURVE",
"1655 220 OFFCURVE",
"1592 343 CURVE SMOOTH",
"1463 593 OFFCURVE",
"1374 849 OFFCURVE",
"1042 1057 CURVE SMOOTH",
"1029 1065 OFFCURVE",
"1030 1076 OFFCURVE",
"1044 1080 CURVE SMOOTH",
"1782 1310 LINE SMOOTH",
"1792 1313 OFFCURVE",
"1798 1318 OFFCURVE",
"1799 1328 CURVE SMOOTH",
"1817 1474 LINE SMOOTH",
"1819 1487 OFFCURVE",
"1811 1493 OFFCURVE",
"1799 1489 CURVE SMOOTH",
"1033 1236 LINE SMOOTH",
"1023 1233 OFFCURVE",
"1019 1229 OFFCURVE",
"1015 1221 CURVE SMOOTH",
"895 969 LINE SMOOTH",
"891 960 OFFCURVE",
"894 951 OFFCURVE",
"903 946 CURVE SMOOTH",
"1278 742 OFFCURVE",
"1418 417 OFFCURVE",
"1473 278 CURVE SMOOTH",
"1477 268 OFFCURVE",
"1473 259 OFFCURVE",
"1463 256 CURVE SMOOTH",
"1326 209 OFFCURVE",
"1068 150 OFFCURVE",
"750 155 CURVE SMOOTH",
"480 160 OFFCURVE",
"256 235 OFFCURVE",
"279 466 CURVE SMOOTH",
"293 607 LINE SMOOTH",
"294 618 OFFCURVE",
"288 625 OFFCURVE",
"277 626 CURVE SMOOTH",
"214 631 LINE SMOOTH",
"204 632 OFFCURVE",
"195 626 OFFCURVE",
"194 615 CURVE SMOOTH",
"178 466 LINE SMOOTH",
"141 117 OFFCURVE",
"301 -20 OFFCURVE",
"666 -30 CURVE SMOOTH"
);
},
{
closed = 1;
nodes = (
"1649 1599 LINE SMOOTH",
"1658 1602 OFFCURVE",
"1663 1608 OFFCURVE",
"1665 1616 CURVE SMOOTH",
"1686 1693 LINE SMOOTH",
"1690 1706 OFFCURVE",
"1681 1713 OFFCURVE",
"1669 1709 CURVE SMOOTH",
"1156 1547 LINE SMOOTH",
"1148 1544 OFFCURVE",
"1143 1541 OFFCURVE",
"1139 1532 CURVE SMOOTH",
"1102 1447 LINE SMOOTH",
"1096 1433 OFFCURVE",
"1103 1425 OFFCURVE",
"1117 1430 CURVE SMOOTH"
);
}
);
width = 1879;
},
{
anchors = (
{
name = bottom;
position = "{770, -223}";
},
{
name = top;
position = "{581, 1133}";
}
);
layerId = "00FED3EE-B3F5-49E6-B91A-35FC52169726";
paths = (
{
closed = 1;
nodes = (
"173 51 OFFCURVE",
"373 -38 OFFCURVE",
"715 -38 CURVE SMOOTH",
"938 -38 OFFCURVE",
"1162 4 OFFCURVE",
"1317 47 CURVE SMOOTH",
"1445 83 OFFCURVE",
"1454 118 OFFCURVE",
"1499 183 CURVE SMOOTH",
"1500 185 OFFCURVE",
"1503 191 OFFCURVE",
"1508 186 CURVE SMOOTH",
"1591 62 OFFCURVE",
"1683 0 OFFCURVE",
"1785 0 CURVE SMOOTH",
"1840 0 LINE",
"1867 32 OFFCURVE",
"1880 63 OFFCURVE",
"1880 96 CURVE SMOOTH",
"1880 128 OFFCURVE",
"1867 159 OFFCURVE",
"1840 191 CURVE",
"1785 191 LINE SMOOTH",
"1667 191 OFFCURVE",
"1613 226 OFFCURVE",
"1553 344 CURVE SMOOTH",
"1429 583 OFFCURVE",
"1343 831 OFFCURVE",
"1021 1032 CURVE SMOOTH",
"1018 1035 OFFCURVE",
"1018 1036 OFFCURVE",
"1021 1037 CURVE SMOOTH",
"1730 1258 LINE SMOOTH",
"1743 1262 OFFCURVE",
"1752 1271 OFFCURVE",
"1753 1284 CURVE SMOOTH",
"1770 1424 LINE SMOOTH",
"1772 1439 OFFCURVE",
"1764 1450 OFFCURVE",
"1751 1450 CURVE",
"1005 1205 LINE",
"994 1202 OFFCURVE",
"988 1196 OFFCURVE",
"982 1186 CURVE",
"864 932 LINE",
"862 922 OFFCURVE",
"870 915 OFFCURVE",
"878 909 CURVE SMOOTH",
"1236 715 OFFCURVE",
"1369 406 OFFCURVE",
"1422 273 CURVE SMOOTH",
"1424 269 OFFCURVE",
"1422 266 OFFCURVE",
"1418 265 CURVE SMOOTH",
"1291 222 OFFCURVE",
"1060 153 OFFCURVE",
"773 153 CURVE SMOOTH",
"522 153 OFFCURVE",
"292 212 OFFCURVE",
"292 419 CURVE SMOOTH",
"292 427 OFFCURVE",
"292 436 OFFCURVE",
"307 586 CURVE SMOOTH",
"309 601 OFFCURVE",
"299 613 OFFCURVE",
"283 614 CURVE SMOOTH",
"223 619 LINE SMOOTH",
"207 620 OFFCURVE",
"195 611 OFFCURVE",
"193 595 CURVE SMOOTH",
"175 430 OFFCURVE",
"173 407 OFFCURVE",
"173 360 CURVE SMOOTH"
);
},
{
closed = 1;
nodes = (
"1602 1535 LINE",
"1614 1539 OFFCURVE",
"1621 1548 OFFCURVE",
"1624 1559 CURVE",
"1645 1641 LINE",
"1645 1652 OFFCURVE",
"1637 1662 OFFCURVE",
"1625 1661 CURVE",
"1123 1504 LINE",
"1112 1500 OFFCURVE",
"1106 1495 OFFCURVE",
"1101 1484 CURVE",
"1063 1390 LINE",
"1063 1380 OFFCURVE",
"1069 1372 OFFCURVE",
"1081 1372 CURVE"
);
}
);
width = 1821;
}
);
unicode = FB93;
},
{
glyphname = "gaf-ar.medi";
lastChange = "2016-07-24 15:15:51 +0000";
layers = (
{
anchors = (
{
name = bottom;
position = "{389, -171}";
},
{
name = top;
position = "{550, 1679}";
}
);
layerId = "93A312F7-B931-4485-B08E-C367313EB5E7";
paths = (
{
closed = 1;
nodes = (
"46 0 LINE SMOOTH",
"231 0 OFFCURVE",
"434 36 OFFCURVE",
"573 84 CURVE SMOOTH",
"653 112 OFFCURVE",
"657 118 OFFCURVE",
"707 215 CURVE",
"819 41 OFFCURVE",
"922 0 OFFCURVE",
"1002 0 CURVE SMOOTH",
"1058 0 LINE",
"1106 60 OFFCURVE",
"1106 119 OFFCURVE",
"1058 179 CURVE",
"1002 179 LINE SMOOTH",
"873 179 OFFCURVE",
"814 224 OFFCURVE",
"751 347 CURVE SMOOTH",
"619 604 OFFCURVE",
"529 861 OFFCURVE",
"177 1072 CURVE",
"942 1310 LINE SMOOTH",
"951 1313 OFFCURVE",
"957 1318 OFFCURVE",
"958 1328 CURVE SMOOTH",
"976 1474 LINE SMOOTH",
"978 1487 OFFCURVE",
"971 1493 OFFCURVE",
"958 1489 CURVE SMOOTH",
"192 1236 LINE SMOOTH",
"183 1233 OFFCURVE",
"179 1229 OFFCURVE",
"175 1221 CURVE SMOOTH",
"54 969 LINE SMOOTH",
"50 961 OFFCURVE",
"53 951 OFFCURVE",
"62 946 CURVE SMOOTH",
"452 734 OFFCURVE",
"588 397 OFFCURVE",
"638 267 CURVE",
"491 200 OFFCURVE",
"263 179 OFFCURVE",
"46 179 CURVE SMOOTH",
"-20 179 LINE SMOOTH",
"-138 179 OFFCURVE",
"-138 0 OFFCURVE",
"-20 0 CURVE SMOOTH"
);
},
{
closed = 1;
nodes = (
"808 1599 LINE SMOOTH",
"818 1602 OFFCURVE",
"823 1608 OFFCURVE",
"825 1616 CURVE SMOOTH",
"845 1693 LINE SMOOTH",
"848 1706 OFFCURVE",
"841 1713 OFFCURVE",
"828 1709 CURVE SMOOTH",
"315 1547 LINE SMOOTH",
"307 1544 OFFCURVE",
"302 1541 OFFCURVE",
"298 1532 CURVE SMOOTH",
"261 1447 LINE SMOOTH",
"255 1433 OFFCURVE",
"262 1425 OFFCURVE",
"276 1430 CURVE SMOOTH"
);
}
);
width = 1038;
},
{
anchors = (
{
name = bottom;
position = "{373, -184}";
},
{
name = top;
position = "{518, 1797}";
}
);
layerId = "00FED3EE-B3F5-49E6-B91A-35FC52169726";
paths = (
{
closed = 1;
nodes = (
"44 0 LINE SMOOTH",
"223 0 OFFCURVE",
"420 35 OFFCURVE",
"553 82 CURVE SMOOTH",
"627 107 OFFCURVE",
"636 114 OFFCURVE",
"680 197 CURVE",
"767 66 OFFCURVE",
"861 0 OFFCURVE",
"962 0 CURVE SMOOTH",
"1017 0 LINE",
"1044 32 OFFCURVE",
"1056 63 OFFCURVE",
"1056 96 CURVE SMOOTH",
"1056 128 OFFCURVE",
"1044 159 OFFCURVE",
"1017 191 CURVE",
"962 191 LINE SMOOTH",
"846 191 OFFCURVE",
"791 228 OFFCURVE",
"730 348 CURVE SMOOTH",
"607 587 OFFCURVE",
"519 831 OFFCURVE",
"200 1033 CURVE SMOOTH",
"197 1035 OFFCURVE",
"197 1036 OFFCURVE",
"200 1037 CURVE SMOOTH",
"907 1258 LINE SMOOTH",
"921 1262 OFFCURVE",
"928 1271 OFFCURVE",
"929 1284 CURVE SMOOTH",
"947 1424 LINE SMOOTH",
"948 1439 OFFCURVE",
"940 1451 OFFCURVE",
"926 1451 CURVE",
"181 1205 LINE",
"171 1202 OFFCURVE",
"164 1196 OFFCURVE",
"159 1186 CURVE",
"40 933 LINE",
"40 924 OFFCURVE",
"46 915 OFFCURVE",
"55 909 CURVE SMOOTH",
"419 712 OFFCURVE",
"550 401 OFFCURVE",
"600 271 CURVE",
"479 219 OFFCURVE",
"288 191 OFFCURVE",
"44 191 CURVE SMOOTH",
"-19 191 LINE SMOOTH",
"-83 191 OFFCURVE",
"-113 143 OFFCURVE",
"-113 96 CURVE SMOOTH",
"-113 48 OFFCURVE",
"-83 0 OFFCURVE",
"-19 0 CURVE SMOOTH"
);
},
{
closed = 1;
nodes = (
"779 1535 LINE",
"790 1539 OFFCURVE",
"799 1548 OFFCURVE",
"802 1559 CURVE SMOOTH",
"821 1632 LINE SMOOTH",
"825 1649 OFFCURVE",
"815 1661 OFFCURVE",
"801 1661 CURVE",
"300 1504 LINE",
"288 1500 OFFCURVE",
"282 1495 OFFCURVE",
"277 1484 CURVE",
"239 1390 LINE",
"239 1380 OFFCURVE",
"246 1372 OFFCURVE",
"257 1372 CURVE"
);
}
);
width = 997;
}
);
unicode = FB95;
},
{
glyphname = "gaf-ar.init";
lastChange = "2016-07-24 15:15:52 +0000";
layers = (
{
anchors = (
{
name = bottom;
position = "{388, -171}";
},
{
name = top;
position = "{425, 1723}";
}
);
layerId = "93A312F7-B931-4485-B08E-C367313EB5E7";
paths = (
{
closed = 1;
nodes = (
"46 0 LINE SMOOTH",
"248 0 OFFCURVE",
"489 38 OFFCURVE",
"630 129 CURVE SMOOTH",
"637 133 OFFCURVE",
"640 138 OFFCURVE",
"644 146 CURVE SMOOTH",
"680 223 OFFCURVE",
"712 320 OFFCURVE",
"705 377 CURVE SMOOTH",
"666 718 OFFCURVE",
"369 958 OFFCURVE",
"170 1059 CURVE SMOOTH",
"156 1066 OFFCURVE",
"158 1076 OFFCURVE",
"173 1081 CURVE SMOOTH",
"827 1287 LINE SMOOTH",
"836 1290 OFFCURVE",
"842 1295 OFFCURVE",
"843 1305 CURVE SMOOTH",
"861 1450 LINE SMOOTH",
"863 1463 OFFCURVE",
"856 1470 OFFCURVE",
"843 1466 CURVE SMOOTH",
"158 1236 LINE SMOOTH",
"148 1233 OFFCURVE",
"144 1229 OFFCURVE",
"140 1221 CURVE SMOOTH",
"21 971 LINE SMOOTH",
"16 961 OFFCURVE",
"20 953 OFFCURVE",
"29 948 CURVE SMOOTH",
"407 743 OFFCURVE",
"573 453 OFFCURVE",
"619 298 CURVE SMOOTH",
"622 288 OFFCURVE",
"619 281 OFFCURVE",
"610 276 CURVE SMOOTH",
"438 191 OFFCURVE",
"247 179 OFFCURVE",
"46 179 CURVE SMOOTH",
"-20 179 LINE SMOOTH",
"-138 179 OFFCURVE",
"-138 0 OFFCURVE",
"-20 0 CURVE SMOOTH"
);
},
{
closed = 1;
nodes = (
"693 1576 LINE SMOOTH",
"703 1579 OFFCURVE",
"707 1585 OFFCURVE",
"710 1593 CURVE SMOOTH",
"730 1670 LINE SMOOTH",
"733 1683 OFFCURVE",
"726 1690 OFFCURVE",
"713 1686 CURVE SMOOTH",
"281 1547 LINE SMOOTH",
"271 1544 OFFCURVE",
"267 1541 OFFCURVE",
"263 1532 CURVE SMOOTH",
"227 1448 LINE SMOOTH",
"221 1434 OFFCURVE",
"228 1427 OFFCURVE",
"241 1431 CURVE SMOOTH"
);
}
);
width = 892;
},
{
anchors = (
{
name = bottom;
position = "{372, -183}";
},
{
name = top;
position = "{466, 1798}";
}
);
layerId = "00FED3EE-B3F5-49E6-B91A-35FC52169726";
paths = (
{
closed = 1;
nodes = (
"44 0 LINE SMOOTH",
"239 0 OFFCURVE",
"473 36 OFFCURVE",
"610 126 CURVE SMOOTH",
"616 130 OFFCURVE",
"621 134 OFFCURVE",
"627 146 CURVE SMOOTH",
"659 213 OFFCURVE",
"687 299 OFFCURVE",
"687 356 CURVE SMOOTH",
"687 625 OFFCURVE",
"411 910 OFFCURVE",
"168 1035 CURVE SMOOTH",
"165 1036 OFFCURVE",
"165 1037 OFFCURVE",
"169 1039 CURVE SMOOTH",
"797 1236 LINE SMOOTH",
"810 1240 OFFCURVE",
"818 1249 OFFCURVE",
"819 1261 CURVE SMOOTH",
"836 1401 LINE SMOOTH",
"838 1417 OFFCURVE",
"829 1428 OFFCURVE",
"815 1428 CURVE",
"149 1205 LINE",
"137 1202 OFFCURVE",
"132 1196 OFFCURVE",
"126 1186 CURVE",
"9 933 LINE",
"8 924 OFFCURVE",
"13 917 OFFCURVE",
"23 911 CURVE SMOOTH",
"384 716 OFFCURVE",
"541 441 OFFCURVE",
"585 293 CURVE SMOOTH",
"587 288 OFFCURVE",
"586 286 OFFCURVE",
"581 283 CURVE SMOOTH",
"418 203 OFFCURVE",
"237 191 OFFCURVE",
"44 191 CURVE SMOOTH",
"-19 191 LINE SMOOTH",
"-83 191 OFFCURVE",
"-113 143 OFFCURVE",
"-113 96 CURVE SMOOTH",
"-113 48 OFFCURVE",
"-83 0 OFFCURVE",
"-19 0 CURVE SMOOTH"
);
},
{
closed = 1;
nodes = (
"668 1513 LINE",
"680 1517 OFFCURVE",
"686 1524 OFFCURVE",
"691 1536 CURVE SMOOTH",
"710 1610 LINE SMOOTH",
"714 1627 OFFCURVE",
"705 1639 OFFCURVE",
"690 1639 CURVE",
"267 1504 LINE",
"254 1500 OFFCURVE",
"249 1495 OFFCURVE",
"244 1484 CURVE",
"206 1391 LINE",
"206 1380 OFFCURVE",
"214 1373 OFFCURVE",
"226 1373 CURVE"
);
}
);
width = 822;
}
);
leftKerningGroup = k;
unicode = FB94;
},
{
glyphname = "lam-ar";
lastChange = "2016-07-24 15:15:59 +0000";
layers = (
{
anchors = (
{
name = bottom;
position = "{703, -697}";
},
{
name = top;
position = "{651, 577}";
}
);
layerId = "93A312F7-B931-4485-B08E-C367313EB5E7";
paths = (
{
closed = 1;
nodes = (
"839 -524 OFFCURVE",
"1297 -432 OFFCURVE",
"1304 -151 CURVE",
"1264 1541 LINE SMOOTH",
"1264 1556 OFFCURVE",
"1253 1559 OFFCURVE",
"1242 1550 CURVE SMOOTH",
"1102 1444 LINE SMOOTH",
"1095 1439 OFFCURVE",
"1093 1432 OFFCURVE",
"1093 1423 CURVE SMOOTH",
"1179 -218 LINE",
"1179 -218 OFFCURVE",
"905 -330 OFFCURVE",
"604 -330 CURVE SMOOTH",
"397 -330 OFFCURVE",
"240 -218 OFFCURVE",
"308 29 CURVE",
"378 332 LINE SMOOTH",
"381 343 OFFCURVE",
"375 351 OFFCURVE",
"365 353 CURVE SMOOTH",
"294 369 LINE SMOOTH",
"284 371 OFFCURVE",
"277 368 OFFCURVE",
"274 357 CURVE SMOOTH",
"200 47 LINE",
"128 -213 OFFCURVE",
"179 -524 OFFCURVE",
"564 -524 CURVE SMOOTH"
);
}
);
width = 1442;
},
{
anchors = (
{
name = bottom;
position = "{691, -688}";
},
{
name = top;
position = "{641, 640}";
}
);
layerId = "00FED3EE-B3F5-49E6-B91A-35FC52169726";
paths = (
{
closed = 1;
nodes = (
"823 -503 OFFCURVE",
"1271 -413 OFFCURVE",
"1278 -135 CURVE",
"1239 1470 LINE",
"1239 1484 OFFCURVE",
"1231 1493 OFFCURVE",
"1220 1493 CURVE SMOOTH",
"1214 1493 OFFCURVE",
"1209 1491 OFFCURVE",
"1203 1486 CURVE",
"1068 1384 LINE SMOOTH",
"1060 1378 OFFCURVE",
"1055 1369 OFFCURVE",
"1056 1356 CURVE SMOOTH",
"1139 -193 LINE",
"1096 -209 OFFCURVE",
"857 -298 OFFCURVE",
"596 -298 CURVE SMOOTH",
"412 -298 OFFCURVE",
"306 -210 OFFCURVE",
"306 -66 CURVE SMOOTH",
"306 -23 OFFCURVE",
"315 10 OFFCURVE",
"389 326 CURVE SMOOTH",
"393 341 OFFCURVE",
"384 355 OFFCURVE",
"369 358 CURVE SMOOTH",
"300 373 LINE SMOOTH",
"285 376 OFFCURVE",
"275 370 OFFCURVE",
"270 355 CURVE SMOOTH",
"186 13 OFFCURVE",
"173 -39 OFFCURVE",
"173 -128 CURVE SMOOTH",
"173 -324 OFFCURVE",
"271 -503 OFFCURVE",
"558 -503 CURVE SMOOTH"
);
}
);
width = 1412;
}
);
unicode = 0644;
},
{
glyphname = "lam-ar.fina";
lastChange = "2016-07-24 15:16:00 +0000";
layers = (
{
anchors = (
{
name = bottom;
position = "{703, -697}";
},
{
name = top;
position = "{688, 616}";
}
);
layerId = "93A312F7-B931-4485-B08E-C367313EB5E7";
paths = (
{
closed = 1;
nodes = (
"839 -524 OFFCURVE",
"1297 -432 OFFCURVE",
"1304 -151 CURVE",
"1301 46 LINE SMOOTH",
"1301 60 OFFCURVE",
"1309 64 OFFCURVE",
"1321 56 CURVE SMOOTH",
"1367 25 OFFCURVE",
"1431 0 OFFCURVE",
"1540 0 CURVE SMOOTH",
"1606 0 LINE",
"1654 60 OFFCURVE",
"1654 119 OFFCURVE",
"1606 179 CURVE",
"1540 179 LINE SMOOTH",
"1486 179 OFFCURVE",
"1380 200 OFFCURVE",
"1309 222 CURVE SMOOTH",
"1300 225 OFFCURVE",
"1295 232 OFFCURVE",
"1295 241 CURVE SMOOTH",
"1264 1541 LINE SMOOTH",
"1264 1555 OFFCURVE",
"1253 1559 OFFCURVE",
"1242 1550 CURVE SMOOTH",
"1102 1444 LINE SMOOTH",
"1095 1439 OFFCURVE",
"1093 1432 OFFCURVE",
"1093 1423 CURVE SMOOTH",
"1178 -204 LINE SMOOTH",
"1178 -213 OFFCURVE",
"1174 -221 OFFCURVE",
"1165 -224 CURVE SMOOTH",
"1105 -246 OFFCURVE",
"865 -330 OFFCURVE",
"604 -330 CURVE SMOOTH",
"397 -330 OFFCURVE",
"240 -218 OFFCURVE",
"308 29 CURVE",
"378 332 LINE SMOOTH",
"381 343 OFFCURVE",
"375 351 OFFCURVE",
"365 353 CURVE SMOOTH",
"294 369 LINE SMOOTH",
"284 371 OFFCURVE",
"277 368 OFFCURVE",
"274 357 CURVE SMOOTH",
"200 47 LINE",
"128 -213 OFFCURVE",
"179 -524 OFFCURVE",
"564 -524 CURVE SMOOTH"
);
}
);
width = 1586;
},
{
anchors = (
{
name = bottom;
position = "{691, -688}";
},
{
name = top;
position = "{677, 678}";
}
);
layerId = "00FED3EE-B3F5-49E6-B91A-35FC52169726";
paths = (
{
closed = 1;
nodes = (
"823 -503 OFFCURVE",
"1271 -413 OFFCURVE",
"1278 -135 CURVE",
"1275 54 LINE SMOOTH",
"1275 58 OFFCURVE",
"1276 58 OFFCURVE",
"1279 56 CURVE SMOOTH",
"1324 25 OFFCURVE",
"1388 0 OFFCURVE",
"1495 0 CURVE SMOOTH",
"1559 0 LINE",
"1586 32 OFFCURVE",
"1598 63 OFFCURVE",
"1598 96 CURVE SMOOTH",
"1598 128 OFFCURVE",
"1586 159 OFFCURVE",
"1559 191 CURVE",
"1495 191 LINE SMOOTH",
"1447 191 OFFCURVE",
"1348 209 OFFCURVE",
"1276 232 CURVE SMOOTH",
"1271 233 OFFCURVE",
"1269 236 OFFCURVE",
"1269 241 CURVE SMOOTH",
"1239 1476 LINE SMOOTH",
"1239 1491 OFFCURVE",
"1231 1500 OFFCURVE",
"1220 1500 CURVE SMOOTH",
"1214 1500 OFFCURVE",
"1209 1498 OFFCURVE",
"1203 1493 CURVE SMOOTH",
"1068 1391 LINE SMOOTH",
"1061 1385 OFFCURVE",
"1056 1378 OFFCURVE",
"1056 1366 CURVE",
"1138 -187 LINE",
"1138 -193 OFFCURVE",
"1138 -194 OFFCURVE",
"1132 -197 CURVE SMOOTH",
"1074 -218 OFFCURVE",
"845 -298 OFFCURVE",
"596 -298 CURVE SMOOTH",
"412 -298 OFFCURVE",
"306 -210 OFFCURVE",
"306 -66 CURVE SMOOTH",
"306 -23 OFFCURVE",
"315 10 OFFCURVE",
"389 326 CURVE SMOOTH",
"393 341 OFFCURVE",
"384 355 OFFCURVE",
"369 358 CURVE SMOOTH",
"300 373 LINE SMOOTH",
"285 376 OFFCURVE",
"275 370 OFFCURVE",
"270 355 CURVE SMOOTH",
"186 13 OFFCURVE",
"173 -39 OFFCURVE",
"173 -128 CURVE SMOOTH",
"173 -324 OFFCURVE",
"271 -503 OFFCURVE",
"558 -503 CURVE SMOOTH"
);
}
);
width = 1540;
}
);
unicode = FEDE;
},
{
glyphname = "lam-ar.medi";
lastChange = "2016-07-24 15:16:02 +0000";
layers = (
{
anchors = (
{
name = bottom;
position = "{337, -171}";
},
{
name = top;
position = "{311, 1722}";
}
);
layerId = "93A312F7-B931-4485-B08E-C367313EB5E7";
paths = (
{
closed = 1;
nodes = (
"46 0 LINE SMOOTH",
"144 0 OFFCURVE",
"277 40 OFFCURVE",
"355 107 CURVE SMOOTH",
"363 114 OFFCURVE",
"371 114 OFFCURVE",
"378 107 CURVE SMOOTH",
"430 61 OFFCURVE",
"497 0 OFFCURVE",
"656 0 CURVE SMOOTH",
"722 0 LINE",
"770 60 OFFCURVE",
"770 119 OFFCURVE",
"722 179 CURVE",
"656 179 LINE SMOOTH",
"601 179 OFFCURVE",
"496 201 OFFCURVE",
"424 223 CURVE SMOOTH",
"415 226 OFFCURVE",
"411 233 OFFCURVE",
"411 243 CURVE SMOOTH",
"391 1528 LINE SMOOTH",
"391 1543 OFFCURVE",
"382 1547 OFFCURVE",
"370 1539 CURVE SMOOTH",
"240 1447 LINE SMOOTH",
"233 1442 OFFCURVE",
"230 1435 OFFCURVE",
"230 1425 CURVE SMOOTH",
"286 239 LINE SMOOTH",
"286 230 OFFCURVE",
"283 223 OFFCURVE",
"274 220 CURVE SMOOTH",
"215 200 OFFCURVE",
"131 179 OFFCURVE",
"46 179 CURVE SMOOTH",
"-20 179 LINE SMOOTH",
"-138 179 OFFCURVE",
"-138 0 OFFCURVE",
"-20 0 CURVE SMOOTH"
);
}
);
width = 702;
},
{
anchors = (
{
name = bottom;
position = "{324, -183}";
},
{
name = top;
position = "{299, 1663}";
}
);
layerId = "00FED3EE-B3F5-49E6-B91A-35FC52169726";
paths = (
{
closed = 1;
nodes = (
"44 0 LINE SMOOTH",
"149 0 OFFCURVE",
"276 44 OFFCURVE",
"348 105 CURVE SMOOTH",
"351 108 OFFCURVE",
"353 108 OFFCURVE",
"356 106 CURVE SMOOTH",
"443 30 OFFCURVE",
"510 0 OFFCURVE",
"630 0 CURVE SMOOTH",
"694 0 LINE",
"721 32 OFFCURVE",
"733 63 OFFCURVE",
"733 96 CURVE SMOOTH",
"733 128 OFFCURVE",
"721 159 OFFCURVE",
"694 191 CURVE",
"630 191 LINE SMOOTH",
"578 191 OFFCURVE",
"478 212 OFFCURVE",
"410 233 CURVE SMOOTH",
"406 234 OFFCURVE",
"404 237 OFFCURVE",
"404 243 CURVE SMOOTH",
"385 1476 LINE SMOOTH",
"385 1492 OFFCURVE",
"377 1500 OFFCURVE",
"366 1500 CURVE SMOOTH",
"361 1500 OFFCURVE",
"355 1499 OFFCURVE",
"349 1495 CURVE SMOOTH",
"225 1406 LINE SMOOTH",
"216 1400 OFFCURVE",
"211 1390 OFFCURVE",
"211 1378 CURVE SMOOTH",
"265 239 LINE SMOOTH",
"265 233 OFFCURVE",
"264 231 OFFCURVE",
"260 229 CURVE SMOOTH",
"185 204 OFFCURVE",
"109 191 OFFCURVE",
"44 191 CURVE SMOOTH",
"-19 191 LINE SMOOTH",
"-83 191 OFFCURVE",
"-113 143 OFFCURVE",
"-113 96 CURVE SMOOTH",
"-113 48 OFFCURVE",
"-83 0 OFFCURVE",
"-19 0 CURVE SMOOTH"
);
}
);
width = 675;
}
);
unicode = FEE0;
},
{
glyphname = "lam-ar.init";
lastChange = "2016-07-24 15:16:03 +0000";
layers = (
{
anchors = (
{
name = bottom;
position = "{148, -173}";
},
{
name = top;
position = "{241, 1727}";
}
);
layerId = "93A312F7-B931-4485-B08E-C367313EB5E7";
paths = (
{
closed = 1;
nodes = (
"46 0 LINE SMOOTH",
"311 0 OFFCURVE",
"420 100 OFFCURVE",
"401 373 CURVE SMOOTH",
"323 1529 LINE SMOOTH",
"322 1543 OFFCURVE",
"314 1548 OFFCURVE",
"302 1540 CURVE SMOOTH",
"171 1447 LINE SMOOTH",
"164 1442 OFFCURVE",
"160 1435 OFFCURVE",
"161 1425 CURVE SMOOTH",
"298 240 LINE SMOOTH",
"299 230 OFFCURVE",
"296 223 OFFCURVE",
"285 220 CURVE SMOOTH",
"222 200 OFFCURVE",
"109 179 OFFCURVE",
"46 179 CURVE SMOOTH",
"-20 179 LINE SMOOTH",
"-138 179 OFFCURVE",
"-138 0 OFFCURVE",
"-20 0 CURVE SMOOTH"
);
}
);
width = 542;
},
{
anchors = (
{
name = bottom;
position = "{171, -185}";
},
{
name = top;
position = "{231, 1668}";
}
);
layerId = "00FED3EE-B3F5-49E6-B91A-35FC52169726";
paths = (
{
closed = 1;
nodes = (
"44 0 LINE SMOOTH",
"291 0 OFFCURVE",
"396 91 OFFCURVE",
"396 312 CURVE",
"320 1478 LINE",
"319 1493 OFFCURVE",
"311 1501 OFFCURVE",
"300 1501 CURVE SMOOTH",
"296 1501 OFFCURVE",
"290 1500 OFFCURVE",
"284 1496 CURVE SMOOTH",
"158 1406 LINE SMOOTH",
"149 1400 OFFCURVE",
"144 1389 OFFCURVE",
"145 1377 CURVE SMOOTH",
"276 239 LINE SMOOTH",
"277 233 OFFCURVE",
"276 231 OFFCURVE",
"271 230 CURVE SMOOTH",
"211 211 OFFCURVE",
"104 191 OFFCURVE",
"44 191 CURVE SMOOTH",
"-19 191 LINE SMOOTH",
"-83 191 OFFCURVE",
"-113 143 OFFCURVE",
"-113 96 CURVE SMOOTH",
"-113 48 OFFCURVE",
"-83 0 OFFCURVE",
"-19 0 CURVE SMOOTH"
);
}
);
width = 531;
}
);
leftKerningGroup = all;
unicode = FEDF;
},
{
glyphname = "meem-ar";
lastChange = "2016-07-24 15:16:07 +0000";
layers = (
{
anchors = (
{
name = bottom;
position = "{298, -957}";
},
{
name = top;
position = "{638, 1056}";
}
);
layerId = "93A312F7-B931-4485-B08E-C367313EB5E7";
paths = (
{
closed = 1;
nodes = (
"356 -619 LINE SMOOTH",
"366 -615 OFFCURVE",
"368 -608 OFFCURVE",
"367 -598 CURVE SMOOTH",
"285 35 LINE SMOOTH",
"282 55 OFFCURVE",
"291 69 OFFCURVE",
"311 76 CURVE SMOOTH",
"523 148 OFFCURVE",
"802 159 OFFCURVE",
"1034 138 CURVE SMOOTH",
"1055 136 OFFCURVE",
"1067 147 OFFCURVE",
"1072 168 CURVE SMOOTH",
"1109 335 LINE SMOOTH",
"1112 350 OFFCURVE",
"1113 361 OFFCURVE",
"1113 376 CURVE SMOOTH",
"1112 424 OFFCURVE",
"1097 477 OFFCURVE",
"1071 528 CURVE SMOOTH",
"980 710 OFFCURVE",
"766 882 OFFCURVE",
"636 882 CURVE SMOOTH",
"406 882 OFFCURVE",
"340 631 OFFCURVE",
"339 454 CURVE SMOOTH",
"338 250 LINE",
"243 198 OFFCURVE",
"162 94 OFFCURVE",
"175 -137 CURVE SMOOTH",
"205 -660 LINE SMOOTH",
"206 -673 OFFCURVE",
"214 -678 OFFCURVE",
"226 -673 CURVE SMOOTH"
);
},
{
closed = 1;
nodes = (
"489 294 OFFCURVE",
"474 301 OFFCURVE",
"468 323 CURVE SMOOTH",
"436 434 LINE SMOOTH",
"431 451 OFFCURVE",
"432 462 OFFCURVE",
"437 478 CURVE SMOOTH",
"467 568 OFFCURVE",
"519 685 OFFCURVE",
"615 685 CURVE SMOOTH",
"757 685 OFFCURVE",
"920 513 OFFCURVE",
"1014 316 CURVE",
"837 330 OFFCURVE",
"668 328 OFFCURVE",
"509 298 CURVE SMOOTH"
);
}
);
width = 1251;
},
{
anchors = (
{
name = bottom;
position = "{301, -813}";
},
{
name = top;
position = "{628, 1052}";
}
);
layerId = "00FED3EE-B3F5-49E6-B91A-35FC52169726";
paths = (
{
closed = 1;
nodes = (
"361 -593 LINE",
"373 -588 OFFCURVE",
"379 -579 OFFCURVE",
"377 -564 CURVE SMOOTH",
"299 44 LINE SMOOTH",
"297 60 OFFCURVE",
"302 68 OFFCURVE",
"317 74 CURVE SMOOTH",
"461 122 OFFCURVE",
"636 142 OFFCURVE",
"804 142 CURVE SMOOTH",
"875 142 OFFCURVE",
"943 138 OFFCURVE",
"1007 132 CURVE SMOOTH",
"1031 131 OFFCURVE",
"1048 143 OFFCURVE",
"1054 169 CURVE SMOOTH",
"1081 281 OFFCURVE",
"1093 337 OFFCURVE",
"1093 371 CURVE SMOOTH",
"1090 566 OFFCURVE",
"814 866 OFFCURVE",
"626 866 CURVE SMOOTH",
"397 866 OFFCURVE",
"332 616 OFFCURVE",
"331 445 CURVE SMOOTH",
"330 255 LINE",
"225 195 OFFCURVE",
"173 85 OFFCURVE",
"173 -77 CURVE",
"203 -625 LINE",
"204 -639 OFFCURVE",
"217 -652 OFFCURVE",
"228 -648 CURVE"
);
},
{
closed = 1;
nodes = (
"531 304 OFFCURVE",
"494 304 CURVE SMOOTH",
"484 304 OFFCURVE",
"477 310 OFFCURVE",
"474 323 CURVE SMOOTH",
"445 423 OFFCURVE",
"441 436 OFFCURVE",
"441 445 CURVE SMOOTH",
"441 451 OFFCURVE",
"442 458 OFFCURVE",
"444 466 CURVE SMOOTH",
"487 594 OFFCURVE",
"540 658 OFFCURVE",
"606 658 CURVE SMOOTH",
"723 658 OFFCURVE",
"873 523 OFFCURVE",
"970 329 CURVE SMOOTH",
"971 326 OFFCURVE",
"970 324 OFFCURVE",
"966 324 CURVE SMOOTH",
"904 328 OFFCURVE",
"846 330 OFFCURVE",
"790 330 CURVE SMOOTH",
"597 330 OFFCURVE"
);
}
);
width = 1228;
}
);
leftKerningGroup = all;
unicode = 0645;
},
{
glyphname = "meem-ar.fina";
lastChange = "2016-07-24 15:16:09 +0000";
layers = (
{
anchors = (
{
name = bottom;
position = "{337, -956}";
},
{
name = top;
position = "{883, 837}";
}
);
layerId = "93A312F7-B931-4485-B08E-C367313EB5E7";
paths = (
{
closed = 1;
nodes = (
"378 -629 LINE SMOOTH",
"387 -625 OFFCURVE",
"392 -618 OFFCURVE",
"391 -608 CURVE SMOOTH",
"290 244 LINE SMOOTH",
"289 253 OFFCURVE",
"295 259 OFFCURVE",
"302 265 CURVE SMOOTH",
"353 308 OFFCURVE",
"409 340 OFFCURVE",
"463 359 CURVE SMOOTH",
"484 366 OFFCURVE",
"496 354 OFFCURVE",
"496 339 CURVE SMOOTH",
"496 110 OFFCURVE",
"564 -125 OFFCURVE",
"753 -212 CURVE SMOOTH",
"867 -263 OFFCURVE",
"910 -235 OFFCURVE",
"991 -112 CURVE SMOOTH",
"1128 95 LINE SMOOTH",
"1135 106 OFFCURVE",
"1143 106 OFFCURVE",
"1152 98 CURVE SMOOTH",
"1228 30 OFFCURVE",
"1323 0 OFFCURVE",
"1458 0 CURVE SMOOTH",
"1478 0 LINE",
"1526 60 OFFCURVE",
"1526 119 OFFCURVE",
"1478 179 CURVE",
"1412 179 LINE SMOOTH",
"1181 179 OFFCURVE",
"1067 429 OFFCURVE",
"972 620 CURVE SMOOTH",
"954 657 OFFCURVE",
"925 669 OFFCURVE",
"883 662 CURVE SMOOTH",
"314 564 OFFCURVE",
"153 358 OFFCURVE",
"174 86 CURVE SMOOTH",
"233 -670 LINE SMOOTH",
"234 -684 OFFCURVE",
"241 -689 OFFCURVE",
"254 -683 CURVE SMOOTH"
);
},
{
closed = 1;
nodes = (
"770 -56 OFFCURVE",
"596 106 OFFCURVE",
"596 371 CURVE SMOOTH",
"596 392 OFFCURVE",
"604 401 OFFCURVE",
"613 405 CURVE SMOOTH",
"692 437 OFFCURVE",
"776 461 OFFCURVE",
"868 474 CURVE SMOOTH",
"877 475 OFFCURVE",
"885 471 OFFCURVE",
"890 462 CURVE SMOOTH",
"938 369 OFFCURVE",
"990 281 OFFCURVE",
"1042 220 CURVE SMOOTH",
"1048 213 OFFCURVE",
"1051 205 OFFCURVE",
"1047 197 CURVE SMOOTH",
"917 -56 LINE SMOOTH",
"911 -68 OFFCURVE",
"906 -70 OFFCURVE",
"896 -69 CURVE SMOOTH"
);
}
);
width = 1458;
},
{
anchors = (
{
name = bottom;
position = "{331, -822}";
},
{
name = top;
position = "{855, 861}";
}
);
layerId = "00FED3EE-B3F5-49E6-B91A-35FC52169726";
paths = (
{
closed = 1;
nodes = (
"384 -603 LINE",
"396 -597 OFFCURVE",
"403 -587 OFFCURVE",
"402 -573 CURVE SMOOTH",
"305 245 LINE SMOOTH",
"305 248 OFFCURVE",
"306 249 OFFCURVE",
"314 256 CURVE SMOOTH",
"351 294 OFFCURVE",
"443 347 OFFCURVE",
"472 347 CURVE SMOOTH",
"480 347 OFFCURVE",
"484 343 OFFCURVE",
"484 335 CURVE SMOOTH",
"484 67 OFFCURVE",
"575 -129 OFFCURVE",
"736 -203 CURVE SMOOTH",
"772 -219 OFFCURVE",
"801 -228 OFFCURVE",
"827 -228 CURVE SMOOTH",
"880 -228 OFFCURVE",
"920 -190 OFFCURVE",
"976 -103 CURVE SMOOTH",
"1108 95 LINE SMOOTH",
"1111 100 OFFCURVE",
"1112 101 OFFCURVE",
"1116 97 CURVE SMOOTH",
"1191 30 OFFCURVE",
"1284 0 OFFCURVE",
"1417 0 CURVE SMOOTH",
"1437 0 LINE",
"1464 32 OFFCURVE",
"1476 63 OFFCURVE",
"1476 96 CURVE SMOOTH",
"1476 128 OFFCURVE",
"1464 159 OFFCURVE",
"1437 191 CURVE",
"1373 191 LINE SMOOTH",
"1157 191 OFFCURVE",
"1050 425 OFFCURVE",
"959 609 CURVE",
"946 636 OFFCURVE",
"908 659 OFFCURVE",
"863 655 CURVE",
"392 573 OFFCURVE",
"173 410 OFFCURVE",
"173 133 CURVE",
"231 -635 LINE",
"232 -650 OFFCURVE",
"245 -660 OFFCURVE",
"256 -658 CURVE"
);
},
{
closed = 1;
nodes = (
"760 -35 OFFCURVE",
"599 115 OFFCURVE",
"599 366 CURVE SMOOTH",
"599 379 OFFCURVE",
"602 386 OFFCURVE",
"610 390 CURVE SMOOTH",
"690 422 OFFCURVE",
"770 444 OFFCURVE",
"852 455 CURVE SMOOTH",
"857 456 OFFCURVE",
"860 454 OFFCURVE",
"863 448 CURVE SMOOTH",
"917 345 OFFCURVE",
"966 267 OFFCURVE",
"1010 215 CURVE",
"1012 212 OFFCURVE",
"1013 208 OFFCURVE",
"1011 203 CURVE",
"889 -39 LINE SMOOTH",
"885 -46 OFFCURVE",
"885 -47 OFFCURVE",
"878 -47 CURVE SMOOTH"
);
}
);
width = 1418;
}
);
unicode = FEE2;
},
{
glyphname = "meem-ar.medi";
lastChange = "2016-07-24 15:16:10 +0000";
layers = (
{
anchors = (
{
name = bottom;
position = "{662, -200}";
},
{
name = top;
position = "{742, 999}";
}
);
layerId = "93A312F7-B931-4485-B08E-C367313EB5E7";
paths = (
{
closed = 1;
nodes = (
"923 -27 OFFCURVE",
"976 26 OFFCURVE",
"1028 129 CURVE",
"1091 37 OFFCURVE",
"1195 0 OFFCURVE",
"1274 0 CURVE SMOOTH",
"1340 0 LINE",
"1388 60 OFFCURVE",
"1388 119 OFFCURVE",
"1340 179 CURVE",
"1320 179 LINE SMOOTH",
"1121 179 OFFCURVE",
"1053 284 OFFCURVE",
"1013 374 CURVE SMOOTH",
"861 719 LINE SMOOTH",
"839 770 OFFCURVE",
"782 865 OFFCURVE",
"695 845 CURVE SMOOTH",
"478 795 OFFCURVE",
"287 494 OFFCURVE",
"248 229 CURVE SMOOTH",
"247 220 OFFCURVE",
"241 215 OFFCURVE",
"232 212 CURVE SMOOTH",
"181 195 OFFCURVE",
"101 179 OFFCURVE",
"0 179 CURVE SMOOTH",
"-20 179 LINE SMOOTH",
"-138 179 OFFCURVE",
"-138 0 OFFCURVE",
"-20 0 CURVE SMOOTH",
"0 0 LINE SMOOTH",
"132 0 OFFCURVE",
"212 22 OFFCURVE",
"290 99 CURVE SMOOTH",
"296 105 OFFCURVE",
"304 107 OFFCURVE",
"313 105 CURVE SMOOTH",
"744 12 LINE SMOOTH"
);
},
{
closed = 1;
nodes = (
"371 285 LINE SMOOTH",
"361 288 OFFCURVE",
"356 294 OFFCURVE",
"359 306 CURVE SMOOTH",
"413 494 OFFCURVE",
"564 613 OFFCURVE",
"679 657 CURVE SMOOTH",
"697 664 OFFCURVE",
"703 646 OFFCURVE",
"705 642 CURVE SMOOTH",
"922 169 LINE SMOOTH",
"928 156 OFFCURVE",
"921 148 OFFCURVE",
"907 151 CURVE SMOOTH"
);
}
);
width = 1320;
},
{
anchors = (
{
name = bottom;
position = "{636, -182}";
},
{
name = top;
position = "{693, 1036}";
}
);
layerId = "00FED3EE-B3F5-49E6-B91A-35FC52169726";
paths = (
{
closed = 1;
nodes = (
"300 102 OFFCURVE",
"735 -1 OFFCURVE",
"811 -1 CURVE SMOOTH",
"907 -1 OFFCURVE",
"950 45 OFFCURVE",
"988 115 CURVE",
"1044 44 OFFCURVE",
"1133 0 OFFCURVE",
"1223 0 CURVE SMOOTH",
"1287 0 LINE",
"1314 32 OFFCURVE",
"1327 63 OFFCURVE",
"1327 96 CURVE SMOOTH",
"1327 128 OFFCURVE",
"1314 159 OFFCURVE",
"1287 191 CURVE",
"1267 191 LINE SMOOTH",
"1081 191 OFFCURVE",
"1020 287 OFFCURVE",
"981 372 CURVE SMOOTH",
"835 704 LINE SMOOTH",
"807 770 OFFCURVE",
"758 837 OFFCURVE",
"665 830 CURVE",
"453 781 OFFCURVE",
"266 488 OFFCURVE",
"228 230 CURVE SMOOTH",
"228 227 OFFCURVE",
"227 225 OFFCURVE",
"220 222 CURVE SMOOTH",
"160 203 OFFCURVE",
"82 191 OFFCURVE",
"0 191 CURVE SMOOTH",
"-19 191 LINE SMOOTH",
"-83 191 OFFCURVE",
"-113 143 OFFCURVE",
"-113 96 CURVE SMOOTH",
"-113 48 OFFCURVE",
"-83 0 OFFCURVE",
"-19 0 CURVE SMOOTH",
"0 0 LINE SMOOTH",
"136 0 OFFCURVE",
"212 26 OFFCURVE",
"285 98 CURVE SMOOTH",
"288 101 OFFCURVE",
"290 102 OFFCURVE",
"294 102 CURVE SMOOTH"
);
},
{
closed = 1;
nodes = (
"358 293 LINE SMOOTH",
"353 294 OFFCURVE",
"352 296 OFFCURVE",
"354 301 CURVE SMOOTH",
"405 478 OFFCURVE",
"546 589 OFFCURVE",
"656 632 CURVE SMOOTH",
"661 634 OFFCURVE",
"663 632 OFFCURVE",
"668 622 CURVE SMOOTH",
"875 172 LINE SMOOTH",
"876 169 OFFCURVE",
"874 164 OFFCURVE",
"869 165 CURVE SMOOTH"
);
}
);
width = 1268;
}
);
unicode = FEE4;
},
{
glyphname = "meem-ar.init";
lastChange = "2016-07-24 15:16:12 +0000";
layers = (
{
anchors = (
{
name = bottom;
position = "{619, -230}";
},
{
name = top;
position = "{751, 1011}";
}
);
layerId = "93A312F7-B931-4485-B08E-C367313EB5E7";
paths = (
{
closed = 1;
nodes = (
"46 0 LINE SMOOTH",
"141 0 OFFCURVE",
"236 72 OFFCURVE",
"351 216 CURVE",
"419 147 OFFCURVE",
"426 130 OFFCURVE",
"742 32 CURVE SMOOTH",
"858 -4 OFFCURVE",
"931 -25 OFFCURVE",
"1022 68 CURVE SMOOTH",
"1075 122 OFFCURVE",
"1104 200 OFFCURVE",
"1083 311 CURVE SMOOTH",
"1033 574 OFFCURVE",
"933 838 OFFCURVE",
"751 838 CURVE SMOOTH",
"516 838 OFFCURVE",
"407 546 OFFCURVE",
"277 351 CURVE SMOOTH",
"184 213 OFFCURVE",
"131 179 OFFCURVE",
"0 179 CURVE SMOOTH",
"-20 179 LINE SMOOTH",
"-138 179 OFFCURVE",
"-138 0 OFFCURVE",
"-20 0 CURVE SMOOTH"
);
},
{
closed = 1;
nodes = (
"429 329 LINE SMOOTH",
"419 333 OFFCURVE",
"414 340 OFFCURVE",
"420 351 CURVE SMOOTH",
"469 442 OFFCURVE",
"562 638 OFFCURVE",
"703 638 CURVE SMOOTH",
"836 638 OFFCURVE",
"898 387 OFFCURVE",
"944 184 CURVE SMOOTH",
"947 170 OFFCURVE",
"932 149 OFFCURVE",
"915 155 CURVE SMOOTH"
);
}
);
width = 1265;
},
{
anchors = (
{
name = bottom;
position = "{594, -173}";
},
{
name = top;
position = "{721, 1009}";
}
);
layerId = "00FED3EE-B3F5-49E6-B91A-35FC52169726";
paths = (
{
closed = 1;
nodes = (
"44 0 LINE SMOOTH",
"133 0 OFFCURVE",
"225 62 OFFCURVE",
"338 203 CURVE",
"396 144 OFFCURVE",
"415 123 OFFCURVE",
"709 31 CURVE SMOOTH",
"761 14 OFFCURVE",
"805 1 OFFCURVE",
"848 1 CURVE SMOOTH",
"961 1 OFFCURVE",
"1056 116 OFFCURVE",
"1056 243 CURVE SMOOTH",
"1056 466 OFFCURVE",
"911 824 OFFCURVE",
"721 824 CURVE SMOOTH",
"489 824 OFFCURVE",
"382 539 OFFCURVE",
"258 352 CURVE SMOOTH",
"170 221 OFFCURVE",
"122 191 OFFCURVE",
"0 191 CURVE SMOOTH",
"-19 191 LINE SMOOTH",
"-83 191 OFFCURVE",
"-113 143 OFFCURVE",
"-113 96 CURVE SMOOTH",
"-113 48 OFFCURVE",
"-83 0 OFFCURVE",
"-19 0 CURVE SMOOTH"
);
},
{
closed = 1;
nodes = (
"415 334 LINE",
"409 337 OFFCURVE",
"410 338 OFFCURVE",
"412 342 CURVE SMOOTH",
"459 429 OFFCURVE",
"545 612 OFFCURVE",
"675 612 CURVE SMOOTH",
"795 612 OFFCURVE",
"852 379 OFFCURVE",
"897 184 CURVE SMOOTH",
"899 177 OFFCURVE",
"891 167 OFFCURVE",
"883 167 CURVE"
);
}
);
width = 1190;
}
);
leftKerningGroup = all;
unicode = FEE3;
},
{
glyphname = "noonghunna-ar";
lastChange = "2016-07-24 15:16:15 +0000";
layers = (
{
anchors = (
{
name = bottom;
position = "{734, -704}";
},
{
name = top;
position = "{707, 422}";
}
);
layerId = "93A312F7-B931-4485-B08E-C367313EB5E7";
paths = (
{
closed = 1;
nodes = (
"818 -531 OFFCURVE",
"1196 -427 OFFCURVE",
"1316 -271 CURVE SMOOTH",
"1370 -201 OFFCURVE",
"1366 -125 OFFCURVE",
"1349 6 CURVE SMOOTH",
"1278 569 LINE SMOOTH",
"1276 588 OFFCURVE",
"1259 593 OFFCURVE",
"1245 583 CURVE SMOOTH",
"1134 501 LINE SMOOTH",
"1130 498 OFFCURVE",
"1128 492 OFFCURVE",
"1129 486 CURVE SMOOTH",
"1236 -177 LINE SMOOTH",
"1237 -184 OFFCURVE",
"1232 -190 OFFCURVE",
"1226 -194 CURVE SMOOTH",
"1167 -233 OFFCURVE",
"929 -330 OFFCURVE",
"619 -330 CURVE SMOOTH",
"393 -330 OFFCURVE",
"249 -215 OFFCURVE",
"305 61 CURVE SMOOTH",
"339 228 LINE SMOOTH",
"341 239 OFFCURVE",
"334 246 OFFCURVE",
"323 248 CURVE SMOOTH",
"250 259 LINE SMOOTH",
"240 261 OFFCURVE",
"232 255 OFFCURVE",
"230 245 CURVE SMOOTH",
"189 38 LINE SMOOTH",
"131 -254 OFFCURVE",
"223 -531 OFFCURVE",
"591 -531 CURVE SMOOTH"
);
}
);
width = 1497;
},
{
anchors = (
{
name = bottom;
position = "{721, -695}";
},
{
name = ring;
position = "{271, -591}";
},
{
name = top;
position = "{695, 415}";
}
);
layerId = "00FED3EE-B3F5-49E6-B91A-35FC52169726";
paths = (
{
closed = 1;
nodes = (
"803 -510 OFFCURVE",
"1170 -409 OFFCURVE",
"1287 -256 CURVE SMOOTH",
"1320 -213 OFFCURVE",
"1332 -168 OFFCURVE",
"1332 -109 CURVE SMOOTH",
"1332 -54 OFFCURVE",
"1326 -16 OFFCURVE",
"1253 557 CURVE SMOOTH",
"1251 574 OFFCURVE",
"1239 584 OFFCURVE",
"1225 584 CURVE SMOOTH",
"1219 584 OFFCURVE",
"1212 582 OFFCURVE",
"1206 577 CURVE SMOOTH",
"1099 498 LINE SMOOTH",
"1093 494 OFFCURVE",
"1091 486 OFFCURVE",
"1091 478 CURVE",
"1193 -162 LINE",
"1193 -163 OFFCURVE",
"1192 -166 OFFCURVE",
"1188 -169 CURVE SMOOTH",
"1132 -205 OFFCURVE",
"906 -298 OFFCURVE",
"611 -298 CURVE SMOOTH",
"412 -298 OFFCURVE",
"307 -206 OFFCURVE",
"307 -38 CURVE SMOOTH",
"307 15 OFFCURVE",
"314 41 OFFCURVE",
"351 227 CURVE SMOOTH",
"354 242 OFFCURVE",
"345 254 OFFCURVE",
"328 257 CURVE SMOOTH",
"257 268 LINE SMOOTH",
"244 270 OFFCURVE",
"230 262 OFFCURVE",
"228 247 CURVE SMOOTH",
"180 10 OFFCURVE",
"173 -19 OFFCURVE",
"173 -100 CURVE SMOOTH",
"173 -324 OFFCURVE",
"287 -510 OFFCURVE",
"584 -510 CURVE SMOOTH"
);
}
);
width = 1466;
}
);
unicode = 06BA;
},
{
glyphname = "noonghunna-ar.fina";
lastChange = "2016-07-24 15:16:17 +0000";
layers = (
{
anchors = (
{
name = bottom;
position = "{736, -704}";
},
{
name = top;
position = "{709, 422}";
}
);
layerId = "93A312F7-B931-4485-B08E-C367313EB5E7";
paths = (
{
closed = 1;
nodes = (
"820 -531 OFFCURVE",
"1199 -427 OFFCURVE",
"1318 -271 CURVE SMOOTH",
"1367 -208 OFFCURVE",
"1368 -170 OFFCURVE",
"1346 62 CURVE",
"1397 22 OFFCURVE",
"1451 0 OFFCURVE",
"1620 0 CURVE SMOOTH",
"1686 0 LINE",
"1734 60 OFFCURVE",
"1734 119 OFFCURVE",
"1686 179 CURVE",
"1620 179 LINE SMOOTH",
"1397 179 OFFCURVE",
"1333 198 OFFCURVE",
"1306 365 CURVE",
"1295 490 LINE SMOOTH",
"1293 508 OFFCURVE",
"1276 514 OFFCURVE",
"1262 504 CURVE SMOOTH",
"1152 422 LINE SMOOTH",
"1148 419 OFFCURVE",
"1145 413 OFFCURVE",
"1146 407 CURVE SMOOTH",
"1238 -177 LINE SMOOTH",
"1239 -184 OFFCURVE",
"1236 -191 OFFCURVE",
"1229 -194 CURVE SMOOTH",
"1146 -233 OFFCURVE",
"931 -330 OFFCURVE",
"621 -330 CURVE SMOOTH",
"384 -330 OFFCURVE",
"249 -215 OFFCURVE",
"307 61 CURVE SMOOTH",
"342 228 LINE SMOOTH",
"344 239 OFFCURVE",
"336 246 OFFCURVE",
"325 248 CURVE SMOOTH",
"252 259 LINE SMOOTH",
"243 260 OFFCURVE",
"234 255 OFFCURVE",
"232 245 CURVE SMOOTH",
"191 38 LINE SMOOTH",
"133 -254 OFFCURVE",
"202 -531 OFFCURVE",
"593 -531 CURVE SMOOTH"
);
}
);
width = 1666;
},
{
anchors = (
{
name = bottom;
position = "{723, -695}";
},
{
name = ring;
position = "{268, -590}";
},
{
name = top;
position = "{697, 415}";
}
);
layerId = "00FED3EE-B3F5-49E6-B91A-35FC52169726";
paths = (
{
closed = 1;
nodes = (
"804 -510 OFFCURVE",
"1173 -409 OFFCURVE",
"1289 -256 CURVE SMOOTH",
"1319 -218 OFFCURVE",
"1332 -188 OFFCURVE",
"1332 -119 CURVE SMOOTH",
"1332 -79 OFFCURVE",
"1327 -26 OFFCURVE",
"1320 49 CURVE",
"1366 17 OFFCURVE",
"1427 0 OFFCURVE",
"1572 0 CURVE SMOOTH",
"1636 0 LINE",
"1663 32 OFFCURVE",
"1675 63 OFFCURVE",
"1675 96 CURVE SMOOTH",
"1675 128 OFFCURVE",
"1663 159 OFFCURVE",
"1636 191 CURVE",
"1572 191 LINE SMOOTH",
"1358 191 OFFCURVE",
"1305 207 OFFCURVE",
"1280 362 CURVE",
"1269 481 LINE SMOOTH",
"1267 497 OFFCURVE",
"1255 508 OFFCURVE",
"1241 508 CURVE SMOOTH",
"1235 508 OFFCURVE",
"1229 506 OFFCURVE",
"1222 501 CURVE SMOOTH",
"1116 422 LINE SMOOTH",
"1111 419 OFFCURVE",
"1107 409 OFFCURVE",
"1107 401 CURVE",
"1195 -162 LINE",
"1196 -165 OFFCURVE",
"1194 -167 OFFCURVE",
"1192 -168 CURVE SMOOTH",
"1113 -205 OFFCURVE",
"908 -298 OFFCURVE",
"612 -298 CURVE SMOOTH",
"412 -298 OFFCURVE",
"308 -211 OFFCURVE",
"308 -45 CURVE SMOOTH",
"308 12 OFFCURVE",
"315 42 OFFCURVE",
"354 227 CURVE SMOOTH",
"357 242 OFFCURVE",
"347 254 OFFCURVE",
"330 257 CURVE SMOOTH",
"259 268 LINE SMOOTH",
"245 270 OFFCURVE",
"232 260 OFFCURVE",
"229 247 CURVE SMOOTH",
"182 6 OFFCURVE",
"173 -29 OFFCURVE",
"173 -118 CURVE SMOOTH",
"173 -371 OFFCURVE",
"316 -510 OFFCURVE",
"586 -510 CURVE SMOOTH"
);
}
);
width = 1617;
}
);
unicode = FB9F;
},
{
glyphname = "heh-ar";
lastChange = "2016-07-24 15:16:20 +0000";
layers = (
{
anchors = (
{
name = bottom;
position = "{443, -228}";
},
{
name = top;
position = "{419, 1066}";
}
);
layerId = "93A312F7-B931-4485-B08E-C367313EB5E7";
paths = (
{
closed = 1;
nodes = (
"668 -56 OFFCURVE",
"856 148 OFFCURVE",
"897 384 CURVE SMOOTH",
"928 560 OFFCURVE",
"658 748 OFFCURVE",
"438 884 CURVE SMOOTH",
"423 893 OFFCURVE",
"408 889 OFFCURVE",
"399 875 CURVE SMOOTH",
"276 661 OFFCURVE",
"179 485 OFFCURVE",
"172 286 CURVE SMOOTH",
"165 88 OFFCURVE",
"269 -56 OFFCURVE",
"446 -56 CURVE SMOOTH"
);
},
{
closed = 1;
nodes = (
"362 125 OFFCURVE",
"275 210 OFFCURVE",
"271 343 CURVE SMOOTH",
"269 439 OFFCURVE",
"312 538 OFFCURVE",
"384 663 CURVE SMOOTH",
"393 679 OFFCURVE",
"407 681 OFFCURVE",
"423 672 CURVE SMOOTH",
"587 586 OFFCURVE",
"688 499 OFFCURVE",
"789 402 CURVE SMOOTH",
"800 391 OFFCURVE",
"800 378 OFFCURVE",
"795 365 CURVE SMOOTH",
"736 210 OFFCURVE",
"607 120 OFFCURVE",
"466 123 CURVE SMOOTH"
);
}
);
width = 999;
},
{
anchors = (
{
name = bottom;
position = "{462, -248}";
},
{
name = top;
position = "{417, 1071}";
}
);
layerId = "00FED3EE-B3F5-49E6-B91A-35FC52169726";
paths = (
{
closed = 1;
nodes = (
"666 -38 OFFCURVE",
"891 202 OFFCURVE",
"891 420 CURVE SMOOTH",
"891 587 OFFCURVE",
"647 765 OFFCURVE",
"443 882 CURVE SMOOTH",
"436 886 OFFCURVE",
"429 888 OFFCURVE",
"422 888 CURVE SMOOTH",
"411 888 OFFCURVE",
"399 881 OFFCURVE",
"393 870 CURVE SMOOTH",
"270 660 OFFCURVE",
"173 484 OFFCURVE",
"173 282 CURVE SMOOTH",
"173 90 OFFCURVE",
"280 -38 OFFCURVE",
"445 -38 CURVE SMOOTH"
);
},
{
closed = 1;
nodes = (
"367 153 OFFCURVE",
"287 238 OFFCURVE",
"287 360 CURVE SMOOTH",
"287 448 OFFCURVE",
"320 544 OFFCURVE",
"395 657 CURVE SMOOTH",
"398 662 OFFCURVE",
"402 665 OFFCURVE",
"407 665 CURVE SMOOTH",
"410 665 OFFCURVE",
"414 664 OFFCURVE",
"419 661 CURVE SMOOTH",
"570 570 OFFCURVE",
"673 499 OFFCURVE",
"768 404 CURVE SMOOTH",
"772 400 OFFCURVE",
"774 396 OFFCURVE",
"774 390 CURVE SMOOTH",
"774 387 OFFCURVE",
"774 383 OFFCURVE",
"772 379 CURVE SMOOTH",
"705 245 OFFCURVE",
"603 153 OFFCURVE",
"471 153 CURVE SMOOTH"
);
}
);
width = 1025;
}
);
leftKerningGroup = all;
unicode = 0647;
},
{
glyphname = "heh-ar.fina";
lastChange = "2016-07-24 15:16:22 +0000";
layers = (
{
anchors = (
{
name = bottom;
position = "{505, -164}";
},
{
name = top;
position = "{696, 1271}";
}
);
layerId = "93A312F7-B931-4485-B08E-C367313EB5E7";
paths = (
{
closed = 1;
nodes = (
"1150 0 LINE",
"1198 60 OFFCURVE",
"1198 119 OFFCURVE",
"1150 179 CURVE",
"1084 179 LINE SMOOTH",
"928 179 OFFCURVE",
"847 240 OFFCURVE",
"831 414 CURVE SMOOTH",
"770 1091 LINE SMOOTH",
"769 1104 OFFCURVE",
"760 1109 OFFCURVE",
"749 1102 CURVE SMOOTH",
"627 1022 LINE SMOOTH",
"620 1017 OFFCURVE",
"616 1011 OFFCURVE",
"618 1000 CURVE SMOOTH",
"650 802 LINE SMOOTH",
"652 792 OFFCURVE",
"647 784 OFFCURVE",
"638 780 CURVE SMOOTH",
"411 666 OFFCURVE",
"193 494 OFFCURVE",
"173 212 CURVE SMOOTH",
"172 204 OFFCURVE",
"174 184 OFFCURVE",
"176 176 CURVE SMOOTH",
"199 75 OFFCURVE",
"389 49 OFFCURVE",
"552 54 CURVE SMOOTH",
"705 59 OFFCURVE",
"735 123 OFFCURVE",
"754 198 CURVE",
"810 57 OFFCURVE",
"910 0 OFFCURVE",
"1084 0 CURVE SMOOTH"
);
},
{
closed = 1;
nodes = (
"574 210 OFFCURVE",
"358 235 OFFCURVE",
"263 297 CURVE SMOOTH",
"258 300 OFFCURVE",
"256 307 OFFCURVE",
"261 317 CURVE SMOOTH",
"315 429 OFFCURVE",
"466 553 OFFCURVE",
"657 638 CURVE SMOOTH",
"668 643 OFFCURVE",
"675 638 OFFCURVE",
"677 627 CURVE SMOOTH",
"730 263 LINE SMOOTH",
"732 252 OFFCURVE",
"727 247 OFFCURVE",
"716 244 CURVE SMOOTH"
);
}
);
width = 1130;
},
{
anchors = (
{
name = bottom;
position = "{501, -177}";
},
{
name = top;
position = "{684, 1249}";
}
);
layerId = "00FED3EE-B3F5-49E6-B91A-35FC52169726";
paths = (
{
closed = 1;
nodes = (
"1121 0 LINE",
"1148 32 OFFCURVE",
"1161 63 OFFCURVE",
"1161 96 CURVE SMOOTH",
"1161 128 OFFCURVE",
"1148 159 OFFCURVE",
"1121 191 CURVE",
"1057 191 LINE SMOOTH",
"905 191 OFFCURVE",
"838 253 OFFCURVE",
"824 408 CURVE SMOOTH",
"765 1058 LINE SMOOTH",
"764 1072 OFFCURVE",
"756 1080 OFFCURVE",
"745 1080 CURVE SMOOTH",
"740 1080 OFFCURVE",
"735 1079 OFFCURVE",
"731 1075 CURVE SMOOTH",
"613 998 LINE SMOOTH",
"604 992 OFFCURVE",
"600 983 OFFCURVE",
"600 973 CURVE",
"631 778 LINE",
"632 773 OFFCURVE",
"630 770 OFFCURVE",
"625 767 CURVE SMOOTH",
"338 623 OFFCURVE",
"189 442 OFFCURVE",
"173 214 CURVE SMOOTH",
"173 83 OFFCURVE",
"337 51 OFFCURVE",
"506 51 CURVE SMOOTH",
"622 51 OFFCURVE",
"708 67 OFFCURVE",
"742 171 CURVE",
"799 52 OFFCURVE",
"895 0 OFFCURVE",
"1057 0 CURVE SMOOTH"
);
},
{
closed = 1;
nodes = (
"660 244 OFFCURVE",
"612 239 OFFCURVE",
"564 239 CURVE SMOOTH",
"452 239 OFFCURVE",
"336 262 OFFCURVE",
"275 302 CURVE SMOOTH",
"274 303 OFFCURVE",
"273 304 OFFCURVE",
"276 310 CURVE SMOOTH",
"327 417 OFFCURVE",
"471 534 OFFCURVE",
"651 613 CURVE SMOOTH",
"655 615 OFFCURVE",
"656 615 OFFCURVE",
"657 610 CURVE SMOOTH",
"708 261 LINE SMOOTH",
"708 256 OFFCURVE",
"708 255 OFFCURVE",
"701 253 CURVE SMOOTH"
);
}
);
width = 1102;
}
);
unicode = FEEA;
},
{
glyphname = "heh-ar.medi";
lastChange = "2016-07-24 15:16:24 +0000";
layers = (
{
anchors = (
{
name = bottom;
position = "{576, -718}";
},
{
name = top;
position = "{635, 1195}";
}
);
layerId = "93A312F7-B931-4485-B08E-C367313EB5E7";
paths = (
{
closed = 1;
nodes = (
"804 -562 OFFCURVE",
"819 -556 OFFCURVE",
"822 -546 CURVE SMOOTH",
"901 -246 OFFCURVE",
"802 -86 OFFCURVE",
"719 -8 CURVE SMOOTH",
"714 -4 OFFCURVE",
"726 0 OFFCURVE",
"741 0 CURVE SMOOTH",
"977 0 LINE",
"1025 60 OFFCURVE",
"1025 119 OFFCURVE",
"977 179 CURVE",
"911 179 LINE SMOOTH",
"802 179 OFFCURVE",
"735 169 OFFCURVE",
"618 158 CURVE SMOOTH",
"603 157 OFFCURVE",
"599 162 OFFCURVE",
"611 173 CURVE SMOOTH",
"834 375 OFFCURVE",
"799 428 OFFCURVE",
"781 895 CURVE SMOOTH",
"781 906 OFFCURVE",
"776 912 OFFCURVE",
"768 916 CURVE SMOOTH",
"644 986 LINE SMOOTH",
"636 991 OFFCURVE",
"628 991 OFFCURVE",
"620 984 CURVE SMOOTH",
"381 784 OFFCURVE",
"237 521 OFFCURVE",
"161 194 CURVE SMOOTH",
"159 184 OFFCURVE",
"153 179 OFFCURVE",
"143 179 CURVE SMOOTH",
"-20 179 LINE SMOOTH",
"-138 179 OFFCURVE",
"-138 0 OFFCURVE",
"-20 0 CURVE SMOOTH",
"137 0 LINE SMOOTH",
"147 0 OFFCURVE",
"154 -7 OFFCURVE",
"155 -18 CURVE SMOOTH",
"192 -365 OFFCURVE",
"450 -572 OFFCURVE",
"793 -562 CURVE SMOOTH"
);
},
{
closed = 1;
nodes = (
"515 -388 OFFCURVE",
"320 -197 OFFCURVE",
"307 -2 CURVE SMOOTH",
"306 9 OFFCURVE",
"313 15 OFFCURVE",
"324 15 CURVE SMOOTH",
"552 8 OFFCURVE",
"716 -163 OFFCURVE",
"766 -362 CURVE SMOOTH",
"769 -374 OFFCURVE",
"764 -382 OFFCURVE",
"751 -382 CURVE SMOOTH"
);
},
{
closed = 1;
nodes = (
"307 174 OFFCURVE",
"297 177 OFFCURVE",
"299 191 CURVE SMOOTH",
"334 415 OFFCURVE",
"458 623 OFFCURVE",
"610 760 CURVE SMOOTH",
"619 768 OFFCURVE",
"626 762 OFFCURVE",
"627 747 CURVE SMOOTH",
"650 323 OFFCURVE",
"650 339 OFFCURVE",
"626 322 CURVE SMOOTH",
"526 250 OFFCURVE",
"424 206 OFFCURVE",
"319 177 CURVE SMOOTH"
);
}
);
width = 957;
},
{
anchors = (
{
name = bottom;
position = "{553, -737}";
},
{
name = top;
position = "{590, 1147}";
}
);
layerId = "00FED3EE-B3F5-49E6-B91A-35FC52169726";
paths = (
{
closed = 1;
nodes = (
"778 -540 OFFCURVE",
"795 -530 OFFCURVE",
"799 -517 CURVE SMOOTH",
"818 -443 OFFCURVE",
"828 -373 OFFCURVE",
"828 -310 CURVE SMOOTH",
"828 -184 OFFCURVE",
"788 -83 OFFCURVE",
"705 -4 CURVE SMOOTH",
"701 -1 OFFCURVE",
"706 0 OFFCURVE",
"711 0 CURVE SMOOTH",
"939 0 LINE",
"966 32 OFFCURVE",
"978 63 OFFCURVE",
"978 96 CURVE SMOOTH",
"978 128 OFFCURVE",
"966 159 OFFCURVE",
"939 191 CURVE",
"875 191 LINE SMOOTH",
"769 191 OFFCURVE",
"709 183 OFFCURVE",
"597 160 CURVE SMOOTH",
"592 159 OFFCURVE",
"592 162 OFFCURVE",
"596 165 CURVE SMOOTH",
"741 297 OFFCURVE",
"774 368 OFFCURVE",
"774 531 CURVE SMOOTH",
"774 613 OFFCURVE",
"765 720 OFFCURVE",
"759 869 CURVE SMOOTH",
"759 881 OFFCURVE",
"754 892 OFFCURVE",
"741 898 CURVE SMOOTH",
"742 898 LINE SMOOTH",
"623 965 LINE SMOOTH",
"618 968 OFFCURVE",
"612 970 OFFCURVE",
"608 970 CURVE SMOOTH",
"601 970 OFFCURVE",
"594 967 OFFCURVE",
"588 962 CURVE SMOOTH",
"366 775 OFFCURVE",
"222 526 OFFCURVE",
"145 198 CURVE SMOOTH",
"144 193 OFFCURVE",
"142 191 OFFCURVE",
"137 191 CURVE SMOOTH",
"-19 191 LINE SMOOTH",
"-83 191 OFFCURVE",
"-113 143 OFFCURVE",
"-113 96 CURVE SMOOTH",
"-113 48 OFFCURVE",
"-83 0 OFFCURVE",
"-19 0 CURVE SMOOTH",
"132 0 LINE SMOOTH",
"136 0 OFFCURVE",
"138 -3 OFFCURVE",
"139 -9 CURVE SMOOTH",
"174 -360 OFFCURVE",
"363 -540 OFFCURVE",
"732 -540 CURVE SMOOTH",
"742 -540 OFFCURVE",
"752 -540 OFFCURVE",
"761 -540 CURVE SMOOTH"
);
},
{
closed = 1;
nodes = (
"464 -353 OFFCURVE",
"317 -204 OFFCURVE",
"304 18 CURVE SMOOTH",
"304 22 OFFCURVE",
"305 24 OFFCURVE",
"311 24 CURVE SMOOTH",
"546 18 OFFCURVE",
"674 -106 OFFCURVE",
"726 -340 CURVE SMOOTH",
"728 -347 OFFCURVE",
"727 -348 OFFCURVE",
"721 -348 CURVE SMOOTH"
);
},
{
closed = 1;
nodes = (
"296 178 OFFCURVE",
"296 179 OFFCURVE",
"297 182 CURVE SMOOTH",
"328 383 OFFCURVE",
"434 590 OFFCURVE",
"588 730 CURVE SMOOTH",
"590 732 OFFCURVE",
"592 732 OFFCURVE",
"592 726 CURVE",
"610 367 LINE",
"610 329 OFFCURVE",
"603 323 OFFCURVE",
"595 317 CURVE SMOOTH",
"509 254 OFFCURVE",
"415 210 OFFCURVE",
"303 180 CURVE SMOOTH"
);
}
);
width = 920;
}
);
unicode = FEEC;
},
{
glyphname = "heh-ar.init";
lastChange = "2016-07-24 15:16:26 +0000";
layers = (
{
anchors = (
{
name = bottom;
position = "{651, -97}";
},
{
name = top;
position = "{711, 1264}";
}
);
layerId = "93A312F7-B931-4485-B08E-C367313EB5E7";
paths = (
{
closed = 1;
nodes = (
"46 0 LINE SMOOTH",
"224 0 OFFCURVE",
"490 79 OFFCURVE",
"615 168 CURVE SMOOTH",
"623 173 OFFCURVE",
"630 175 OFFCURVE",
"638 173 CURVE SMOOTH",
"1219 35 LINE SMOOTH",
"1229 33 OFFCURVE",
"1237 36 OFFCURVE",
"1241 46 CURVE SMOOTH",
"1401 473 OFFCURVE",
"1293 711 OFFCURVE",
"744 1090 CURVE SMOOTH",
"735 1096 OFFCURVE",
"725 1095 OFFCURVE",
"720 1086 CURVE SMOOTH",
"660 982 LINE SMOOTH",
"656 975 OFFCURVE",
"651 970 OFFCURVE",
"643 967 CURVE SMOOTH",
"460 896 OFFCURVE",
"271 611 OFFCURVE",
"269 413 CURVE SMOOTH",
"268 337 OFFCURVE",
"286 283 OFFCURVE",
"331 231 CURVE SMOOTH",
"340 221 OFFCURVE",
"338 211 OFFCURVE",
"325 208 CURVE SMOOTH",
"274 195 OFFCURVE",
"209 179 OFFCURVE",
"46 179 CURVE SMOOTH",
"-20 179 LINE SMOOTH",
"-138 179 OFFCURVE",
"-138 0 OFFCURVE",
"-20 0 CURVE SMOOTH"
);
},
{
closed = 1;
nodes = (
"369 357 OFFCURVE",
"327 499 OFFCURVE",
"420 660 CURVE SMOOTH",
"529 851 OFFCURVE",
"735 828 OFFCURVE",
"812 697 CURVE SMOOTH",
"817 689 OFFCURVE",
"815 682 OFFCURVE",
"811 674 CURVE SMOOTH",
"634 331 LINE SMOOTH",
"630 323 OFFCURVE",
"622 320 OFFCURVE",
"612 321 CURVE SMOOTH"
);
},
{
closed = 1;
nodes = (
"800 325 LINE SMOOTH",
"790 328 OFFCURVE",
"785 336 OFFCURVE",
"789 347 CURVE SMOOTH",
"915 718 LINE SMOOTH",
"919 730 OFFCURVE",
"928 730 OFFCURVE",
"938 723 CURVE SMOOTH",
"1103 607 OFFCURVE",
"1222 408 OFFCURVE",
"1204 228 CURVE SMOOTH",
"1203 216 OFFCURVE",
"1194 211 OFFCURVE",
"1183 214 CURVE SMOOTH"
);
}
);
width = 1447;
},
{
anchors = (
{
name = bottom;
position = "{692, -180}";
},
{
name = top;
position = "{702, 1261}";
}
);
layerId = "00FED3EE-B3F5-49E6-B91A-35FC52169726";
paths = (
{
closed = 1;
nodes = (
"44 0 LINE SMOOTH",
"216 0 OFFCURVE",
"473 76 OFFCURVE",
"596 163 CURVE SMOOTH",
"600 166 OFFCURVE",
"604 167 OFFCURVE",
"606 167 CURVE SMOOTH",
"608 167 OFFCURVE",
"610 166 OFFCURVE",
"611 166 CURVE SMOOTH",
"1168 34 LINE SMOOTH",
"1183 31 OFFCURVE",
"1195 37 OFFCURVE",
"1200 50 CURVE SMOOTH",
"1242 164 OFFCURVE",
"1265 264 OFFCURVE",
"1265 357 CURVE SMOOTH",
"1265 605 OFFCURVE",
"1103 799 OFFCURVE",
"720 1064 CURVE SMOOTH",
"714 1068 OFFCURVE",
"708 1069 OFFCURVE",
"703 1069 CURVE SMOOTH",
"695 1069 OFFCURVE",
"687 1065 OFFCURVE",
"683 1057 CURVE SMOOTH",
"625 957 LINE SMOOTH",
"622 951 OFFCURVE",
"619 948 OFFCURVE",
"613 947 CURVE SMOOTH",
"436 877 OFFCURVE",
"249 599 OFFCURVE",
"249 400 CURVE SMOOTH",
"249 327 OFFCURVE",
"267 276 OFFCURVE",
"310 225 CURVE SMOOTH",
"315 220 OFFCURVE",
"314 220 OFFCURVE",
"310 219 CURVE SMOOTH",
"261 206 OFFCURVE",
"200 191 OFFCURVE",
"44 191 CURVE SMOOTH",
"-19 191 LINE SMOOTH",
"-83 191 OFFCURVE",
"-113 143 OFFCURVE",
"-113 96 CURVE SMOOTH",
"-113 48 OFFCURVE",
"-83 0 OFFCURVE",
"-19 0 CURVE SMOOTH"
);
},
{
closed = 1;
nodes = (
"444 348 OFFCURVE",
"369 412 OFFCURVE",
"369 503 CURVE SMOOTH",
"369 623 OFFCURVE",
"482 769 OFFCURVE",
"608 769 CURVE SMOOTH",
"674 769 OFFCURVE",
"736 733 OFFCURVE",
"771 674 CURVE SMOOTH",
"774 670 OFFCURVE",
"774 667 OFFCURVE",
"770 660 CURVE SMOOTH",
"600 332 LINE SMOOTH",
"598 329 OFFCURVE",
"596 327 OFFCURVE",
"591 327 CURVE SMOOTH",
"590 327 OFFCURVE",
"589 327 OFFCURVE",
"588 327 CURVE SMOOTH"
);
},
{
closed = 1;
nodes = (
"771 331 LINE SMOOTH",
"766 332 OFFCURVE",
"765 335 OFFCURVE",
"766 340 CURVE SMOOTH",
"887 696 LINE SMOOTH",
"889 699 OFFCURVE",
"889 700 OFFCURVE",
"895 696 CURVE SMOOTH",
"1045 589 OFFCURVE",
"1156 409 OFFCURVE",
"1146 229 CURVE SMOOTH",
"1146 225 OFFCURVE",
"1143 223 OFFCURVE",
"1139 225 CURVE SMOOTH"
);
}
);
width = 1400;
}
);
leftKerningGroup = all;
unicode = FEEB;
},
{
glyphname = "hehgoal-ar.fina";
lastChange = "2016-07-24 15:16:29 +0000";
layers = (
{
anchors = (
{
name = bottom;
position = "{608, -177}";
},
{
name = top;
position = "{662, 582}";
}
);
layerId = "93A312F7-B931-4485-B08E-C367313EB5E7";
paths = (
{
closed = 1;
nodes = (
"227 -92 OFFCURVE",
"236 -91 OFFCURVE",
"244 -82 CURVE SMOOTH",
"530 236 OFFCURVE",
"580 255 OFFCURVE",
"598 255 CURVE SMOOTH",
"685 255 OFFCURVE",
"900 0 OFFCURVE",
"1137 0 CURVE SMOOTH",
"1259 0 LINE",
"1307 60 OFFCURVE",
"1307 119 OFFCURVE",
"1259 179 CURVE",
"1193 179 LINE SMOOTH",
"1070 179 OFFCURVE",
"980 230 OFFCURVE",
"899 283 CURVE SMOOTH",
"808 343 OFFCURVE",
"728 407 OFFCURVE",
"662 409 CURVE SMOOTH",
"560 413 OFFCURVE",
"440 279 OFFCURVE",
"178 -28 CURVE SMOOTH",
"171 -37 OFFCURVE",
"170 -45 OFFCURVE",
"179 -53 CURVE SMOOTH",
"218 -85 LINE SMOOTH"
);
}
);
width = 1239;
},
{
anchors = (
{
name = bottom;
position = "{601, -189}";
},
{
name = top;
position = "{653, 607}";
}
);
layerId = "00FED3EE-B3F5-49E6-B91A-35FC52169726";
paths = (
{
closed = 1;
nodes = (
"227 -84 OFFCURVE",
"232 -86 OFFCURVE",
"238 -86 CURVE SMOOTH",
"246 -86 OFFCURVE",
"252 -83 OFFCURVE",
"258 -76 CURVE SMOOTH",
"445 132 OFFCURVE",
"562 245 OFFCURVE",
"591 245 CURVE SMOOTH",
"670 245 OFFCURVE",
"877 0 OFFCURVE",
"1109 0 CURVE SMOOTH",
"1227 0 LINE",
"1254 32 OFFCURVE",
"1266 63 OFFCURVE",
"1266 96 CURVE SMOOTH",
"1266 128 OFFCURVE",
"1254 159 OFFCURVE",
"1227 191 CURVE",
"1163 191 LINE SMOOTH",
"1047 191 OFFCURVE",
"963 239 OFFCURVE",
"885 289 CURVE SMOOTH",
"797 348 OFFCURVE",
"716 412 OFFCURVE",
"648 412 CURVE SMOOTH",
"547 412 OFFCURVE",
"428 280 OFFCURVE",
"180 -12 CURVE SMOOTH",
"176 -18 OFFCURVE",
"173 -24 OFFCURVE",
"173 -30 CURVE SMOOTH",
"173 -36 OFFCURVE",
"177 -42 OFFCURVE",
"182 -48 CURVE SMOOTH",
"221 -80 LINE SMOOTH"
);
}
);
width = 1208;
}
);
unicode = FBA7;
},
{
glyphname = "hehgoal-ar.medi";
lastChange = "2016-07-24 15:16:31 +0000";
layers = (
{
anchors = (
{
name = bottom;
position = "{690, -839}";
},
{
name = top;
position = "{621, 747}";
}
);
layerId = "93A312F7-B931-4485-B08E-C367313EB5E7";
paths = (
{
closed = 1;
nodes = (
"880 -469 LINE SMOOTH",
"885 -462 OFFCURVE",
"887 -454 OFFCURVE",
"883 -446 CURVE SMOOTH",
"819 -331 OFFCURVE",
"774 -216 OFFCURVE",
"750 -101 CURVE SMOOTH",
"748 -91 OFFCURVE",
"750 -84 OFFCURVE",
"760 -79 CURVE SMOOTH",
"879 -26 OFFCURVE",
"1002 0 OFFCURVE",
"1242 0 CURVE SMOOTH",
"1262 0 LINE",
"1310 60 OFFCURVE",
"1310 119 OFFCURVE",
"1262 179 CURVE",
"1242 179 LINE SMOOTH",
"798 178 OFFCURVE",
"592 76 OFFCURVE",
"691 -368 CURVE",
"605 -153 OFFCURVE",
"550 -3 OFFCURVE",
"555 243 CURVE",
"576 544 LINE SMOOTH",
"577 557 OFFCURVE",
"569 562 OFFCURVE",
"558 561 CURVE SMOOTH",
"492 553 LINE SMOOTH",
"482 552 OFFCURVE",
"476 546 OFFCURVE",
"475 536 CURVE SMOOTH",
"454 354 LINE SMOOTH",
"433 175 OFFCURVE",
"182 179 OFFCURVE",
"51 179 CURVE SMOOTH",
"-20 179 LINE SMOOTH",
"-138 179 OFFCURVE",
"-138 0 OFFCURVE",
"-20 0 CURVE SMOOTH",
"44 0 LINE SMOOTH",
"168 0 OFFCURVE",
"324 13 OFFCURVE",
"440 117 CURVE",
"407 -227 OFFCURVE",
"623 -522 OFFCURVE",
"710 -658 CURVE SMOOTH",
"717 -669 OFFCURVE",
"726 -670 OFFCURVE",
"734 -659 CURVE SMOOTH"
);
}
);
width = 1242;
},
{
anchors = (
{
name = bottom;
position = "{701, -834}";
},
{
name = top;
position = "{502, 747}";
}
);
layerId = "00FED3EE-B3F5-49E6-B91A-35FC52169726";
paths = (
{
closed = 1;
nodes = (
"624 101 OFFCURVE",
"633 -275 CURVE",
"575 -128 OFFCURVE",
"542 30 OFFCURVE",
"542 214 CURVE SMOOTH",
"542 256 OFFCURVE",
"545 290 OFFCURVE",
"563 531 CURVE SMOOTH",
"564 548 OFFCURVE",
"553 560 OFFCURVE",
"535 558 CURVE SMOOTH",
"471 550 LINE SMOOTH",
"457 548 OFFCURVE",
"448 540 OFFCURVE",
"446 525 CURVE SMOOTH",
"426 350 LINE SMOOTH",
"407 187 OFFCURVE",
"175 191 OFFCURVE",
"49 191 CURVE SMOOTH",
"-19 191 LINE SMOOTH",
"-83 191 OFFCURVE",
"-113 143 OFFCURVE",
"-113 96 CURVE SMOOTH",
"-113 48 OFFCURVE",
"-83 0 OFFCURVE",
"-19 0 CURVE SMOOTH",
"42 0 LINE SMOOTH",
"156 0 OFFCURVE",
"300 12 OFFCURVE",
"411 100 CURVE",
"399 -225 OFFCURVE",
"602 -500 OFFCURVE",
"684 -627 CURVE SMOOTH",
"688 -636 OFFCURVE",
"696 -640 OFFCURVE",
"704 -640 CURVE SMOOTH",
"709 -640 OFFCURVE",
"716 -636 OFFCURVE",
"722 -629 CURVE SMOOTH",
"843 -446 LINE SMOOTH",
"847 -441 OFFCURVE",
"850 -434 OFFCURVE",
"850 -427 CURVE SMOOTH",
"850 -422 OFFCURVE",
"849 -419 OFFCURVE",
"847 -415 CURVE SMOOTH",
"788 -304 OFFCURVE",
"740 -206 OFFCURVE",
"729 -84 CURVE SMOOTH",
"729 -80 OFFCURVE",
"728 -78 OFFCURVE",
"733 -75 CURVE SMOOTH",
"847 -25 OFFCURVE",
"963 0 OFFCURVE",
"1192 0 CURVE SMOOTH",
"1212 0 LINE",
"1239 32 OFFCURVE",
"1252 63 OFFCURVE",
"1252 96 CURVE SMOOTH",
"1252 128 OFFCURVE",
"1239 159 OFFCURVE",
"1212 191 CURVE",
"1192 191 LINE SMOOTH",
"793 191 OFFCURVE"
);
}
);
width = 1193;
}
);
unicode = FBA9;
},
{
glyphname = "hehDoachashmee-ar";
lastChange = "2016-07-24 15:16:35 +0000";
layers = (
{
anchors = (
{
name = bottom;
position = "{689, -141}";
},
{
name = top;
position = "{721, 1495}";
}
);
layerId = "93A312F7-B931-4485-B08E-C367313EB5E7";
paths = (
{
closed = 1;
nodes = (
"334 3 OFFCURVE",
"385 36 OFFCURVE",
"466 154 CURVE SMOOTH",
"584 325 LINE SMOOTH",
"590 334 OFFCURVE",
"597 336 OFFCURVE",
"606 335 CURVE SMOOTH",
"1157 247 LINE SMOOTH",
"1166 246 OFFCURVE",
"1174 250 OFFCURVE",
"1178 259 CURVE SMOOTH",
"1336 607 OFFCURVE",
"1247 833 OFFCURVE",
"689 1319 CURVE SMOOTH",
"679 1327 OFFCURVE",
"671 1328 OFFCURVE",
"665 1316 CURVE SMOOTH",
"583 1160 LINE SMOOTH",
"579 1152 OFFCURVE",
"574 1148 OFFCURVE",
"566 1145 CURVE SMOOTH",
"384 1072 OFFCURVE",
"194 808 OFFCURVE",
"184 605 CURVE SMOOTH",
"178 490 OFFCURVE",
"237 382 OFFCURVE",
"392 332 CURVE SMOOTH",
"405 328 OFFCURVE",
"409 319 OFFCURVE",
"400 309 CURVE SMOOTH",
"198 68 LINE SMOOTH",
"190 59 OFFCURVE",
"192 49 OFFCURVE",
"205 45 CURVE SMOOTH"
);
},
{
closed = 1;
nodes = (
"358 536 OFFCURVE",
"291 603 OFFCURVE",
"294 696 CURVE SMOOTH",
"301 934 OFFCURVE",
"628 1066 OFFCURVE",
"738 875 CURVE SMOOTH",
"743 866 OFFCURVE",
"743 860 OFFCURVE",
"738 852 CURVE SMOOTH",
"545 509 LINE SMOOTH",
"540 500 OFFCURVE",
"534 498 OFFCURVE",
"523 500 CURVE SMOOTH"
);
},
{
closed = 1;
nodes = (
"725 505 LINE SMOOTH",
"713 507 OFFCURVE",
"708 515 OFFCURVE",
"712 526 CURVE SMOOTH",
"838 894 LINE SMOOTH",
"842 906 OFFCURVE",
"852 908 OFFCURVE",
"861 899 CURVE SMOOTH",
"979 783 OFFCURVE",
"1142 581 OFFCURVE",
"1148 440 CURVE SMOOTH",
"1148 429 OFFCURVE",
"1141 423 OFFCURVE",
"1129 425 CURVE SMOOTH"
);
}
);
width = 1386;
},
{
anchors = (
{
name = bottom;
position = "{666, -280}";
},
{
name = top;
position = "{652, 1290}";
}
);
layerId = "00FED3EE-B3F5-49E6-B91A-35FC52169726";
paths = (
{
closed = 1;
nodes = (
"255 -177 OFFCURVE",
"290 -177 CURVE SMOOTH",
"355 -177 OFFCURVE",
"400 -139 OFFCURVE",
"461 -51 CURVE SMOOTH",
"574 113 LINE",
"578 118 OFFCURVE",
"581 119 OFFCURVE",
"587 119 CURVE",
"1115 35 LINE SMOOTH",
"1129 34 OFFCURVE",
"1140 39 OFFCURVE",
"1145 52 CURVE SMOOTH",
"1189 148 OFFCURVE",
"1212 235 OFFCURVE",
"1212 321 CURVE SMOOTH",
"1212 541 OFFCURVE",
"1053 750 OFFCURVE",
"674 1081 CURVE SMOOTH",
"667 1086 OFFCURVE",
"660 1089 OFFCURVE",
"655 1089 CURVE SMOOTH",
"647 1089 OFFCURVE",
"640 1084 OFFCURVE",
"636 1074 CURVE SMOOTH",
"557 925 LINE SMOOTH",
"554 920 OFFCURVE",
"552 918 OFFCURVE",
"545 915 CURVE SMOOTH",
"360 841 OFFCURVE",
"173 570 OFFCURVE",
"173 372 CURVE SMOOTH",
"173 252 OFFCURVE",
"247 159 OFFCURVE",
"379 116 CURVE SMOOTH",
"386 114 OFFCURVE",
"386 113 OFFCURVE",
"383 110 CURVE SMOOTH",
"188 -122 LINE SMOOTH",
"184 -127 OFFCURVE",
"181 -132 OFFCURVE",
"181 -138 CURVE SMOOTH",
"181 -165 OFFCURVE"
);
},
{
closed = 1;
nodes = (
"366 327 OFFCURVE",
"298 385 OFFCURVE",
"298 469 CURVE SMOOTH",
"298 619 OFFCURVE",
"437 725 OFFCURVE",
"559 725 CURVE SMOOTH",
"617 725 OFFCURVE",
"673 700 OFFCURVE",
"706 642 CURVE SMOOTH",
"709 636 OFFCURVE",
"709 635 OFFCURVE",
"707 630 CURVE SMOOTH",
"520 300 LINE SMOOTH",
"518 296 OFFCURVE",
"516 295 OFFCURVE",
"510 297 CURVE SMOOTH"
);
},
{
closed = 1;
nodes = (
"704 301 LINE SMOOTH",
"699 302 OFFCURVE",
"698 303 OFFCURVE",
"698 306 CURVE",
"819 662 LINE",
"821 666 OFFCURVE",
"822 667 OFFCURVE",
"826 663 CURVE SMOOTH",
"939 552 OFFCURVE",
"1092 361 OFFCURVE",
"1098 229 CURVE SMOOTH",
"1098 225 OFFCURVE",
"1096 224 OFFCURVE",
"1092 225 CURVE SMOOTH"
);
}
);
width = 1347;
}
);
leftKerningGroup = all;
unicode = 06BE;
},
